<svg width="316" height="316" viewBox="0 0 316 316" fill="none" xmlns="http://www.w3.org/2000/svg">
<path d="M260.084 78.0054C260.727 77.8691 261.316 77.5446 261.774 77.0732C261.721 77.3349 261.652 77.5934 261.569 77.8474C261.443 78.274 261.917 78.4004 262.075 78.1318C262.633 77.3022 262.854 76.2904 262.691 75.3036C262.683 75.2103 262.648 75.1214 262.591 75.0473C262.534 74.9732 262.456 74.917 262.368 74.8855C262.28 74.8539 262.185 74.8482 262.094 74.8691C262.002 74.89 261.919 74.9366 261.853 75.0034C261.19 75.8092 261.063 76.9468 259.942 77.2944C259.853 77.3186 259.777 77.3756 259.728 77.4539C259.68 77.5322 259.663 77.626 259.681 77.7162C259.699 77.8065 259.751 77.8866 259.825 77.9402C259.9 77.9939 259.993 78.0172 260.084 78.0054ZM256.971 72.6808C257.059 72.7374 257.161 72.7693 257.266 72.7731C257.371 72.777 257.475 72.7526 257.567 72.7025C257.659 72.6524 257.736 72.5785 257.789 72.4885C257.843 72.3985 257.872 72.2958 257.872 72.191C257.872 72.0646 257.872 71.9224 257.113 70.7848C256.955 70.5478 256.766 70.1054 256.355 70.3266C255.944 70.5478 256.229 70.9586 256.45 71.5116C256.892 72.6808 256.892 72.6808 256.971 72.6808ZM256.718 69.7894C257.493 69.7894 258.03 69.7894 258.125 70.4372C258.137 70.5335 258.188 70.621 258.265 70.6802C258.342 70.7395 258.439 70.7657 258.535 70.7532C258.632 70.7406 258.719 70.6902 258.779 70.6132C258.838 70.5362 258.864 70.4387 258.851 70.3424C258.726 69.8305 258.425 69.3789 258 69.0669C257.576 68.7549 257.055 68.6023 256.529 68.636C256.404 68.6879 256.3 68.7806 256.234 68.8989C256.169 69.0172 256.145 69.1542 256.167 69.2877C256.189 69.4213 256.255 69.5435 256.355 69.6345C256.456 69.7256 256.583 69.7801 256.718 69.7894ZM63.4686 117.948C59.0368 120.092 54.1596 121.153 49.2377 121.046C44.3158 120.939 39.4894 119.666 35.155 117.332C35.0754 117.283 34.9799 117.269 34.8896 117.291C34.7992 117.313 34.7213 117.37 34.6731 117.45C34.625 117.53 34.6104 117.625 34.6326 117.716C34.6548 117.806 34.712 117.884 34.7916 117.932C43.45 123.573 56.169 123.889 63.7056 118.359C63.7601 118.327 63.7999 118.275 63.8162 118.215C63.8325 118.154 63.824 118.089 63.7925 118.035C63.7611 117.98 63.7093 117.94 63.6486 117.924C63.5879 117.908 63.5231 117.916 63.4686 117.948ZM62.2994 71.1008C63.2 71.4642 64.6852 71.1008 64.2902 70.2634C64.0265 69.6244 63.8409 68.956 63.7372 68.2726C63.7372 68.1762 63.699 68.0838 63.6308 68.0156C63.5627 67.9475 63.4702 67.9092 63.3738 67.9092C63.2775 67.9092 63.185 67.9475 63.1169 68.0156C63.0487 68.0838 63.0104 68.1762 63.0104 68.2726C63.001 68.9411 63.0645 69.6086 63.2 70.2634C62.9845 70.386 62.7352 70.4358 62.489 70.4056C62.4434 70.3931 62.3957 70.3898 62.3488 70.3957C62.3019 70.4017 62.2566 70.4169 62.2155 70.4403C62.1744 70.4638 62.1384 70.4952 62.1094 70.5326C62.0804 70.57 62.0591 70.6127 62.0466 70.6584C62.0342 70.704 62.0309 70.7517 62.0368 70.7986C62.0428 70.8455 62.0579 70.8908 62.0814 70.9319C62.1049 70.973 62.1362 71.0091 62.1736 71.038C62.2111 71.067 62.2538 71.0883 62.2994 71.1008ZM60.4824 67.6406C60.7271 67.0722 60.9278 66.4859 61.0828 65.8868C61.097 65.8318 61.0999 65.7745 61.0916 65.7183C61.0833 65.6621 61.0639 65.6082 61.0345 65.5596C61.005 65.5111 60.9662 65.4689 60.9202 65.4355C60.8743 65.4022 60.8221 65.3783 60.7668 65.3654C60.2928 65.2232 60.2138 65.7288 59.9768 66.345C59.8408 66.6515 59.7298 66.9685 59.645 67.293C59.6445 67.3902 59.673 67.4854 59.7268 67.5664C59.7806 67.6474 59.8573 67.7106 59.9471 67.7479C60.0369 67.7851 60.1357 67.7949 60.2311 67.7757C60.3264 67.7566 60.4139 67.7096 60.4824 67.6406ZM65.7438 69.1258C65.8338 69.1653 65.9338 69.1759 66.0301 69.156C66.1263 69.1362 66.214 69.087 66.281 69.0152C66.5234 68.4459 66.724 67.8597 66.8815 67.2614C66.8981 67.2074 66.9034 67.1506 66.8972 67.0945C66.8909 67.0384 66.8731 66.9842 66.8449 66.9353C66.8167 66.8864 66.7788 66.8438 66.7334 66.8102C66.6881 66.7765 66.6363 66.7527 66.5812 66.74C66.0914 66.5978 65.9966 67.1666 65.7912 67.7038C65.5858 68.241 65.1908 68.9046 65.7438 69.1258ZM58.1598 72.3648C58.727 72.6487 59.3767 72.7215 59.9926 72.5702C60.3876 72.3964 60.119 71.796 59.7398 71.9224C59.3224 71.8938 58.922 71.7457 58.5864 71.4958C58.3727 71.3555 58.1886 71.1745 58.0449 70.963C57.9012 70.7515 57.8007 70.5138 57.749 70.2634C57.6384 69.5998 56.5956 69.8526 56.7536 70.5162C56.8303 70.9116 56.9971 71.284 57.241 71.6046C57.4848 71.9252 57.7992 72.1853 58.1598 72.3648ZM170.482 245.327C170.482 244.908 170.316 244.506 170.019 244.21C169.723 243.914 169.321 243.747 168.902 243.747C168.483 243.747 168.081 243.914 167.785 244.21C167.489 244.506 167.322 244.908 167.322 245.327C167.322 245.746 167.489 246.148 167.785 246.445C168.081 246.741 168.483 246.907 168.902 246.907C169.321 246.907 169.723 246.741 170.019 246.445C170.316 246.148 170.482 245.746 170.482 245.327ZM170.45 260.89C170.7 260.914 170.952 260.885 171.19 260.805C171.428 260.726 171.646 260.598 171.832 260.429C172.017 260.26 172.165 260.054 172.266 259.825C172.368 259.596 172.42 259.348 172.42 259.097C172.42 258.846 172.368 258.598 172.266 258.369C172.165 258.14 172.017 257.934 171.832 257.765C171.646 257.596 171.428 257.468 171.19 257.389C170.952 257.309 170.7 257.28 170.45 257.304C170.201 257.28 169.949 257.309 169.711 257.389C169.473 257.468 169.255 257.596 169.069 257.765C168.884 257.934 168.736 258.14 168.634 258.369C168.533 258.598 168.481 258.846 168.481 259.097C168.481 259.348 168.533 259.596 168.634 259.825C168.736 260.054 168.884 260.26 169.069 260.429C169.255 260.598 169.473 260.726 169.711 260.805C169.949 260.885 170.201 260.914 170.45 260.89ZM170.909 273.688C170.478 273.73 170.079 273.93 169.788 274.249C169.497 274.569 169.336 274.986 169.336 275.418C169.336 275.851 169.497 276.268 169.788 276.587C170.079 276.907 170.478 277.107 170.909 277.149C171.339 277.107 171.739 276.907 172.029 276.587C172.32 276.268 172.481 275.851 172.481 275.418C172.481 274.986 172.32 274.569 172.029 274.249C171.739 273.93 171.339 273.73 170.909 273.688ZM161.318 205.069C162.097 209.194 162.624 213.362 162.898 217.551C162.898 217.698 162.956 217.838 163.06 217.942C163.164 218.046 163.304 218.104 163.451 218.104C163.598 218.104 163.738 218.046 163.842 217.942C163.946 217.838 164.004 217.698 164.004 217.551C163.694 213.293 163.044 209.066 162.061 204.911C162.02 204.835 161.957 204.775 161.879 204.739C161.801 204.702 161.714 204.693 161.63 204.71C161.546 204.728 161.47 204.773 161.414 204.838C161.358 204.902 161.324 204.983 161.318 205.069ZM164.32 251.331C164.32 251.222 164.277 251.118 164.2 251.041C164.123 250.964 164.018 250.921 163.909 250.921C163.8 250.921 163.696 250.964 163.619 251.041C163.542 251.118 163.498 251.222 163.498 251.331C163.34 262.154 163.151 288.019 163.246 290.831C163.267 290.956 163.332 291.069 163.429 291.151C163.526 291.232 163.648 291.277 163.775 291.277C163.902 291.277 164.024 291.232 164.121 291.151C164.218 291.069 164.283 290.956 164.304 290.831C164.525 285.728 164.32 253.859 164.32 251.331ZM206.727 142.659C206.744 142.703 206.775 142.741 206.814 142.767C206.854 142.792 206.901 142.804 206.948 142.801C211.12 140.647 214.875 137.769 218.04 134.301C218.085 134.254 218.109 134.192 218.109 134.127C218.109 134.062 218.085 134 218.04 133.953C214.422 131.394 204.199 127.143 204.183 128.344C204.103 133.235 204.967 138.095 206.727 142.659ZM90.4076 165.585C91.6878 165.638 92.9523 165.288 94.0235 164.585C95.0947 163.882 95.9188 162.862 96.3801 161.666C96.8067 160.323 96.6486 160.086 95.353 152.265C96.2978 153.023 97.2899 153.72 98.3234 154.351C98.6486 154.476 99.0087 154.477 99.334 154.351C99.6593 154.226 99.9265 153.985 100.084 153.674C100.241 153.363 100.278 153.005 100.186 152.669C100.094 152.333 99.881 152.042 99.5874 151.855C96.9443 150.48 94.9142 148.162 93.8995 145.361C93.7573 144.871 91.9086 144.713 91.2134 145.898C91.2134 146.04 93.6308 159.47 93.6624 159.612C93.7654 160.017 93.7654 160.44 93.6624 160.845C93.4277 161.352 93.0685 161.792 92.6183 162.124C92.168 162.455 91.6413 162.667 91.0871 162.741C90.6452 162.828 90.1904 162.827 89.7491 162.737C89.3078 162.647 88.8888 162.47 88.5165 162.216C88.1442 161.963 87.826 161.638 87.5805 161.26C87.3349 160.882 87.167 160.46 87.0863 160.017C87.0056 159.573 87.0139 159.119 87.1106 158.679C87.2073 158.239 87.3906 157.823 87.6496 157.454C87.9087 157.086 88.2385 156.773 88.6197 156.533C89.001 156.293 89.4262 156.131 89.8705 156.057C90.2413 155.992 90.5712 155.783 90.7875 155.475C91.0038 155.166 91.0888 154.785 91.0238 154.414C90.9589 154.043 90.7493 153.713 90.4411 153.497C90.133 153.281 89.7515 153.196 89.3806 153.261C88.2845 153.444 87.2559 153.913 86.3988 154.62C85.5416 155.327 84.8861 156.248 84.4984 157.29C84.1426 158.231 84.0241 159.246 84.1535 160.245C84.2828 161.243 84.656 162.194 85.24 163.014C85.8241 163.834 86.6011 164.497 87.5023 164.945C88.4036 165.394 89.4014 165.613 90.4076 165.585Z" fill="#0E3A99"/>
<path d="M107.914 154.634C107.748 151.442 106.63 148.372 104.704 145.821C102.778 143.27 100.132 141.354 97.1069 140.32C83.4715 135.706 70.9263 151.68 79.0001 163.798C80.9048 166.636 83.6781 168.779 86.9039 169.907C90.1297 171.034 93.6342 171.086 96.8918 170.053C100.149 169.021 102.984 166.96 104.972 164.18C106.959 161.4 107.991 158.051 107.914 154.634ZM82.6341 144.522C92.3195 135.611 106.54 142.942 106.919 154.65C106.883 157.633 106.023 160.547 104.433 163.07C102.844 165.594 100.587 167.629 97.9127 168.949C89.0963 172.789 78.4471 166.168 77.7045 156.846C77.5095 154.555 77.849 152.249 78.6961 150.11C79.5433 147.972 80.8751 146.059 82.5867 144.522H82.6341ZM195.92 142.358C197.292 144.459 199.15 146.199 201.335 147.432C203.521 148.665 205.971 149.355 208.478 149.443C210.986 149.531 213.479 149.015 215.745 147.939C218.012 146.862 219.987 145.257 221.504 143.258C223.02 141.258 224.034 138.924 224.46 136.451C224.885 133.978 224.711 131.439 223.95 129.048C223.189 126.656 221.865 124.483 220.088 122.711C218.312 120.938 216.135 119.619 213.743 118.863C199.554 114.471 188.146 130.998 195.92 142.358ZM199.554 123.098C209.429 113.997 223.46 121.881 223.823 133.225C223.791 136.201 222.94 139.11 221.362 141.632C219.784 144.155 217.541 146.194 214.88 147.524C206.079 151.364 195.415 144.759 194.656 135.422C194.465 133.124 194.813 130.814 195.671 128.675C196.53 126.535 197.876 124.626 199.602 123.098H199.554ZM98.4815 67.5607C86.8053 42.9127 56.8801 32.4057 32.7377 48.8377C1.45372 70.2151 8.84812 115.34 44.0189 127.474C78.3681 139.672 115.862 104.28 98.4815 67.5607ZM76.4721 124.283C73.6049 125.687 70.582 126.747 67.4661 127.443C67.6715 125.483 67.9243 120.427 68.0191 118.057C69.5043 120.427 72.1903 122.797 75.5241 122.323C78.4313 121.865 81.0067 119.163 83.4241 114.423C85.7909 109.243 87.122 103.651 87.3425 97.9599C87.6 97.3012 87.7648 96.6099 87.8323 95.9059C88.6352 94.0559 89.5698 92.2659 90.6289 90.5497C91.1977 90.054 91.6925 89.4793 92.0983 88.8433C92.5399 87.6185 92.6382 86.2963 92.3827 85.0197C92.3331 83.7393 91.8609 82.5115 91.0397 81.5279C91.6875 80.2165 93.4887 74.2283 93.7889 73.0591C93.8147 72.9338 93.7936 72.8034 93.7295 72.6927C93.6654 72.582 93.5628 72.4987 93.4413 72.4587C90.2738 71.9757 87.0696 71.7748 83.8665 71.8583C83.7559 71.6529 78.0679 87.8953 77.5465 89.2383C77.5224 89.3119 77.5136 89.3897 77.5206 89.4668C77.5276 89.5439 77.5503 89.6188 77.5873 89.6868C77.6243 89.7549 77.6748 89.8147 77.7357 89.8625C77.7966 89.9104 77.8666 89.9453 77.9415 89.9651C79.5118 90.2087 81.0941 90.3669 82.6815 90.4391C82.6815 91.1185 82.3813 92.9987 82.2707 93.5991C81.8202 94.1711 81.4531 94.8041 81.1805 95.4793C79.2188 97.1855 77.838 99.461 77.2305 101.989C74.4339 89.7123 72.4905 84.4351 61.4305 78.2889C60.8775 77.9887 60.2139 77.7675 59.6135 77.3725C67.2607 79.2053 68.1139 80.0743 68.3983 79.6951C77.0567 67.4975 73.0277 53.5461 64.1481 47.9371C55.8373 41.9331 47.6371 47.6053 44.6509 57.1011C42.4389 64.5745 46.2309 71.1157 48.1901 73.8333C46.3889 74.0071 45.7727 74.2125 44.3349 74.3705C32.1689 75.6819 22.3097 90.2653 17.7909 101.657C4.31352 70.7365 33.6699 35.5341 67.7979 43.6869C106.808 54.3835 113.902 106.176 76.4721 124.283ZM28.1399 116.383C29.3407 114.518 32.3427 109.336 33.0379 108.119C41.8227 114.882 58.3179 115.766 66.9763 109.999C66.9763 110.268 66.5813 125.499 66.5813 127.664C59.7379 128.916 52.6962 128.548 46.0207 126.589C39.3451 124.63 33.2212 121.135 28.1399 116.383ZM77.7045 105.512C77.676 105.019 77.618 104.529 77.5307 104.043C77.6729 103.6 77.7677 103.205 77.9099 102.684C78.9369 104.39 82.3339 107.424 83.7401 107.598C83.8109 107.603 83.8815 107.585 83.9405 107.546C83.9995 107.506 84.0435 107.448 84.0654 107.38C84.0873 107.313 84.0858 107.24 84.0612 107.173C84.0366 107.107 83.9903 107.05 83.9297 107.013C81.5905 105.559 79.7114 103.472 78.5103 100.993C78.8742 100.002 79.4089 99.0825 80.0903 98.2759C81.3288 100.22 83.0705 101.792 85.1305 102.826C85.1668 102.836 85.2046 102.838 85.2417 102.832C85.2789 102.827 85.3146 102.815 85.3469 102.796C85.3791 102.777 85.4073 102.751 85.4299 102.721C85.4524 102.691 85.4688 102.657 85.4781 102.621C85.4874 102.585 85.4895 102.547 85.4843 102.51C85.479 102.473 85.4665 102.437 85.4474 102.405C85.4283 102.372 85.4031 102.344 85.3731 102.322C85.3431 102.299 85.309 102.283 85.2727 102.273C83.4248 101.003 81.9035 99.314 80.8329 97.3437C81.0383 97.0909 81.2595 96.8381 81.4807 96.6011C82.7498 97.85 84.4412 98.5774 86.2207 98.6393C85.9413 103.375 84.967 108.044 83.3293 112.496C82.0346 115.626 80.0082 118.4 77.4201 120.585C79.5975 116.359 80.0942 111.465 78.8105 106.887C78.7789 106.779 78.7119 106.684 78.6203 106.618C78.5287 106.552 78.4177 106.519 78.3049 106.523C76.9619 106.523 78.8421 112.022 69.3779 118.105C68.889 117.405 68.4507 116.671 68.0665 115.909C68.1613 110.537 67.9401 105.18 67.7189 99.9981C67.7189 99.9017 67.6806 99.8093 67.6125 99.7411C67.5443 99.673 67.4519 99.6347 67.3555 99.6347C67.2591 99.6347 67.1667 99.673 67.0986 99.7411C67.0304 99.8093 66.9921 99.9017 66.9921 99.9981C67.0869 102.747 66.9921 105.465 66.9921 108.72C61.6833 112.053 55.6003 113.207 47.8267 112.338C42.6557 112.066 37.6736 110.304 33.4803 107.266C34.0333 106.255 36.3401 101.831 36.9879 100.646C37.0191 100.592 37.0353 100.531 37.0347 100.468C37.034 100.406 37.0167 100.345 36.9843 100.292C36.952 100.238 36.906 100.195 36.851 100.165C36.7961 100.136 36.7342 100.122 36.6719 100.124C36.2927 100.124 36.6719 100.03 33.5119 105.449C28.5278 103.497 24.5028 99.6758 22.2939 94.7999C24.8513 89.9179 28.2047 85.4965 32.2163 81.7175C34.2769 84.5784 36.8916 86.9959 39.905 88.8264C42.9184 90.6568 46.2689 91.8628 49.7576 92.3728C53.2463 92.8828 56.8019 92.6862 60.2131 91.7949C63.6244 90.9036 66.8216 89.3357 69.6149 87.1843C69.6685 87.1272 69.7001 87.0529 69.7042 86.9747C69.7083 86.8965 69.6847 86.8194 69.6374 86.757C69.5901 86.6945 69.5222 86.6509 69.4458 86.6336C69.3694 86.6164 69.2894 86.6268 69.2199 86.6629C66.927 88.2385 64.4352 89.503 61.8097 90.4233C56.6307 92.0637 51.0664 92.0307 45.9072 90.329C40.748 88.6272 36.2561 85.3432 33.0695 80.9433C34.5827 79.7154 36.2251 78.6558 37.9675 77.7833C43.9557 91.2607 58.7287 92.2245 65.8703 82.5233C69.5675 85.3989 70.7051 85.7623 73.6597 92.9039C66.8815 98.8131 60.7037 101.752 54.7945 101.689C49.8842 101.723 45.0302 100.641 40.5989 98.5257C36.1677 96.41 32.2749 93.3153 29.2143 89.4753C28.9615 89.1277 28.3927 89.4753 28.6455 89.8545C33.3855 97.0751 42.3757 101.815 53.3725 102.858C60.8143 103.585 68.7143 99.3345 74.0231 93.9309C74.8447 96.6485 75.8401 100.646 75.9507 101.12C75.4609 102.7 70.1679 107.614 69.3305 107.803C68.8407 107.914 69.0935 108.672 69.5359 108.483C72.0824 107.009 74.3762 105.137 76.3299 102.937C76.5037 103.758 76.8197 105.228 76.8671 105.591C76.9145 105.955 77.7361 106.018 77.7045 105.512ZM87.1845 81.6859C86.9887 81.6308 86.7824 81.6244 86.5835 81.6672C86.3847 81.71 86.1993 81.8008 86.0435 81.9317C85.8878 82.0625 85.7664 82.2294 85.6898 82.4179C85.6133 82.6064 85.584 82.8107 85.6045 83.0131C83.9139 83.3765 84.0245 84.5931 85.0041 85.3831C85.9738 85.9951 86.976 86.5542 88.0061 87.0579C87.6427 87.9269 87.3583 88.6379 86.9791 89.4753C85.3991 89.4753 80.4853 89.1751 78.7789 89.0329C79.4109 87.0579 82.7447 77.8781 84.5775 72.9169C86.1575 72.9959 91.1029 73.1223 92.6987 73.3751C92.3195 74.9551 90.7079 79.5529 90.2497 80.9907C90.0058 80.8297 89.7318 80.7199 89.4442 80.6677C89.1566 80.6155 88.8615 80.6221 88.5765 80.687C88.2916 80.752 88.0228 80.874 87.7862 81.0457C87.5497 81.2173 87.3504 81.4351 87.2003 81.6859H87.1845ZM87.8797 90.2337C88.1483 89.3805 88.4801 88.5589 88.9225 87.4845C88.9929 87.4969 89.0654 87.4862 89.1292 87.454C89.193 87.4219 89.2447 87.37 89.2767 87.3061C89.3087 87.2422 89.3191 87.1697 89.3065 87.0993C89.294 87.029 89.259 86.9646 89.2069 86.9157C88.8119 86.5523 85.1463 84.6089 85.2885 84.2297C85.4307 83.8505 86.3471 84.1191 86.8685 84.4193C87.8969 84.8428 88.9526 85.1964 90.0285 85.4779C90.0976 85.4854 90.1673 85.4699 90.2267 85.4338C90.2861 85.3977 90.3319 85.343 90.3571 85.2783C90.3823 85.2135 90.3854 85.1422 90.366 85.0755C90.3466 85.0087 90.3057 84.9502 90.2497 84.9091C89.0158 84.4613 87.8125 83.9335 86.6473 83.3291C86.4103 83.1079 86.2997 82.5075 86.6473 82.5233C87.8082 82.7999 88.8895 83.3406 89.8073 84.1033C89.8436 84.1375 89.8863 84.1643 89.933 84.182C89.9796 84.1997 90.0293 84.2081 90.0792 84.2066C90.1291 84.2052 90.1782 84.1939 90.2237 84.1735C90.2692 84.153 90.3103 84.1238 90.3445 84.0875C90.3788 84.0512 90.4055 84.0085 90.4232 83.9618C90.441 83.9152 90.4493 83.8655 90.4479 83.8156C90.4464 83.7657 90.4351 83.7166 90.4147 83.6711C90.3942 83.6256 90.365 83.5845 90.3287 83.5503C89.7351 83.0816 89.1066 82.6591 88.4485 82.2863C87.6585 81.8281 88.2273 81.2593 89.0173 81.3699C90.0759 81.5279 91.4347 82.9499 91.2925 85.8729C91.4241 86.658 91.3221 87.4645 90.999 88.1921C90.6759 88.9196 90.1462 89.5362 89.4755 89.9651C88.4573 91.5808 87.595 93.2896 86.9001 95.0685C86.2053 95.2483 85.4737 95.2264 84.7909 95.0053C84.1081 94.7842 83.5025 94.3732 83.0449 93.8203C83.1555 93.2673 83.4873 91.3713 83.5821 90.6603C87.1055 90.7709 87.7217 90.7551 87.8955 90.2337H87.8797ZM78.1943 109.367C78.7383 113.399 78.073 117.501 76.2825 121.154C75.1282 121.485 73.8995 121.448 72.7669 121.049C71.6344 120.65 70.6543 119.908 69.9625 118.926C73.8127 116.891 76.7526 113.477 78.1943 109.367ZM49.1223 75.2553C49.1504 75.2886 49.1872 75.3135 49.2285 75.3272C49.2699 75.341 49.3142 75.3431 49.3567 75.3333C49.3991 75.3235 49.438 75.3022 49.4692 75.2717C49.5003 75.2412 49.5224 75.2027 49.5331 75.1605C51.9189 65.7753 51.8557 66.3599 51.6345 66.2335C48.9801 64.7799 49.8175 61.9517 50.8919 61.6199C51.4291 61.4461 52.1401 61.7937 52.8511 62.5837C53.3154 63.0202 53.6677 63.5622 53.8781 64.1637C55.4581 68.5877 64.2113 62.7575 68.0033 59.9609C68.2664 59.7421 68.5777 59.5889 68.9115 59.5137C69.2453 59.4385 69.5921 59.4435 69.9236 59.5283C70.2551 59.6131 70.5618 59.7753 70.8185 60.0015C71.0752 60.2278 71.2746 60.5117 71.4003 60.8299C71.7637 61.5251 71.1001 62.1097 70.7051 61.3513C69.8835 59.9609 68.4457 60.7351 68.4773 61.1143C68.7933 65.0327 68.0665 70.5943 65.0171 73.3119C61.9677 76.0295 58.4285 74.6233 58.1125 74.8919C57.7965 75.1605 57.9703 75.4133 57.9703 75.7135C57.829 76.0488 57.7663 76.412 57.787 76.7753C57.8076 77.1386 57.9111 77.4924 58.0895 77.8096C58.2679 78.1267 58.5165 78.3989 58.8162 78.6052C59.116 78.8115 59.459 78.9465 59.8189 78.9999C61.1101 79.4878 62.3402 80.1241 63.4845 80.8959C57.8597 89.5859 45.5673 88.3061 40.8589 76.5983C43.491 75.6996 46.2344 75.1679 49.0117 75.0183L49.1223 75.2553ZM21.7725 95.7953C22.7933 98.2348 24.3173 100.432 26.2449 102.242C28.1725 104.053 30.4603 105.436 32.9589 106.302C32.7693 106.602 28.3611 113.807 27.3183 115.577C23.482 111.891 20.3639 107.525 18.1227 102.7C19.6869 99.8875 20.5401 98.1811 21.7725 95.8111V95.7953ZM297.925 67.7977C289.03 39.3577 256.971 26.2911 232.071 41.4275C204.01 58.4599 202.335 96.3799 229.1 115.529C264.271 140.62 310.154 105.986 297.925 67.7977ZM249.893 110.9C255.123 117.836 260.368 118.373 263.876 117.568C270.417 116.082 276.152 108.735 277.827 99.6821C277.85 99.5752 277.83 99.4636 277.771 99.3717C277.711 99.2799 277.618 99.2153 277.511 99.1923C277.404 99.1692 277.293 99.1896 277.201 99.2488C277.109 99.3081 277.045 99.4014 277.022 99.5083C276.278 103.374 274.656 107.018 272.282 110.157C262.991 122.26 253.322 116.351 245.911 102.953C243.503 99.1112 242.151 94.7019 241.993 90.1705C245.753 88.4009 245.674 88.3061 246.117 88.6853C250.509 92.4615 258.488 101.467 259.594 102.684C259.614 102.789 259.67 102.884 259.752 102.952C259.834 103.02 259.938 103.058 260.044 103.058C260.151 103.058 260.255 103.02 260.337 102.952C260.419 102.884 260.475 102.789 260.495 102.684C262.264 95.5425 263.655 88.1323 268.916 83.0289C270.869 82.5792 272.848 82.2468 274.841 82.0335C281.841 90.8815 280.845 102.684 280.814 113.886C276.121 117.469 270.731 120.03 264.989 121.405C259.247 122.779 253.282 122.936 247.476 121.865C247.817 118.123 248.629 114.439 249.893 110.9ZM276.184 81.8913C277.037 81.8913 276.958 80.5009 276.184 80.6115C272.886 80.8866 269.648 81.6535 266.578 82.8867C266.151 83.0605 265.661 83.1553 265.819 83.5819C265.977 84.0085 266.325 83.6925 267.51 83.3923C262.865 88.3061 261.111 95.2265 259.894 101.452C259.025 100.393 256.877 97.9441 256.324 97.3121C261.19 86.5839 260.921 86.2521 263.781 84.0875C264.887 83.2027 269.39 79.9479 273.119 77.6095C275.11 76.3455 276.532 75.4607 279.85 80.0585C282.931 84.3403 283.01 84.4035 281.035 93.8045C280.441 89.4755 278.731 85.3754 276.074 81.9071L276.184 81.8913ZM241.424 72.5851C241.709 72.5851 241.851 72.8063 242.072 73.1381C247.286 81.0381 246.891 80.1375 246.891 80.2955C246.891 81.0539 247.918 82.1915 248.945 83.1553C248.108 83.4713 246.543 84.1033 245.611 84.4825C245.611 81.5753 243.557 81.5753 243.004 82.7919C242.025 81.3541 239.844 78.5101 239.402 77.9571C239.282 77.7869 239.12 77.6508 238.931 77.5622C238.743 77.4736 238.535 77.4354 238.327 77.4515C237.585 76.5035 235.91 74.2915 235.262 73.3277C235.42 73.2961 240.919 72.6799 241.408 72.5851H241.424ZM252.168 87.5635C251.931 89.4911 248.913 87.3423 250.083 86.2679C250.299 86.6337 250.599 86.9424 250.96 87.1678C251.32 87.3933 251.729 87.529 252.152 87.5635H252.168ZM251.994 86.5681C251.347 86.4575 250.035 84.9881 250.414 84.6563C250.794 84.3245 252.421 86.3153 252.389 86.5523C252.257 86.597 252.114 86.6025 251.979 86.5681H251.994ZM255.613 96.6011C254.238 95.1475 247.997 88.7011 247.839 88.5747C247.61 88.2325 247.314 87.94 246.969 87.7147C246.624 87.4894 246.238 87.3359 245.832 87.2633C245.625 86.7254 245.544 86.1469 245.595 85.5727L249.672 83.8347C250.051 84.1665 249.672 83.8347 249.482 84.5615C249.391 84.9005 249.431 85.2612 249.593 85.5727C248.013 86.7419 249.593 89.4595 251.678 89.2541C252.298 89.6787 252.834 90.2144 253.258 90.8341C253.726 92.4469 254.389 93.9963 255.233 95.4477C255.755 96.3799 255.723 96.2693 255.597 96.6011H255.613ZM254.27 90.9605C254.27 90.4549 256.087 88.5589 256.371 88.3219C257.218 88.5681 258.042 88.8852 258.836 89.2699C258.378 90.3127 256.908 93.6465 256.181 95.3371C255.388 93.9492 254.742 92.4824 254.254 90.9605H254.27ZM253.622 89.9493C253.316 89.5467 252.954 89.1901 252.547 88.8907C252.742 88.6803 252.888 88.4298 252.976 88.1568C253.063 87.8838 253.089 87.595 253.053 87.3107C253.144 87.2502 253.22 87.171 253.277 87.0783C253.335 86.9856 253.371 86.8816 253.385 86.7735C253.511 86.0309 252.674 85.4147 252.121 84.8933C250.484 83.6091 249.028 82.1104 247.792 80.4377C249.047 81.0666 250.247 81.8014 251.378 82.6339C253.274 84.0401 255.707 85.3673 255.518 87.7057C254.82 88.4001 254.181 89.1504 253.606 89.9493H253.622ZM238.58 78.3995C240.186 80.2134 241.659 82.1408 242.988 84.1665C243.034 84.237 243.1 84.2923 243.177 84.3255C243.255 84.3587 243.34 84.3683 243.423 84.3531C243.505 84.3379 243.582 84.2986 243.642 84.2401C243.703 84.1816 243.745 84.1065 243.763 84.0243C243.763 83.5819 243.968 82.7919 244.379 82.9657C245.248 84.1507 244.379 85.9993 244.963 87.4687C240.729 89.3331 244.189 88.8591 241.582 85.8887C239.165 83.3449 238.217 79.2053 238.58 78.3995ZM254.87 76.8195C255.447 74.7523 255.447 72.5667 254.87 70.4995C254.635 69.5784 254.492 68.6363 254.443 67.6871C255.392 67.7883 256.351 67.7457 257.287 67.5607C260.052 67.1025 261.474 65.6173 262.154 66.0755C262.596 66.3757 262.675 67.3079 262.391 68.7931C262.384 68.8413 262.393 68.8902 262.416 68.9333C262.438 68.9764 262.473 69.0115 262.516 69.0339C262.56 69.0563 262.608 69.0649 262.657 69.0586C262.705 69.0523 262.75 69.0313 262.786 68.9985C263.387 68.5058 264.141 68.2377 264.919 68.2401C267.02 68.4139 266.941 71.4001 264.919 72.6799C264.875 72.7145 264.845 72.7633 264.834 72.8177C264.823 72.8722 264.831 72.9289 264.857 72.9778C264.884 73.0268 264.927 73.0649 264.978 73.0855C265.03 73.1062 265.087 73.108 265.14 73.0907C265.898 72.8301 266.712 72.7733 267.5 72.9258C268.287 73.0782 269.021 73.4348 269.627 73.9597C269.958 75.2825 270.408 76.5728 270.97 77.8149C268.774 79.3159 265.835 81.3699 263.734 82.9973C261.838 79.0157 259.484 81.8439 257.856 78.6523C256.213 75.9189 255.17 76.8669 254.791 76.7721L254.87 76.8195ZM281.351 95.7795C282.489 92.3099 283.143 88.6998 283.294 85.0513C283.07 83.295 282.358 81.6366 281.24 80.2639C276.753 73.7859 274.92 74.8603 271.46 77.1987C271.144 76.2349 270.449 74.2283 270.322 73.6911C270.528 73.4857 271.065 72.9643 271.223 72.8537C271.807 72.0335 272.26 71.1273 272.566 70.1677C272.97 68.8271 273.136 67.426 273.056 66.0281C273.135 64.7031 272.925 63.3767 272.44 62.1413C271.434 60.3845 269.846 59.0354 267.949 58.3282C266.053 57.621 263.969 57.6005 262.059 58.2703C259.104 57.2907 255.297 56.2795 253.859 56.8957C252.715 57.1714 251.691 57.8064 250.935 58.7075C250.179 59.6085 249.732 60.7282 249.66 61.902C249.587 63.0758 249.893 64.242 250.532 65.2292C251.171 66.2164 252.11 66.9726 253.211 67.3869C253.163 68.6068 253.302 69.8269 253.622 71.0051C254.157 72.6635 254.201 74.4415 253.748 76.1243C253.464 77.3883 253.875 77.9571 255.328 77.7043C257.035 77.8307 256.102 80.8643 259.973 81.4331C260.906 81.5911 261.648 81.7333 262.612 83.5187C261 84.8069 259.789 86.5279 259.12 88.4799C258.261 87.9732 257.35 87.5601 256.403 87.2475C256.298 86.4597 256.023 85.7041 255.598 85.0329C255.172 84.3618 254.606 83.7912 253.938 83.3607C252.465 82.1312 250.878 81.0465 249.198 80.1217C248.866 79.9479 248.171 79.4107 247.618 79.5213C242.119 71.1473 242.688 71.5107 240.966 71.5107C238.741 71.596 236.53 71.8923 234.362 72.3955C234.284 72.4247 234.213 72.4712 234.156 72.5314C234.098 72.5915 234.055 72.6639 234.03 72.7431C233.935 73.1223 234.03 72.9011 236.242 76.0611C238.296 78.9367 237.553 77.5305 237.68 79.0789C237.96 82.0642 239.176 84.8845 241.156 87.1369C241.532 87.7159 241.684 88.4128 241.582 89.0961L241.377 89.1909C240.84 89.4595 241.519 94.8473 241.898 96.1113C243.634 101.077 246.134 105.742 249.308 109.936C247.753 113.67 246.798 117.627 246.48 121.66C232.371 118.5 220.315 108.909 214.88 96.4589C209.445 84.0085 210.835 69.4093 219.083 55.7739C241.914 22.2621 291.984 35.7237 297.925 74.8761C300.105 89.7439 293.596 103.853 281.904 113.112C282.063 107.337 281.842 101.557 281.24 95.8111L281.351 95.7795ZM275.126 127.853C275.263 130.388 275.703 132.897 276.437 135.327C276.487 135.478 276.596 135.602 276.738 135.673C276.88 135.744 277.044 135.756 277.195 135.706C278.396 135.358 276.627 133.699 276.105 127.806C276.058 127.19 275.078 127.221 275.126 127.853ZM279.96 146.734C279.929 146.603 279.846 146.488 279.731 146.417C279.615 146.346 279.476 146.324 279.344 146.355C279.212 146.387 279.098 146.469 279.027 146.585C278.956 146.7 278.933 146.839 278.965 146.971C280.987 157.241 280.719 158.237 281.746 158.031C282.773 157.826 282.046 156.846 279.96 146.734ZM283.673 171.161C282.804 171.398 283.958 171.525 284.732 181.115C284.732 181.984 286.154 181.937 286.059 181.115C285.661 177.873 285.033 174.662 284.179 171.509C284.174 171.45 284.157 171.393 284.127 171.343C284.098 171.292 284.057 171.248 284.009 171.215C283.96 171.181 283.905 171.159 283.847 171.15C283.789 171.141 283.73 171.145 283.673 171.161ZM243.573 145.028C245.26 140.022 246.668 134.927 247.792 129.765C247.815 129.646 247.793 129.523 247.728 129.42C247.664 129.318 247.563 129.244 247.445 129.213C247.328 129.183 247.204 129.199 247.098 129.257C246.992 129.316 246.912 129.413 246.875 129.528C245.611 134.6 243.936 139.514 242.372 144.665C242.346 144.817 242.376 144.973 242.457 145.104C242.538 145.236 242.664 145.333 242.812 145.378C242.959 145.422 243.118 145.411 243.259 145.347C243.399 145.283 243.511 145.169 243.573 145.028ZM237.158 165.9C238.043 165.9 237.885 164.826 240.397 155.424C240.431 155.311 240.418 155.19 240.362 155.086C240.305 154.982 240.21 154.905 240.097 154.871C239.984 154.838 239.862 154.851 239.758 154.907C239.655 154.963 239.577 155.059 239.544 155.172C239.054 156.752 236.905 163.404 236.51 165.078C236.486 165.176 236.485 165.278 236.506 165.377C236.528 165.476 236.571 165.568 236.634 165.647C236.696 165.726 236.776 165.79 236.867 165.834C236.958 165.878 237.057 165.9 237.158 165.9ZM229.985 186.44C230.538 186.44 230.506 186.029 230.965 184.196C231.581 181.7 232.545 177.876 232.924 176.802C233.161 176.17 232.197 175.885 231.96 176.486C230.894 179.581 230.055 182.749 229.448 185.966C229.46 186.099 229.522 186.222 229.622 186.31C229.722 186.398 229.852 186.444 229.985 186.44ZM224.771 199.886C223.315 202.706 222.191 205.686 221.421 208.765C221.379 208.925 221.402 209.094 221.485 209.236C221.568 209.378 221.704 209.482 221.864 209.524C222.023 209.566 222.192 209.543 222.335 209.46C222.477 209.377 222.58 209.241 222.622 209.081C225.261 200.123 226.114 200.044 225.34 199.601C225.284 199.579 225.224 199.569 225.164 199.572C225.104 199.574 225.045 199.589 224.992 199.616C224.938 199.643 224.891 199.681 224.853 199.727C224.815 199.774 224.787 199.828 224.771 199.886ZM208.26 153.955C208.418 155.188 208.987 160.275 209.176 161.681C209.188 161.768 209.216 161.852 209.26 161.929C209.304 162.005 209.362 162.072 209.432 162.125C209.502 162.179 209.581 162.218 209.666 162.241C209.751 162.264 209.84 162.269 209.927 162.258C210.014 162.247 210.098 162.218 210.174 162.174C210.25 162.13 210.317 162.072 210.371 162.002C210.424 161.932 210.463 161.853 210.486 161.768C210.509 161.683 210.515 161.595 210.503 161.507C210.298 160.149 209.413 155.045 209.224 153.829C209.129 153.26 208.181 153.37 208.26 153.955ZM210.741 176.565C210.914 177.56 211.562 181.858 211.768 182.995C211.926 183.849 213.189 183.533 213.032 182.695C212.652 180.594 212.147 178.477 211.752 176.375C211.625 175.664 210.63 175.917 210.741 176.565ZM213.3 198.543C213.371 201.195 213.656 203.837 214.153 206.443C214.343 207.312 215.639 206.964 215.481 206.111C214.94 203.6 214.529 201.064 214.248 198.511C214.106 197.926 213.189 197.911 213.3 198.543ZM172.22 67.0551C171.92 66.4863 171.083 66.9603 171.351 67.5291C176.486 78.0677 176.091 78.1625 176.834 78.1625C176.956 78.1614 177.076 78.1293 177.183 78.0693C177.29 78.0093 177.38 77.9233 177.444 77.8192C177.509 77.7152 177.546 77.5965 177.553 77.4742C177.559 77.3519 177.535 77.23 177.482 77.1197C175.744 73.7227 173.911 70.4205 172.22 67.0551ZM182.016 87.6583C181.779 87.1211 180.973 87.5477 181.21 88.0849C182.79 91.6083 184.102 95.2265 185.713 98.7657C186.061 99.5557 187.214 98.9237 186.867 98.1495C185.303 94.5155 183.454 90.8657 182.016 87.6583ZM195.92 119.843C196.016 119.848 196.111 119.83 196.198 119.789C196.285 119.749 196.361 119.688 196.419 119.611C196.476 119.535 196.514 119.445 196.529 119.351C196.544 119.256 196.536 119.159 196.505 119.069C195.952 117.489 193.218 111.69 192.523 110.126C192.239 109.478 191.291 109.984 191.559 110.631C195.32 119.258 195.257 119.843 195.92 119.843ZM224.708 114.107C224.123 115.103 221.437 118.753 220.71 119.685C220.656 119.754 220.617 119.834 220.593 119.919C220.57 120.004 220.564 120.092 220.575 120.179C220.586 120.267 220.614 120.351 220.658 120.427C220.701 120.504 220.759 120.571 220.829 120.625C220.898 120.679 220.978 120.719 221.063 120.742C221.148 120.765 221.236 120.771 221.323 120.76C221.411 120.749 221.495 120.721 221.571 120.678C221.648 120.634 221.715 120.576 221.769 120.506C223.129 118.609 224.364 116.624 225.466 114.566C225.527 114.465 225.545 114.345 225.517 114.23C225.489 114.116 225.417 114.018 225.316 113.957C225.215 113.897 225.095 113.878 224.981 113.906C224.867 113.935 224.768 114.007 224.708 114.107ZM197.105 54.5099C197.753 54.5099 198.1 53.5303 197.421 53.2301C195.983 52.5823 189.932 50.5757 188.431 50.0701C187.815 49.8331 187.499 50.7811 188.115 51.0181C189.711 51.5869 196.584 54.5099 197.105 54.5099ZM202.588 56.8799C205.424 58.4229 208.403 59.6876 211.483 60.6561C211.66 60.6866 211.842 60.6505 211.994 60.555C212.145 60.4594 212.257 60.3111 212.306 60.1385C212.355 59.9659 212.338 59.7812 212.259 59.6201C212.18 59.459 212.045 59.3327 211.878 59.2657C208.854 58.4448 205.913 57.3446 203.093 55.9793C202.493 55.7107 201.987 56.6271 202.588 56.8799ZM127.174 55.9319C133.494 51.6817 135.39 52.6455 135.074 51.5237C135.056 51.459 135.025 51.3987 134.984 51.3461C134.942 51.2935 134.89 51.2497 134.831 51.2174C134.772 51.185 134.708 51.1647 134.641 51.1576C134.574 51.1505 134.507 51.1568 134.442 51.1761C131.59 51.9263 128.875 53.1264 126.4 54.7311C125.673 55.2999 126.4 56.4375 127.174 55.9319ZM112.812 61.2565C112.322 61.6515 112.717 62.2993 113.27 62.2993C113.46 62.2993 113.492 62.2993 115.23 61.4303C116.968 60.5613 118.958 59.6291 119.701 59.4079C119.826 59.3588 119.927 59.2648 119.986 59.1444C120.045 59.0241 120.057 58.886 120.02 58.7573C119.982 58.6287 119.898 58.5187 119.783 58.4491C119.669 58.3794 119.532 58.3551 119.401 58.3809C117.114 59.1176 114.907 60.081 112.812 61.2565Z" fill="#0E3A99"/>
<path d="M106.713 64.2427C105.892 64.7009 101.357 67.0867 100.867 67.4027C100.767 67.4729 100.69 67.5723 100.647 67.6875C100.605 67.8027 100.599 67.9282 100.63 68.047C100.661 68.1658 100.727 68.2722 100.821 68.352C100.914 68.4317 101.03 68.4809 101.152 68.4929C103.251 67.5014 105.288 66.3828 107.251 65.1433C107.339 65.0594 107.397 64.9478 107.414 64.8267C107.431 64.7057 107.406 64.5826 107.343 64.4777C107.28 64.3728 107.184 64.2924 107.069 64.2496C106.955 64.2069 106.829 64.2045 106.713 64.2427ZM93.2202 38.9943C95.3407 39.0086 97.4422 38.5933 99.3979 37.7734C101.354 36.9536 103.123 35.7461 104.599 34.224C106.076 32.7018 107.229 30.8964 107.988 28.9166C108.748 26.9368 109.099 24.8236 109.02 22.7045C108.546 8.59512 90.2656 1.86432 81.0226 13.8723C72.6802 24.3161 80.7066 38.9943 93.2202 38.9943ZM83.7402 12.6399C93.4256 3.71292 107.646 11.0599 108.009 22.7677C107.98 25.7393 107.123 28.6439 105.535 31.1557C103.947 33.6675 101.691 35.687 99.0188 36.9877C90.1866 40.8429 79.5532 34.2227 78.7948 24.9007C78.6127 22.6136 78.9646 20.3154 79.8229 18.1876C80.6811 16.0598 82.0222 14.1606 83.7402 12.6399ZM128.359 25.6117C131.156 25.9119 133.968 25.9435 136.765 26.0699C136.891 26.0699 137.011 26.02 137.1 25.9311C137.189 25.8422 137.239 25.7216 137.239 25.5959C137.239 25.4702 137.189 25.3496 137.1 25.2608C137.011 25.1719 136.891 25.1219 136.765 25.1219C133.826 24.8533 132.025 24.4899 128.359 24.2529C127.522 24.2055 127.506 25.5169 128.359 25.6117ZM111.801 23.9369C113.081 24.0791 118.342 24.4425 119.701 24.6163C120.412 24.7269 120.696 23.6525 119.954 23.5261C117.279 23.1063 114.584 22.832 111.88 22.7045C111.799 22.6993 111.718 22.7101 111.641 22.7363C111.564 22.7625 111.494 22.8035 111.433 22.8571C111.372 22.9106 111.322 22.9756 111.286 23.0484C111.251 23.1212 111.229 23.2003 111.224 23.2812C111.219 23.3621 111.23 23.4433 111.256 23.52C111.282 23.5968 111.323 23.6676 111.377 23.7285C111.43 23.7894 111.495 23.8391 111.568 23.8749C111.641 23.9107 111.72 23.9317 111.801 23.9369ZM48.9802 140.841C49.4384 137.934 49.549 135.043 49.8966 132.151C49.9756 131.614 49.0908 131.488 49.0118 132.041C48.5694 134.885 47.89 137.744 47.5582 140.636C47.5598 140.809 47.6234 140.977 47.7377 141.107C47.8519 141.238 48.0092 141.324 48.1811 141.349C48.3529 141.373 48.528 141.336 48.6746 141.243C48.8212 141.15 48.9296 141.007 48.9802 140.841ZM47.2738 148.662C45.6938 157.336 45.3304 158.395 46.468 158.395C47.3212 158.395 47.1632 157.826 48.2376 148.789C48.3166 148.204 47.4002 148.078 47.2738 148.662ZM76.33 163.103C73.9284 164.367 70.9422 165.837 70.01 166.39C69.8805 166.466 69.78 166.584 69.7245 166.724C69.6689 166.863 69.6613 167.018 69.7028 167.162C69.7444 167.307 69.8328 167.434 69.9542 167.523C70.0755 167.611 70.223 167.658 70.3734 167.654C72.5766 166.561 74.7181 165.348 76.7882 164.02C76.8848 163.946 76.9527 163.841 76.9802 163.723C77.0076 163.605 76.9929 163.48 76.9386 163.372C76.8843 163.263 76.7938 163.177 76.6827 163.128C76.5716 163.079 76.4468 163.07 76.33 163.103ZM67.087 167.97C65.362 168.778 63.6797 169.675 62.0468 170.656C61.5412 171.114 62.1416 171.872 62.742 171.588C63.3424 171.304 66.7078 169.218 67.482 168.855C68.2562 168.491 67.6716 167.717 67.087 167.97ZM130.714 181.131C131.282 181.495 131.82 180.626 131.267 180.246C130.066 179.456 125.5 176.075 124.236 175.412C124.072 175.333 123.885 175.316 123.711 175.366C123.536 175.415 123.385 175.527 123.288 175.68C122.64 176.691 124.82 177.26 130.714 181.131ZM108.831 166.532C109.621 167.085 110.411 167.606 111.216 168.112C116.604 171.683 116.351 171.793 116.683 171.793C116.792 171.792 116.899 171.758 116.989 171.696C117.079 171.634 117.148 171.547 117.189 171.446C117.229 171.344 117.239 171.233 117.217 171.126C117.194 171.02 117.14 170.922 117.062 170.845C114.664 168.871 112.158 167.03 109.557 165.331C108.799 164.873 108.104 166.042 108.831 166.532ZM264.413 218.893C261.822 219.257 259.152 219.525 256.513 220.126C256.351 220.176 256.212 220.282 256.121 220.426C256.031 220.569 255.995 220.741 256.019 220.909C256.044 221.077 256.128 221.23 256.257 221.342C256.385 221.453 256.549 221.515 256.719 221.516C257.335 221.516 261.269 220.457 264.619 219.936C265.44 219.873 265.124 218.767 264.413 218.893ZM250.446 221.453C247.792 221.848 244.869 222.085 241.993 222.575C241.187 222.717 241.408 223.886 242.198 223.886C242.988 223.886 248.645 222.748 250.651 222.432C251.299 222.322 251.078 221.358 250.446 221.453ZM154.84 164.81C154.761 164.676 154.631 164.579 154.48 164.54C154.329 164.502 154.168 164.525 154.034 164.604C153.9 164.684 153.803 164.814 153.765 164.965C153.726 165.116 153.749 165.276 153.829 165.41C154.609 166.681 155.837 167.612 157.272 168.019C158.706 168.426 160.24 168.278 161.571 167.606C161.66 167.552 161.725 167.466 161.753 167.366C161.781 167.265 161.77 167.158 161.721 167.066C161.673 166.973 161.592 166.903 161.493 166.868C161.395 166.833 161.287 166.838 161.192 166.88C160.059 167.336 158.801 167.378 157.64 167C156.478 166.622 155.487 165.846 154.84 164.81ZM165.9 158.964C165.79 159.88 164.968 159.375 164.905 159.928C164.905 160.228 165.158 160.338 165.474 160.338C165.754 160.329 166.027 160.244 166.264 160.094C166.501 159.944 166.694 159.733 166.823 159.484C166.951 159.235 167.011 158.955 166.996 158.675C166.981 158.395 166.892 158.124 166.738 157.889C165.851 156.939 165.043 155.919 164.32 154.84C164.293 154.741 164.228 154.658 164.139 154.607C164.05 154.557 163.945 154.544 163.846 154.571C163.748 154.599 163.664 154.664 163.614 154.753C163.563 154.842 163.55 154.947 163.578 155.045C163.949 155.881 164.416 156.671 164.968 157.4C165.329 157.889 165.641 158.413 165.9 158.964ZM157.51 147.398C157.469 147.21 157.353 147.045 157.19 146.942C157.027 146.838 156.83 146.803 156.641 146.845C156.453 146.887 156.289 147.002 156.185 147.165C156.081 147.328 156.047 147.526 156.088 147.714C156.531 150.716 156.262 151.996 157.447 151.996C157.673 151.996 157.891 151.906 158.051 151.746C158.211 151.586 158.3 151.369 158.3 151.143C158.3 150.748 157.637 148.062 157.51 147.398ZM169.929 147.54C169.896 147.368 169.801 147.214 169.663 147.106C169.524 146.998 169.351 146.944 169.176 146.953C169.001 146.963 168.835 147.036 168.709 147.158C168.583 147.281 168.506 147.444 168.491 147.619C168.491 147.856 168.713 150.685 168.792 150.906C168.815 151.115 168.92 151.307 169.084 151.439C169.249 151.571 169.459 151.632 169.669 151.609C169.878 151.586 170.07 151.48 170.202 151.316C170.334 151.152 170.395 150.941 170.372 150.732C170.34 150.542 170.087 148.994 169.929 147.54ZM155.03 146.592C155.233 145.921 155.653 145.335 156.225 144.929C156.798 144.523 157.489 144.319 158.19 144.349C158.313 144.363 158.436 144.33 158.536 144.257C158.636 144.183 158.704 144.075 158.727 143.954C158.885 142.816 154.635 143.274 153.703 146.229C153.654 146.405 153.678 146.593 153.768 146.751C153.859 146.91 154.009 147.026 154.185 147.074C154.361 147.122 154.548 147.099 154.707 147.008C154.865 146.918 154.982 146.768 155.03 146.592ZM166.848 143.78C167.423 143.747 167.993 143.903 168.47 144.226C168.947 144.549 169.304 145.019 169.487 145.565C169.771 146.182 170.767 145.771 170.577 145.107C170.268 144.362 169.71 143.747 168.998 143.367C168.287 142.987 167.466 142.865 166.674 143.022C166.589 143.058 166.519 143.123 166.476 143.205C166.434 143.288 166.422 143.383 166.443 143.474C166.464 143.564 166.516 143.645 166.59 143.701C166.664 143.757 166.755 143.785 166.848 143.78ZM288.777 196.947C288.777 196.947 287.939 193.123 287.718 192.017C287.691 191.894 287.616 191.786 287.509 191.718C287.402 191.65 287.273 191.627 287.149 191.654C287.026 191.681 286.918 191.756 286.85 191.863C286.782 191.97 286.759 192.099 286.786 192.223L287.529 196.726C285.019 196.408 282.47 196.627 280.051 197.369C277.632 198.11 275.398 199.358 273.498 201.028C271.598 202.698 270.074 204.753 269.028 207.057C267.982 209.36 267.438 211.86 267.431 214.39C268.379 238.201 302.554 237.727 303.028 214.39C303.06 210.277 301.653 206.282 299.051 203.096C296.448 199.911 292.814 197.736 288.777 196.947ZM292.853 221.864C290.357 228.958 280.94 227.694 280.94 219.225V214.106C280.664 214.141 280.384 214.117 280.118 214.036C279.852 213.954 279.606 213.817 279.397 213.633C279.188 213.449 279.021 213.223 278.906 212.969C278.792 212.716 278.732 212.441 278.732 212.162C278.732 211.884 278.792 211.609 278.906 211.355C279.021 211.102 279.188 210.876 279.397 210.692C279.606 210.508 279.852 210.371 280.118 210.289C280.384 210.208 280.664 210.184 280.94 210.219C280.94 208.639 280.94 207.059 281.051 205.337C281.057 205.081 281.113 204.83 281.217 204.597C281.32 204.363 281.468 204.152 281.653 203.976C281.838 203.8 282.056 203.662 282.294 203.57C282.532 203.478 282.786 203.434 283.041 203.441C283.558 203.457 284.048 203.677 284.403 204.053C284.758 204.429 284.95 204.93 284.937 205.447C284.937 207.106 284.937 208.686 284.843 210.187H288.176C288.431 210.181 288.685 210.226 288.923 210.319C289.16 210.412 289.376 210.552 289.559 210.73C289.742 210.908 289.887 211.121 289.986 211.356C290.085 211.591 290.136 211.844 290.136 212.099C290.14 212.356 290.093 212.611 289.998 212.849C289.904 213.087 289.762 213.305 289.583 213.488C289.404 213.672 289.19 213.818 288.954 213.919C288.718 214.019 288.465 214.072 288.208 214.074H284.795C284.795 219.841 284.637 220.805 285.427 221.785C286.549 223.207 288.255 222.733 289.14 220.552C289.314 220.06 289.676 219.657 290.148 219.431C290.619 219.206 291.16 219.177 291.652 219.351C292.145 219.525 292.548 219.888 292.773 220.359C292.998 220.83 293.027 221.371 292.853 221.864ZM161.808 16.4951C158.574 16.4784 155.369 17.1028 152.378 18.3321C149.386 19.5615 146.669 21.3715 144.381 23.6576C142.094 25.9436 140.282 28.6603 139.05 31.6508C137.819 34.6412 137.193 37.846 137.207 41.0799C137.855 73.6279 185.761 73.6437 186.393 41.0799C186.41 37.8467 185.785 34.6423 184.556 31.6519C183.326 28.6616 181.516 25.9448 179.229 23.6585C176.943 21.3722 174.226 19.562 171.236 18.3324C168.246 17.1028 165.041 16.4784 161.808 16.4951ZM168.902 28.9139C168.66 29.3676 168.25 29.7081 167.759 29.8618C167.268 30.0155 166.737 29.9701 166.279 29.7355C165.464 29.2874 164.518 29.14 163.605 29.3191C162.693 29.4982 161.872 29.9923 161.287 30.7151C159.47 32.6111 159.549 39.0575 159.549 39.4051L164.289 38.6783C164.8 38.6008 165.321 38.7295 165.737 39.0362C166.154 39.3429 166.431 39.8024 166.509 40.3136C166.586 40.8249 166.457 41.3459 166.151 41.7623C165.844 42.1786 165.384 42.456 164.873 42.5335L159.564 43.3393C159.564 47.0997 159.738 50.7337 159.865 54.3993C159.842 54.8906 159.636 55.3555 159.286 55.7016C158.937 56.0477 158.47 56.2498 157.979 56.2677C157.487 56.2856 157.007 56.118 156.633 55.7982C156.26 55.4785 156.02 55.0299 155.962 54.5415C155.788 49.3591 155.662 44.0977 155.599 38.4729C155.599 35.3129 155.599 31.1891 158.411 28.0765C162.819 23.2575 170.64 25.6749 168.902 28.9139Z" fill="#0E3A99"/>
<path d="M236.652 229.1C243.115 210.33 242.799 211.436 242.688 211.278C242.577 211.12 222.148 210.74 210.804 210.962C206.279 204.178 200.367 198.433 193.457 194.105C186.547 189.777 178.797 186.965 170.719 185.855C169.491 184.508 167.796 183.678 165.979 183.533L164.004 182.853C163.925 181.311 163.925 179.766 164.004 178.224C168.438 176.535 172.06 173.218 174.132 168.949C176.454 163.735 175.301 157.068 173.942 140.114C177.197 141.126 177.276 137.776 175.301 135.153C175.39 134.593 175.362 134.02 175.218 133.471C175.075 132.921 174.819 132.408 174.467 131.963C174.115 131.517 173.675 131.15 173.174 130.883C172.673 130.616 172.122 130.456 171.556 130.413C171.86 129.947 172.036 129.409 172.065 128.853C172.094 128.298 171.976 127.744 171.723 127.249C171.47 126.753 171.09 126.334 170.622 126.032C170.155 125.73 169.616 125.557 169.06 125.531C168.731 124.808 168.184 124.206 167.495 123.809C166.807 123.412 166.011 123.241 165.221 123.319C165.109 122.787 164.857 122.295 164.492 121.894C164.126 121.492 163.66 121.196 163.141 121.034C162.622 120.873 162.07 120.854 161.541 120.978C161.012 121.101 160.526 121.364 160.133 121.739C159.801 121.233 158.98 119.985 158.553 119.511C158.891 119.179 159.123 118.754 159.221 118.291C159.32 117.827 159.28 117.345 159.106 116.904C159.88 116.662 160.557 116.179 161.037 115.525C161.518 114.871 161.777 114.081 161.777 113.27C161.777 112.459 161.518 111.669 161.037 111.015C160.557 110.362 159.88 109.878 159.106 109.636C160.354 105.086 156.088 102.289 152.217 104.106C152.008 103.584 151.649 103.136 151.185 102.818C150.721 102.5 150.173 102.327 149.61 102.321C152.77 98.3391 148.267 95.5583 143.985 96.9171C143.704 96.1948 143.231 95.5629 142.617 95.0892C142.004 94.6156 141.272 94.3181 140.502 94.2287C139.732 94.1394 138.953 94.2616 138.247 94.5821C137.541 94.9027 136.936 95.4095 136.496 96.0481C135.46 95.7759 134.357 95.9213 133.427 96.4531C132.496 96.9849 131.811 97.8607 131.519 98.8921C130.856 98.7358 130.166 98.7284 129.5 98.8705C128.833 99.0125 128.206 99.3005 127.664 99.7137C127.302 99.0887 126.726 98.6167 126.041 98.3862C125.357 98.1556 124.612 98.1823 123.946 98.4611C123.28 98.7399 122.738 99.2519 122.422 99.9012C122.106 100.55 122.037 101.293 122.229 101.989C121.792 102.111 121.404 102.367 121.12 102.722C120.837 103.076 120.672 103.511 120.649 103.964C120.475 103.935 120.297 103.943 120.127 103.987C119.956 104.032 119.797 104.112 119.66 104.222C119.522 104.333 119.41 104.471 119.33 104.628C119.25 104.785 119.204 104.957 119.195 105.133C118.784 105.029 118.351 105.047 117.949 105.185C117.548 105.323 117.196 105.575 116.936 105.911C116.676 106.246 116.519 106.651 116.486 107.074C116.452 107.497 116.543 107.921 116.746 108.293C116.232 108.409 115.762 108.673 115.397 109.054C115.032 109.435 114.787 109.914 114.692 110.433C114.598 110.952 114.659 111.488 114.866 111.972C115.074 112.457 115.42 112.87 115.861 113.16C113.365 113.886 111.753 116.32 112.701 118.532C109.857 120.254 108.688 123.746 110.695 126.179C110.334 127.183 110.349 128.284 110.739 129.278C111.128 130.272 111.865 131.091 112.812 131.582C112.399 132.09 112.136 132.704 112.054 133.353C111.971 134.003 112.072 134.663 112.345 135.258C112.618 135.853 113.052 136.36 113.598 136.721C114.144 137.082 114.78 137.284 115.435 137.302C115.483 137.874 115.678 138.424 116.002 138.899C116.325 139.374 116.766 139.757 117.281 140.011C117.796 140.266 118.368 140.382 118.941 140.351C119.515 140.319 120.07 140.14 120.554 139.83C120.812 140.241 121.184 140.567 121.624 140.768C122.065 140.97 122.555 141.038 123.034 140.964C123.513 140.89 123.96 140.677 124.32 140.352C124.679 140.027 124.935 139.604 125.057 139.135C125.83 139.426 126.66 139.534 127.482 139.452C128.305 139.37 129.097 139.099 129.797 138.661C129.149 142.595 126.163 142.879 127.095 147.003C126.545 147.727 126.24 148.609 126.226 149.518C126.212 150.428 126.489 151.318 127.016 152.059C126.837 152.44 126.736 152.853 126.718 153.274C126.701 153.694 126.768 154.114 126.915 154.509C127.062 154.903 127.287 155.264 127.576 155.571C127.864 155.877 128.211 156.123 128.596 156.294C128.448 156.584 128.378 156.907 128.393 157.233C128.408 157.558 128.507 157.874 128.681 158.15C128.854 158.425 129.097 158.651 129.384 158.805C129.671 158.959 129.993 159.035 130.318 159.027C130.629 160.189 131.226 161.254 132.054 162.126C132.881 162.998 133.915 163.649 135.058 164.02C135.216 183.88 135.943 181.495 134.047 183.801C132.301 184.719 130.87 186.139 129.939 187.878C102.226 197.5 91.0397 219.478 87.3741 248.976C85.2569 248.645 85.1621 248.566 85.0831 248.834C84.2302 252.154 83.9312 255.592 84.1983 259.009C84.1983 259.215 84.1983 259.199 86.7263 259.815C87.4373 271.997 94.0259 285.206 107.266 287.528C107.092 290.088 106.887 304.75 107.266 308.068C107.283 308.146 107.326 308.215 107.388 308.265C107.45 308.315 107.527 308.342 107.606 308.342C107.685 308.342 107.762 308.315 107.824 308.265C107.886 308.215 107.929 308.146 107.946 308.068C107.946 306.299 108.167 290.404 108.309 287.765C116.351 288.555 121.06 285.19 127.395 278.285C137.349 267.225 142.99 255.296 148.868 242.783C149.9 240.763 150.731 238.646 151.348 236.463C152.275 236.838 153.297 236.91 154.268 236.668C155.239 236.427 156.108 235.885 156.752 235.12C159.015 235.85 161.419 236.034 163.767 235.657C164.164 235.583 164.542 235.428 164.877 235.202C165.211 234.976 165.496 234.683 165.712 234.342C165.929 234.001 166.072 233.619 166.135 233.22C166.197 232.821 166.176 232.414 166.074 232.023C168.096 231.928 169.36 230.095 167.338 228.563C166.694 228.068 166.013 227.624 165.3 227.236C166.974 227.125 171.398 226.635 172.836 225.656C174.274 224.676 174.227 222.227 172.236 221.958C171.398 221.848 159.09 222.353 156.294 222.748C153.526 223.042 150.906 224.14 148.757 225.908C145.597 228.515 123.256 247.08 115.277 253.78C110.647 252.942 93.2991 249.972 88.6855 249.245C92.5091 217.376 105.497 198.322 129.513 189.347C128.043 195.351 135.153 201.513 137.413 203.346C141.126 206.395 147.193 209.666 152.391 208.244C155.693 207.359 158.158 204.815 159.738 200.66C166.753 206.743 170.055 206.064 171.161 205.495C175.412 203.267 175.238 192.428 171.699 187.214C179.282 188.388 186.541 191.115 193.022 195.222C199.503 199.33 205.067 204.731 209.366 211.088C202.114 211.246 202.556 211.246 202.493 211.436C200.78 216.058 199.115 220.698 197.5 225.355C196.868 221.421 195.92 216.065 195.509 214.517C195.474 214.432 195.41 214.363 195.328 214.322C195.246 214.282 195.152 214.272 195.063 214.295C194.975 214.318 194.898 214.373 194.846 214.448C194.794 214.524 194.772 214.615 194.782 214.706C195.241 216.634 196.189 223.949 196.71 227.646C190.295 246.211 185.271 262.944 185.397 263.117C185.524 263.291 201.197 263.291 203.22 263.26C204.8 276.468 206 304.008 205.953 307.278C205.953 307.371 205.99 307.459 206.055 307.524C206.12 307.589 206.208 307.626 206.301 307.626C206.393 307.626 206.481 307.589 206.546 307.524C206.612 307.459 206.648 307.371 206.648 307.278C206.933 301.464 206.648 283.989 206.38 280.213C210.116 279.593 213.54 277.748 216.112 274.967C218.04 272.992 220.852 267.146 222.796 262.438C225.861 262.233 225.956 262.28 225.956 262.075C227.757 257.888 229.542 252.958 231.043 248.155C238.501 247.033 242.277 236.573 239.259 231.833C238.583 230.757 237.696 229.827 236.652 229.1ZM107.835 262.691C108.846 262.517 107.724 261.111 145.866 229.764C152.186 224.597 152.675 224.107 160.338 223.586C163.182 223.396 170.561 223.128 171.398 223.112C172.046 223.112 172.615 223.112 172.568 223.696C172.568 224.708 170.988 225.008 169.897 225.276C166.627 226.068 163.277 226.481 159.912 226.509C159.811 226.509 159.715 226.549 159.644 226.62C159.573 226.691 159.533 226.787 159.533 226.888C159.533 226.989 159.573 227.085 159.644 227.156C159.715 227.227 159.811 227.267 159.912 227.267H163.198C164.206 227.755 165.168 228.331 166.074 228.989C166.453 229.258 167.132 229.511 167.18 229.874C167.433 231.976 162.124 230.032 160.259 229.132C160.195 229.098 160.119 229.092 160.049 229.114C159.98 229.136 159.922 229.185 159.888 229.25C159.855 229.315 159.848 229.391 159.871 229.46C159.893 229.53 159.942 229.588 160.007 229.621C161.35 230.459 165.995 232.086 164.92 233.666C163.546 235.657 159.943 234.804 157.558 234.33C158.056 233.927 158.655 233.668 159.29 233.582C159.926 233.495 160.572 233.585 161.16 233.84C161.24 233.86 161.325 233.851 161.399 233.814C161.474 233.777 161.532 233.715 161.564 233.639C161.597 233.563 161.601 233.477 161.576 233.398C161.551 233.319 161.499 233.252 161.429 233.208C160.458 232.799 159.384 232.703 158.357 232.933C157.329 233.162 156.398 233.705 155.693 234.488C153.813 236.289 151.475 235.862 149.658 234.03C149.593 233.972 149.509 233.94 149.423 233.938C149.336 233.937 149.252 233.967 149.185 234.022C149.118 234.077 149.073 234.155 149.059 234.24C149.044 234.325 149.06 234.413 149.105 234.488C149.468 235.046 149.941 235.524 150.495 235.894C147.68 242.817 144.516 249.594 141.015 256.197C134.695 268.047 128.28 276.421 121.075 282.52C113.27 289.235 101.799 286.77 95.2109 279.091C91.2609 274.525 88.7803 268.126 87.8639 260.131C91.1503 260.7 104.28 262.58 107.835 262.691ZM135.232 130.887C133.869 131.845 132.815 133.179 132.199 134.727C131.582 134.182 131.105 133.498 130.808 132.73C130.511 131.963 130.403 131.136 130.492 130.318C131.898 123.998 138.392 118.468 143.78 116.841C147.098 115.498 155.535 116.999 158.253 121.06C157.366 120.979 156.482 121.233 155.772 121.771C155.347 121.218 154.803 120.768 154.179 120.455C153.556 120.142 152.87 119.974 152.173 119.963C151.476 119.953 150.785 120.1 150.152 120.394C149.52 120.687 148.962 121.12 148.52 121.66C147.656 121.912 146.875 122.392 146.261 123.05C145.679 122.739 145.019 122.605 144.362 122.664C143.706 122.722 143.08 122.972 142.563 123.382C142.013 123.531 141.529 123.862 141.191 124.321C140.853 124.78 140.679 125.34 140.699 125.91C140.006 125.842 139.305 125.919 138.644 126.139C137.982 126.358 137.374 126.714 136.859 127.183C136.343 127.652 135.932 128.224 135.652 128.862C135.372 129.5 135.229 130.19 135.232 130.887ZM165.11 196.536C157.731 204.183 135.564 195.272 134.126 188.162C134.013 187.398 134.081 186.618 134.325 185.885C134.569 185.152 134.983 184.487 135.532 183.944C135.69 183.786 135.801 183.612 135.959 183.454C135.978 183.408 135.978 183.357 135.959 183.312L136.259 182.932C136.654 182.19 136.164 166.469 136.085 164.209C136.68 164.217 137.262 164.036 137.747 163.693C138.233 163.349 138.597 162.861 138.787 162.298C139.124 162.481 139.507 162.56 139.889 162.526C140.27 162.492 140.633 162.346 140.932 162.106C141.231 161.867 141.452 161.544 141.568 161.179C141.684 160.813 141.69 160.422 141.584 160.054L145.471 155.883C145.465 156.401 145.609 156.911 145.883 157.351C146.158 157.791 146.553 158.143 147.022 158.365C147.49 158.588 148.013 158.672 148.527 158.607C149.042 158.542 149.528 158.332 149.926 158C150.335 157.703 150.672 157.32 150.916 156.877C151.159 156.435 151.301 155.944 151.332 155.44C151.339 155.386 151.326 155.331 151.296 155.285C151.266 155.239 151.222 155.205 151.17 155.188C151.117 155.171 151.061 155.173 151.01 155.193C150.959 155.213 150.917 155.25 150.89 155.298C150.627 155.692 150.239 155.984 149.788 156.128C149.337 156.271 148.851 156.257 148.409 156.088C148.564 155.433 148.534 154.748 148.322 154.109C148.11 153.47 147.724 152.903 147.209 152.47C144.839 144.886 145.06 141.884 149.31 139.04C152.47 136.654 163.53 131.345 170.972 138.124C171.483 138.717 172.093 139.22 172.773 139.609C174.701 165.853 175.933 166.2 168.728 173.816C166.521 176.054 163.582 177.422 160.449 177.671C159.896 177.671 159.833 178.477 160.449 178.54C161.251 178.65 162.064 178.65 162.866 178.54C162.866 183.896 162.629 183.485 164.162 184.023C169.392 186.44 168.934 192.539 165.11 196.536ZM211.578 276.832C209.918 277.752 208.144 278.448 206.301 278.902C206.064 276.247 205.1 267.842 204.468 263.102C210.219 262.975 216.002 262.738 221.516 262.391C219.209 268.142 215.717 274.809 211.578 276.832ZM222.022 224.692C218.546 224.597 218.546 220.299 222.022 220.205C225.498 220.11 225.498 224.676 222.022 224.771V224.692ZM207.944 216.555C207.206 216.995 206.609 217.636 206.222 218.403C205.748 219.304 192.175 256.229 191.528 258.33C191.494 258.443 191.417 258.538 191.313 258.595C191.21 258.651 191.088 258.664 190.975 258.63C190.862 258.597 190.766 258.52 190.71 258.416C190.654 258.312 190.641 258.19 190.674 258.077C191.48 255.091 203.188 221.563 203.314 221.358C206.111 214.374 207.201 214.485 212.542 214.311C214.991 214.232 232.813 214.153 235.388 214.58C235.957 214.675 235.831 215.48 235.388 215.528C233.982 215.702 209.05 216.081 207.944 216.634V216.555ZM231.517 246.575C232.118 244.552 232.671 242.577 233.097 240.697C233.801 240.982 234.531 241.193 235.278 241.329C235.36 241.348 235.445 241.334 235.517 241.289C235.588 241.245 235.638 241.174 235.657 241.092C235.676 241.01 235.662 240.925 235.617 240.853C235.573 240.782 235.502 240.732 235.42 240.713C233.698 240.039 232.097 239.089 230.68 237.901C229.716 236.81 229.274 236.005 230.396 235.215C232.544 236.905 235.341 238.375 236.368 239.117C236.433 239.149 236.508 239.158 236.579 239.142C236.65 239.125 236.713 239.085 236.758 239.027C236.803 238.97 236.826 238.898 236.824 238.825C236.822 238.753 236.795 238.683 236.747 238.627C235.594 237.585 231.691 234.962 229.653 232.924C229.621 232.601 229.688 232.277 229.847 231.994C230.005 231.712 230.246 231.484 230.538 231.344C232.371 232.942 234.374 234.336 236.51 235.499C236.58 235.541 236.663 235.555 236.743 235.537C236.822 235.52 236.892 235.472 236.937 235.404C237.174 235.104 236.937 234.993 235.357 233.682C234.172 232.702 232.513 231.328 231.296 230.127C229.574 228.547 232.876 228.831 235.894 230.127C236.945 230.727 237.801 231.617 238.361 232.689C238.922 233.762 239.162 234.973 239.054 236.178C238.817 240.745 236.005 245.485 231.517 246.733V246.575ZM102.036 19.0389C101.402 19.1315 100.755 19.0032 100.204 18.6755C99.8398 17.75 99.2233 16.9453 98.4244 16.3531C97.6254 15.7609 96.6762 15.405 95.6849 15.3259C93.2675 15.4839 92.7935 18.8967 90.9449 19.1495C89.8389 19.3075 88.4801 18.1699 86.9001 15.7999C86.8807 15.7599 86.8504 15.7261 86.8127 15.7024C86.7749 15.6788 86.7313 15.6662 86.6868 15.6662C86.6423 15.6662 86.5986 15.6788 86.5609 15.7024C86.5232 15.7261 86.4929 15.7599 86.4735 15.7999C86.2992 16.393 86.2471 17.0153 86.3204 17.6291C86.3938 18.2429 86.591 18.8354 86.9001 19.3707C86.6441 19.3589 86.4018 19.2519 86.2207 19.0705C85.6835 18.5491 85.4149 20.4767 86.7105 21.8039C86.3128 21.7827 85.9245 21.6749 85.5729 21.4879C84.7829 20.8717 85.1147 24.1265 87.7059 25.6117C86.973 25.5654 86.2569 25.3723 85.6001 25.0438C84.9432 24.7154 84.3591 24.2584 83.8823 23.6999C83.8512 23.6568 83.8065 23.6254 83.7555 23.6108C83.7044 23.5961 83.6498 23.599 83.6006 23.6191C83.5514 23.6391 83.5104 23.6751 83.4841 23.7213C83.4578 23.7675 83.4478 23.8212 83.4557 23.8737C83.7365 26.2178 84.8199 28.3924 86.5221 30.0283C88.2242 31.6642 90.4401 32.6606 92.7935 32.8481C98.0233 32.8481 101.325 27.2233 100.109 22.9099C100.417 22.8129 100.748 22.8129 101.057 22.9099C101.103 22.9442 101.159 22.9608 101.216 22.9567C101.273 22.9527 101.326 22.9283 101.367 22.8879C101.407 22.8476 101.431 22.794 101.435 22.7371C101.44 22.6802 101.423 22.6238 101.389 22.5781C101.227 22.3204 101.119 22.0328 101.072 21.7324C101.024 21.432 101.037 21.125 101.111 20.83C101.185 20.5349 101.317 20.2577 101.501 20.0151C101.684 19.7725 101.915 19.5695 102.179 19.4181C102.204 19.3861 102.22 19.3482 102.226 19.308C102.233 19.2678 102.228 19.2266 102.214 19.1886C102.2 19.1505 102.176 19.1167 102.145 19.0905C102.114 19.0643 102.076 19.0465 102.036 19.0389ZM97.1701 20.2555C96.8572 20.2206 96.5681 20.0716 96.3582 19.8369C96.1483 19.6023 96.0323 19.2985 96.0323 18.9836C96.0323 18.6688 96.1483 18.365 96.3582 18.1303C96.5681 17.8957 96.8572 17.7467 97.1701 17.7117C97.483 17.7467 97.772 17.8957 97.9819 18.1303C98.1919 18.365 98.3079 18.6688 98.3079 18.9836C98.3079 19.2985 98.1919 19.6023 97.9819 19.8369C97.772 20.0716 97.483 20.2206 97.1701 20.2555ZM54.6207 177.797C49.4728 177.51 44.3089 177.77 39.2157 178.572C39.1626 178.579 39.1142 178.606 39.0793 178.647C39.0444 178.687 39.0255 178.739 39.0261 178.793C39.0132 181.543 39.3854 184.282 40.1321 186.93C40.1473 186.973 40.1748 187.011 40.2113 187.039C40.2477 187.067 40.2916 187.084 40.3375 187.088C44.9094 187.451 49.507 187.324 54.0519 186.709C54.9525 186.582 55.6003 177.861 54.6207 177.797ZM50.3705 182.964C50.266 183.479 50.0119 183.951 49.6401 184.323C49.2682 184.694 48.7952 184.947 48.2801 185.051C47.765 185.154 47.2309 185.104 46.7444 184.905C46.258 184.706 45.841 184.369 45.5456 183.934C45.2502 183.5 45.0895 182.988 45.0836 182.463C45.0778 181.937 45.227 181.422 45.5127 180.981C45.7984 180.54 46.2078 180.193 46.6896 179.984C47.1715 179.774 47.7044 179.712 48.2217 179.804C48.5722 179.866 48.9068 179.998 49.2056 180.192C49.5044 180.385 49.7615 180.637 49.9617 180.931C50.1619 181.226 50.3012 181.557 50.3714 181.906C50.4416 182.255 50.4413 182.615 50.3705 182.964ZM51.2869 175.98C51.5628 176.031 51.8461 176.027 52.1205 175.969C52.3949 175.91 52.6551 175.798 52.8862 175.639C53.1173 175.479 53.3147 175.276 53.4673 175.041C53.6199 174.805 53.7245 174.542 53.7754 174.266C53.8262 173.99 53.8222 173.707 53.7636 173.432C53.7049 173.158 53.5928 172.898 53.4336 172.667C53.2744 172.436 53.0713 172.238 52.8358 172.086C52.6003 171.933 52.337 171.828 52.0611 171.778C51.5038 171.675 50.9285 171.798 50.4618 172.119C49.9951 172.441 49.6752 172.935 49.5726 173.492C49.4699 174.049 49.5929 174.624 49.9143 175.091C50.2358 175.558 50.7296 175.878 51.2869 175.98Z" fill="#0E3A99"/>
<path d="M59.6293 170.767C51.7293 159.328 33.7489 163.373 31.5685 176.818C31.1271 179.071 31.1977 181.393 31.775 183.614C32.3524 185.835 33.4216 187.898 34.9038 189.651C36.3859 191.403 38.243 192.799 40.3376 193.737C42.4323 194.675 44.711 195.129 47.0051 195.067C60.1507 195.067 66.3601 180.563 59.6293 170.767ZM56.3113 188.147C56.3017 188.192 56.2783 188.233 56.2443 188.264C56.2103 188.296 56.1674 188.315 56.1217 188.321C50.2515 189.108 44.3146 189.272 38.4099 188.811C38.3627 188.804 38.3185 188.784 38.2821 188.753C38.2458 188.723 38.2189 188.682 38.2045 188.637C36.6351 182.822 36.344 176.737 37.3513 170.799C37.3584 170.748 37.3828 170.702 37.4202 170.667C37.4576 170.633 37.5058 170.612 37.5567 170.609C43.9129 169.879 50.3356 169.948 56.6747 170.814C56.7217 170.823 56.765 170.846 56.7989 170.88C56.8327 170.914 56.8555 170.957 56.8643 171.004C57.8539 176.701 57.6657 182.541 56.3113 188.163V188.147Z" fill="#0E3A99"/>
</svg>
