<svg width="242" height="326" viewBox="0 0 242 326" fill="none" xmlns="http://www.w3.org/2000/svg">
<path d="M205.795 197.558C208.209 195.417 210.641 193.156 210.145 190.022C209.89 188.348 208.988 186.841 207.633 185.826C206.278 184.81 204.579 184.368 202.9 184.593L193.447 142.173C194.149 143.029 194.235 143.337 194.697 143.337C194.812 143.338 194.925 143.31 195.027 143.256C195.128 143.202 195.215 143.124 195.279 143.029C197.986 139.25 200.413 135.277 202.541 131.144C206.411 124.979 199.886 121.588 196.29 127.719C196.002 126.685 195.499 125.724 194.814 124.898C194.13 124.072 193.279 123.399 192.317 122.923C191.297 122.563 190.185 122.563 189.166 122.923L164.898 14.1232C163.839 9.4534 160.975 5.39214 156.933 2.82546C152.89 0.258778 147.997 -0.605004 143.32 0.422563C77.9849 14.911 36.1636 23.7993 31.9507 24.7755C22.0006 27.1046 14.8249 47.039 17.0512 56.6808L37.5508 148.321C37.428 148.219 37.2736 148.164 37.1141 148.164C36.9547 148.164 36.8003 148.219 36.6774 148.321C20.4079 160.206 9.15625 179.147 3.81301 198.157C-4.37313 226.98 1.65515 259.81 12.119 287.759C14.3038 293.996 17.4658 299.846 21.4868 305.091C21.8979 305.622 22.7541 304.971 22.3945 304.423C15.4072 293.805 12.256 284.711 8.5226 271.627C1.84354 249.055 -0.89659 224.976 4.53229 201.993C13.6946 164.779 36.9001 150.719 37.7906 149.417L45.2232 182.795C38.4236 190.268 32.8983 198.808 28.8681 208.073C28.5427 208.809 29.2106 209.135 29.6045 208.33C35.9958 195.124 45.1473 183.444 56.4406 174.078C62.5203 169.129 69.0794 164.162 76.5805 162.809C79.6672 162.23 82.8547 162.533 85.7771 163.683C97.4569 168.444 93.655 181.1 87.2842 192.009C72.282 217.698 70.8091 220.369 68.7198 226.141C64.4897 239.019 68.7198 250.117 70.7749 262.995C75.5872 292.315 64.2842 302.128 61.9551 305.467C61.0303 306.82 62.1092 307.077 62.5374 306.718C66.0052 303.746 68.7022 299.98 70.3981 295.74L73.9432 311.684C74.4617 314.025 75.437 316.24 76.8133 318.203C78.1896 320.166 79.9397 321.838 81.9633 323.124C83.987 324.409 86.2445 325.283 88.6063 325.694C90.9682 326.106 93.388 326.047 95.7272 325.522L204.562 301.272C213.621 299.182 224.428 283.872 222.116 272.243C222.047 269.743 223.246 275.806 205.795 197.558ZM51.5255 176.356L22.4116 45.8916C21.5158 41.9075 22.151 37.7323 24.191 34.1949C26.2309 30.6574 29.5266 28.0165 33.4235 26.7963C34.0743 26.5737 142.498 2.15227 143.645 1.89538C145.763 1.42381 147.953 1.37516 150.089 1.75223C152.226 2.1293 154.267 2.92465 156.095 4.09263C157.924 5.26061 159.503 6.77822 160.744 8.55833C161.984 10.3384 162.86 12.346 163.323 14.4657L187.693 123.78C187.019 124.324 186.505 125.04 186.203 125.852C184.182 130.425 188.121 135.323 191.169 139.33L201.325 184.902C200.216 185.255 199.195 185.838 198.328 186.614C198.208 182.521 196.53 178.822 192.693 178.582L189.611 164.71C191.649 159.915 192.488 158.391 193.156 154.606C193.35 153.565 193.291 152.493 192.985 151.48C192.678 150.467 192.133 149.542 191.394 148.783C190.656 148.024 189.746 147.454 188.741 147.12C187.736 146.787 186.666 146.699 185.621 146.865L158.219 23.5595C157.275 19.4599 154.749 15.8994 151.192 13.6539C147.634 11.4084 143.334 10.6599 139.227 11.5715L43.9388 32.6876C39.8414 33.6355 36.2838 36.1622 34.039 39.7186C31.7943 43.2749 31.0438 47.5735 31.9507 51.6801L58.4786 170.704C55.9268 172.486 53.7005 174.352 51.5255 176.356ZM81.6155 161.097C73.4294 160.223 66.2023 164.967 59.6602 169.66L33.2694 51.3547C32.4526 47.6377 33.1421 43.7484 35.1867 40.5386C37.2314 37.3288 40.4646 35.0599 44.1785 34.2289C147.361 11.1604 140.323 12.6333 142.635 12.6161C145.912 12.6109 149.093 13.7277 151.648 15.781C154.203 17.8342 155.978 20.7001 156.678 23.902L184.079 147.208C179.524 148.424 176.921 153.407 176.321 157.483C173.29 153.288 167.656 151.489 164.333 155.565C163.578 156.851 163.218 158.33 163.297 159.819C163.376 161.308 163.891 162.741 164.778 163.94C166.062 165.758 167.481 167.475 169.026 169.077L160 171.681C159.367 162.741 154.606 146.677 145.169 133.61C143.533 131.091 141.386 128.944 138.867 127.308C141.94 124.474 144.516 121.145 146.488 117.46C146.568 117.322 146.599 117.162 146.578 117.004C146.556 116.846 146.483 116.699 146.369 116.588C146.256 116.476 146.108 116.405 145.95 116.386C145.791 116.368 145.631 116.402 145.495 116.484C145.118 116.724 144.707 116.947 144.313 117.152C144.835 116.359 145.239 115.493 145.512 114.583C145.538 114.463 145.533 114.339 145.496 114.222C145.459 114.105 145.392 114 145.302 113.917C145.212 113.834 145.102 113.776 144.983 113.748C144.863 113.721 144.739 113.725 144.621 113.761C142.909 114.463 141.487 112.648 141.042 110.833C139.758 105.489 141.042 103.229 137.942 96.721C140.595 92.3131 142.233 87.3696 142.738 82.2497C143.046 81.1199 142.992 79.922 142.583 78.8245C142.296 78.3376 141.859 77.9573 141.337 77.741C140.815 77.5247 140.236 77.4842 139.689 77.6257C135.576 78.3516 131.593 79.6848 127.872 81.5818C128.42 77.2489 129.088 73.1559 129.225 69.0457C132.137 67.7612 140.237 64.0792 138.542 57.1775C137.668 53.5639 132.736 49.0256 128.831 50.173C129.042 47.892 128.461 45.608 127.185 43.7053C125.909 41.8027 124.017 40.3975 121.827 39.7263C119.36 39.1792 116.781 39.4657 114.493 40.541C112.206 41.6164 110.341 43.4198 109.188 45.6689C107.446 43.6653 105.335 42.0143 102.971 40.8052C101.188 40.0483 99.2396 39.7639 97.3143 39.9796C95.389 40.1952 93.5518 40.9036 91.98 42.0364C90.4083 43.1691 89.1552 44.6879 88.3416 46.4462C87.5281 48.2044 87.1815 50.1428 87.3355 52.074C81.7354 50.8067 75.4674 54.5744 75.7756 60.6369C75.8201 62.0202 76.2082 63.3706 76.9048 64.5665C77.6014 65.7624 78.5847 66.7661 79.7659 67.4872C81.3617 68.1523 83.0197 68.6571 84.7153 68.9943C85.6561 69.3168 86.5062 69.8597 87.1944 70.5777C87.8826 71.2957 88.389 72.168 88.6714 73.1216C90.4062 77.881 91.7802 82.7642 92.7815 87.7299C92.7815 87.9012 93.0727 87.3874 91.5485 89.0144C90.3495 87.8549 89.0484 86.806 87.6609 85.8803C86.1367 84.6301 84.7495 83.517 83.3281 82.4552C74.2001 75.3651 73.8747 89.4254 77.8821 98.4164C79.1683 101.443 80.9 104.26 83.0198 106.774C82.9171 107.27 82.8486 107.784 82.7801 108.281C82.0265 108.024 81.0675 109.394 80.8791 110.165C80.8465 110.269 80.839 110.379 80.8573 110.486C80.8756 110.593 80.9192 110.694 80.9845 110.781C81.0498 110.868 81.1349 110.939 81.2327 110.986C81.3305 111.034 81.4382 111.058 81.547 111.055H82.5061C82.2723 113.451 82.1922 115.859 82.2663 118.265C82.3862 120.937 82.2663 127.222 79.6632 127.445C79.5446 127.441 79.4278 127.474 79.3284 127.539C79.2291 127.604 79.1519 127.697 79.1072 127.807C79.0625 127.917 79.0524 128.038 79.0783 128.154C79.1042 128.27 79.1649 128.375 79.2522 128.455C79.9281 129.031 80.6696 129.526 81.4614 129.928H79.8858C79.7794 129.925 79.6745 129.953 79.5831 130.008C79.4917 130.062 79.4176 130.142 79.3693 130.236C79.3209 130.331 79.3004 130.438 79.31 130.544C79.3196 130.65 79.3589 130.751 79.4234 130.836C84.2358 136.607 91.4115 138.594 99.0496 139.398C98.4331 142.447 97.0801 147.293 94.9565 149.828C94.1908 150.6 93.2914 151.227 92.302 151.678C87.6952 152.791 85.4517 158.528 87.7808 163.22C85.9007 162.081 83.7986 161.357 81.6155 161.097ZM153.184 195.982C150.067 201.343 147.464 202.165 141.419 202.952L103.742 208.313C99.5634 209.066 84.5612 211.293 85.7428 207.268C86.9417 204.271 93.7235 195.948 95.4532 193.824C94.4941 201.12 97.4226 204.1 104.461 202.867C142.138 196.016 140.426 197.13 141.162 195.828C142.566 196.102 143.611 194.732 144.587 193.516C146.22 191.202 147.707 188.788 149.04 186.289C150.221 184.342 151.012 182.184 151.369 179.935C154.923 179.245 158.563 179.112 162.158 179.541C162.297 179.662 162.406 179.812 162.477 179.982C162.549 180.151 162.58 180.334 162.569 180.518C162.21 181.425 163.34 178.497 153.201 195.982H153.184ZM163.134 182.607C163.569 185.219 162.953 187.897 161.422 190.057L155.616 199.87C154.395 202.457 152.809 204.857 150.907 206.994C149.656 208.013 148.116 208.613 146.505 208.707C145.101 208.912 96.6177 214.975 96.6177 214.975C90.0414 216.122 87.0273 215.899 85.6915 209.717C90.0072 212.286 101.464 209.529 141.196 204.34C147.276 203.552 150.872 202.85 154.229 196.821L163.134 182.607ZM109.599 176.305C109.967 176.558 110.305 176.851 110.61 177.178C109.667 178.028 108.843 179.002 108.161 180.072C108.152 180.117 108.151 180.164 108.16 180.209C108.169 180.254 108.187 180.296 108.212 180.335C108.238 180.373 108.271 180.405 108.309 180.431C108.347 180.457 108.39 180.474 108.435 180.483C108.48 180.492 108.526 180.492 108.571 180.483C108.616 180.475 108.659 180.457 108.697 180.431C108.735 180.406 108.768 180.373 108.793 180.335C108.819 180.297 108.837 180.254 108.846 180.209C109.553 179.382 110.332 178.62 111.175 177.932C111.537 178.525 111.857 179.143 112.134 179.781C111.997 179.97 111.911 180.038 111.911 180.158C111.906 180.214 111.913 180.271 111.93 180.325C111.947 180.378 111.975 180.428 112.012 180.471C112.048 180.514 112.093 180.549 112.143 180.575C112.194 180.601 112.249 180.616 112.305 180.62C112.682 180.62 113.247 179.37 115.73 177.195C115.901 177.418 116.004 177.623 116.295 177.623C116.358 177.626 116.421 177.615 116.479 177.592C116.538 177.568 116.591 177.533 116.634 177.487C116.678 177.442 116.712 177.388 116.733 177.329C116.754 177.27 116.763 177.207 116.758 177.144C116.726 176.922 116.656 176.708 116.552 176.51C117.119 176.016 117.746 175.596 118.419 175.26C118.788 175.711 119.109 176.199 119.378 176.716C118.321 177.781 117.347 178.926 116.467 180.141C116.414 180.205 116.387 180.286 116.39 180.368C116.392 180.451 116.425 180.53 116.481 180.591C116.538 180.651 116.614 180.689 116.696 180.698C116.779 180.706 116.861 180.685 116.929 180.637C117.169 180.637 117.408 179.935 119.875 177.64C119.966 177.975 120.157 178.273 120.423 178.497C118.419 180.637 116.723 182.778 117.545 185.775C117.676 186.283 117.907 186.76 118.225 187.178C118.542 187.595 118.94 187.945 119.395 188.207C119.541 188.975 119.98 189.656 120.619 190.107C121.258 190.558 122.048 190.742 122.82 190.622C123.846 190.484 124.828 190.122 125.697 189.56C127.821 190.964 129.773 188.875 131.075 187.608C132.769 185.913 134.306 184.067 135.665 182.093C136.521 180.86 136.23 181.168 136.418 181.22C136.898 181.357 137.052 180.518 138.799 178.599C139.014 179.032 139.285 179.435 139.604 179.798C139.66 179.891 139.752 179.958 139.858 179.984C139.964 180.01 140.076 179.992 140.169 179.935C140.262 179.878 140.329 179.787 140.354 179.681C140.38 179.575 140.362 179.463 140.306 179.37C140.081 178.85 139.8 178.356 139.466 177.897C140.023 177.265 140.643 176.691 141.316 176.185C141.652 176.681 141.95 177.202 142.207 177.743C141.059 178.907 140.059 180.207 139.227 181.614C139.055 182.145 139.895 182.264 139.895 181.802C140.706 180.646 141.629 179.573 142.652 178.599C143.012 179.302 143.268 180.004 143.748 179.798C143.863 179.734 143.954 179.634 144.007 179.514C144.059 179.393 144.071 179.258 144.039 179.13C143.931 178.652 143.77 178.186 143.56 177.743C144.762 176.735 146.039 175.819 147.379 175.003C143.249 179.908 140.773 185.991 140.306 192.386C140.341 193.135 140.306 193.886 140.203 194.629V194.766C139.775 195.742 138.165 195.76 137.942 195.794C137.24 195.794 139.878 195.451 105.403 201.394C101.481 202.062 97.7652 202.165 97.063 198.311C96.0012 190.879 100.18 181.083 109.599 176.305ZM110.661 175.842C111.631 175.345 112.661 174.976 113.726 174.746C110.438 176.647 111.997 176.921 110.729 175.842H110.661ZM114.531 175.568C115.542 176.801 115.233 175.568 112.819 178.771C112.626 178.216 112.336 177.7 111.962 177.247C112.747 176.585 113.61 176.021 114.531 175.568ZM115.49 175.072C116.171 174.835 116.82 174.519 117.426 174.13C117.785 174.506 117.802 174.13 116.21 175.38C115.747 175.722 116.09 175.705 115.49 175.072ZM122.341 175.465C122.495 175.791 122.341 175.722 122.58 175.979C122.289 176.356 121.45 177.401 121.125 177.692C121.026 177.376 120.894 177.072 120.731 176.784C121.005 176.647 121.245 176.39 122.409 175.465H122.341ZM120.183 175.894C120.06 175.653 119.917 175.424 119.755 175.209C119.615 175.035 119.467 174.869 119.309 174.712C119.899 174.401 120.505 174.121 121.125 173.873C121.359 174.078 121.576 174.301 121.776 174.541C121.245 174.966 120.737 175.418 120.251 175.894H120.183ZM138.816 177.007C139.276 176.195 139.682 175.354 140.032 174.489L140.682 175.414C139.984 175.883 139.365 176.461 138.85 177.127L138.816 177.007ZM142.121 175.568C142.875 175.089 143.029 175.02 143.56 174.643C144.313 174.643 145.084 174.643 145.854 174.763C142.07 177.024 143.868 177.76 142.189 175.568H142.121ZM148.458 181.545C148.356 181.397 148.203 181.293 148.027 181.255C147.852 181.217 147.669 181.247 147.516 181.34C147.207 181.579 147.207 181.648 146.317 182.881C146.128 182.675 145.94 182.504 145.769 182.299C145.701 182.209 145.601 182.148 145.489 182.129C145.378 182.11 145.264 182.134 145.169 182.196C144.656 182.538 145.272 183.292 145.649 183.908C145.341 184.388 145.032 184.885 144.775 185.364C144.718 185.442 144.684 185.536 144.679 185.633C144.674 185.73 144.697 185.827 144.747 185.911C144.796 185.995 144.869 186.062 144.956 186.105C145.043 186.148 145.141 186.164 145.238 186.152C145.238 186.152 145.495 186.152 145.546 186.032C146.899 184.662 146.026 184.73 147.259 185.587C147.407 185.679 147.583 185.715 147.755 185.69C146.933 187.197 143.08 194.15 141.504 194.835C141.546 187.633 144.22 180.695 149.023 175.328C149.025 175.387 149.042 175.445 149.072 175.495C149.102 175.546 149.144 175.589 149.194 175.62C149.365 175.962 149.536 176.305 149.691 176.664C150.283 179.434 149.76 182.326 148.235 184.713C148.235 184.491 148.115 184.474 147.276 183.84C148.406 182.504 148.886 182.093 148.526 181.545H148.458ZM149.331 173.564C149.24 173.503 149.133 173.47 149.023 173.47C148.913 173.47 148.805 173.503 148.714 173.564C146.069 173.16 143.389 173.028 140.717 173.171C145.558 162.482 146.497 150.434 143.371 139.124C143.348 139.035 143.306 138.95 143.25 138.876C143.194 138.802 143.124 138.74 143.043 138.693C142.963 138.646 142.874 138.615 142.782 138.603C142.69 138.59 142.596 138.596 142.506 138.619C142.416 138.643 142.332 138.684 142.258 138.74C142.184 138.796 142.122 138.867 142.075 138.947C142.028 139.027 141.997 139.116 141.984 139.208C141.972 139.3 141.977 139.394 142.001 139.484C143.759 146.293 144.101 153.39 143.005 160.336C141.909 167.283 139.399 173.93 135.63 179.867C134.085 182.143 132.41 184.327 130.612 186.409C129.688 187.488 128.78 189.012 126.468 188.43C126.292 188.334 126.149 188.189 126.054 188.012C125.96 187.836 125.919 187.636 125.937 187.436C126.091 185.827 126.845 185.724 127.153 183.737C127.153 183.624 127.108 183.515 127.028 183.434C126.947 183.354 126.838 183.309 126.725 183.309C126.611 183.309 126.502 183.354 126.422 183.434C126.342 183.515 126.297 183.624 126.297 183.737C125.946 184.472 125.546 185.181 125.098 185.861C124.857 186.277 124.707 186.739 124.657 187.217C124.607 187.695 124.658 188.178 124.807 188.635L124.019 189.029C122.169 189.902 120.936 189.252 120.594 188.139C119.772 185.484 123.043 183.241 122.94 182.641C122.931 182.566 122.903 182.495 122.858 182.434C122.812 182.373 122.752 182.326 122.682 182.296C122.613 182.267 122.536 182.256 122.461 182.266C122.386 182.275 122.315 182.304 122.255 182.35C120.817 183.326 119.797 184.804 119.395 186.494C117.682 184.371 119.395 181.477 121.108 179.815C131.058 170.225 132.257 155.206 127.958 142.139C127.872 141.693 127.119 141.796 127.204 142.139C129.516 152.791 130.064 163.135 124.687 172.674C120.615 172.469 116.534 172.792 112.545 173.633C107.612 175.037 109.685 175.825 109.65 172.879C110.446 165.991 109.643 159.011 107.304 152.483C107.013 151.678 106.277 152.072 106.448 152.688C106.802 153.83 107.11 155.029 107.373 156.285C107.01 157.828 106.558 159.349 106.02 160.84C105.361 162.753 104.072 164.386 102.364 165.472C100.656 166.558 98.63 167.032 96.6177 166.817C96.9439 166.729 97.248 166.574 97.5106 166.362C97.7731 166.15 97.9882 165.885 98.1419 165.584C98.274 165.655 98.4202 165.696 98.5701 165.704C99.5634 165.704 101.139 163.991 101.738 163.289C102.211 162.547 102.45 161.681 102.426 160.802C102.402 159.923 102.114 159.071 101.601 158.357C100.895 156.76 100.029 155.24 99.0153 153.818C99.0548 153.714 99.0548 153.598 99.0153 153.493C98.0576 152.388 96.7537 151.639 95.3162 151.369C98.3132 148.749 99.9059 143.132 100.454 139.279C113.384 140.203 128.437 136.556 138.131 128.044C139.042 128.776 139.906 129.565 140.717 130.407C146.334 136.076 154.674 150.633 157.842 166.885C157.979 167.57 158.682 171.372 158.973 172.023C155.548 172.999 152.944 173.736 150.41 174.678C150.16 174.236 149.815 173.856 149.399 173.564H149.331ZM84.5098 129.894C84.3385 129.157 83.2938 129.654 80.9134 128.044C84.6125 125.766 83.0027 116.792 83.4822 110.816C85.1948 110.816 86.9074 110.627 88.62 110.404C88.6385 111.787 88.9795 113.147 89.6157 114.375C90.2519 115.602 91.1659 116.665 92.2849 117.477C91.4971 117.477 90.7093 117.323 89.9387 117.306C89.168 117.289 86.7361 117.306 86.5135 117.837C86.4885 117.891 86.475 117.949 86.4736 118.008C86.4723 118.067 86.4832 118.126 86.5058 118.181C86.5283 118.235 86.5619 118.285 86.6045 118.326C86.6471 118.367 86.6978 118.399 86.7533 118.419C88.7877 118.384 90.8226 118.453 92.85 118.625C94.9296 118.901 96.985 119.336 98.9982 119.926C99.0981 119.926 99.194 119.887 99.2646 119.816C99.3353 119.745 99.375 119.65 99.375 119.55C99.375 119.45 99.3353 119.354 99.2646 119.283C99.194 119.213 99.0981 119.173 98.9982 119.173L98.6557 119.053C100.806 118.789 102.788 117.755 104.236 116.144C105.684 114.532 106.5 112.451 106.534 110.285C106.792 110.267 107.051 110.314 107.287 110.422C107.614 112.425 108.613 114.257 110.119 115.617C111.626 116.977 113.55 117.784 115.576 117.906C115.529 117.944 115.494 117.995 115.475 118.053C115.457 118.111 115.456 118.173 115.473 118.231C115.644 118.556 116.056 118.231 116.809 117.888C118.923 117.736 120.913 116.838 122.426 115.354C126.228 113.641 128.249 112.888 130.732 111.689C131.263 111.569 130.852 110.713 130.475 110.918C118.659 115.097 126.194 114.874 124.927 107.493C131.537 107.493 133.627 105.541 138.079 100.848C139.449 106.26 138.679 112.836 142.155 114.857C142.631 115.156 143.187 115.3 143.748 115.268C143.211 116.437 142.4 117.459 141.385 118.248C141.253 118.345 141.159 118.484 141.117 118.642C141.075 118.799 141.088 118.967 141.154 119.116C141.219 119.266 141.334 119.388 141.479 119.464C141.623 119.54 141.79 119.564 141.95 119.533C142.672 119.331 143.381 119.085 144.073 118.796C141.582 122.807 138.337 126.296 134.517 129.072C115.216 142.395 88.4658 139.09 81.1702 130.904C82.1484 130.896 83.1234 130.792 84.0816 130.596C84.2314 130.559 84.3606 130.465 84.4409 130.333C84.5211 130.202 84.5459 130.044 84.5098 129.894ZM102.989 42.552C105.207 43.9435 107.161 45.7179 108.76 47.7925C108.862 47.8971 108.989 47.9733 109.129 48.0136C109.27 48.0538 109.418 48.0569 109.56 48.0223C109.702 47.9877 109.832 47.9167 109.938 47.8163C110.044 47.716 110.122 47.5897 110.164 47.45C111.015 45.2857 112.6 43.4893 114.641 42.3749C116.682 41.2604 119.05 40.8988 121.33 41.3532C123.405 41.9652 125.152 43.3731 126.192 45.2695C127.232 47.1659 127.479 49.3967 126.879 51.4746C126.83 51.6536 126.841 51.8436 126.91 52.0159C126.978 52.1882 127.101 52.3336 127.26 52.4302C127.418 52.5267 127.603 52.5693 127.788 52.5514C127.973 52.5335 128.146 52.4561 128.283 52.3309C130.253 50.6183 133.096 52.6563 133.918 53.307C134.819 53.9265 135.571 54.7376 136.122 55.682C136.673 56.6265 137.008 57.6811 137.103 58.7702C137.103 63.7538 131.623 66.1343 127.975 67.727C127.845 67.7997 127.738 67.907 127.665 68.037C127.593 68.167 127.558 68.3146 127.564 68.4634C127.444 73.036 126.708 77.7798 126.16 82.4038C124.447 83.2772 123.779 83.654 123.779 83.654C123.619 83.6085 123.464 83.5453 123.317 83.4656C123.522 82.027 124.704 74.1492 124.653 72.6935C124.619 72.5907 124.554 72.5012 124.466 72.4377C124.378 72.3743 124.273 72.3401 124.165 72.3401C124.056 72.3401 123.951 72.3743 123.863 72.4377C123.776 72.5012 123.71 72.5907 123.676 72.6935C123.351 73.8751 122.529 82.9689 122.512 83.0717C120.305 82.0625 117.953 81.4093 115.542 81.1365C115.679 79.7664 115.97 58.8729 115.97 58.1365C115.97 57.8625 115.696 57.8796 115.525 57.8796C115.459 57.8795 115.396 57.9042 115.349 57.9487C115.301 57.9933 115.272 58.0543 115.268 58.1194C114.429 67.0762 114.24 78.2422 114.36 81.0166H113.846C109.652 80.4708 105.388 80.9649 101.43 82.4552C101.225 80.4343 99.7175 72.625 98.6386 67.8297C98.6386 67.4358 97.9364 67.2988 97.9364 67.8297C97.929 67.8693 97.929 67.91 97.9364 67.9496C99.238 75.1424 99.9573 81.1707 100.3 82.9004C97.817 84.0024 95.5091 85.4622 93.4495 87.2333C92.765 83.3126 91.8732 79.4311 90.7778 75.6049C88.1404 66.511 85.1092 68.0352 81.2901 66.6823C80.304 66.2652 79.4295 65.6227 78.7366 64.8064C78.0437 63.9901 77.5518 63.0228 77.3003 61.982C77.0489 60.9413 77.0449 59.8561 77.2887 58.8135C77.5325 57.7709 78.0173 56.8 78.7041 55.9787C79.8283 54.6941 81.3333 53.8021 82.9998 53.4324C84.6663 53.0628 86.4073 53.2348 87.9692 53.9236C88.5343 54.1462 89.0139 53.5811 88.9454 52.9988C88.5934 51.202 88.7567 49.3424 89.4162 47.6345C90.0757 45.9265 91.2046 44.4398 92.6728 43.3459C94.1409 42.2519 95.8884 41.5953 97.7136 41.4519C99.5389 41.3084 101.368 41.6838 102.989 42.5349V42.552ZM122.717 84.1678L122.272 84.3904C122.171 84.4772 122.104 84.5982 122.085 84.7305C122.067 84.8629 122.097 84.9975 122.171 85.1091C122.244 85.2206 122.356 85.3014 122.485 85.3362C122.615 85.371 122.752 85.3574 122.872 85.2981C127.274 82.8415 131.931 80.8719 136.761 79.4239C138.045 79.0814 140.939 77.9853 141.607 79.2698C141.617 79.4238 141.617 79.5782 141.607 79.7322C139.748 79.789 137.952 80.4235 136.469 81.5475L127.444 86.6852C126.742 87.0963 127.889 87.8327 127.975 87.199C127.975 87.0278 127.564 87.336 138.696 81.4105C138.953 81.2735 141.333 80.1089 141.676 81.1194C140.426 91.5147 137.36 94.3747 135.767 97.5773C135.698 97.7043 135.679 97.8524 135.713 97.993C135.747 98.1335 135.832 98.2563 135.952 98.3375C136.071 98.4187 136.217 98.4524 136.36 98.4322C136.503 98.412 136.634 98.3392 136.726 98.228C136.829 98.1082 136.898 97.9712 137 97.8513C137.208 98.2859 137.391 98.7319 137.548 99.1871C129.842 107.202 131.16 104.565 124.721 106.722C124.169 104.597 122.853 102.749 121.025 101.532C119.197 100.314 116.985 99.812 114.811 100.121C112.637 100.43 110.652 101.529 109.236 103.208C107.82 104.886 107.071 107.027 107.133 109.223C106.901 109.114 106.652 109.05 106.397 109.034C106.113 106.889 105.059 104.921 103.432 103.494C101.805 102.068 99.7148 101.282 97.5511 101.282C95.3874 101.282 93.2974 102.068 91.6702 103.494C90.0429 104.921 88.9894 106.889 88.7056 109.034C86.993 109.274 85.2804 109.343 83.5679 109.428C84.2333 103.954 86.0924 98.6924 89.0139 94.0151C100.762 75.2452 122.512 84.1678 122.717 84.1678ZM121.365 114.806C117.939 116.518 117.939 116.81 116.227 116.81C114.394 116.831 112.612 116.209 111.191 115.052C109.77 113.894 108.801 112.275 108.451 110.476C108.102 108.677 108.395 106.812 109.279 105.207C110.164 103.602 111.583 102.358 113.291 101.692C114.998 101.026 116.885 100.981 118.622 101.563C120.36 102.146 121.838 103.32 122.799 104.88C123.76 106.441 124.142 108.289 123.88 110.103C123.618 111.917 122.728 113.581 121.365 114.806ZM105.386 111.072C105.167 113.053 104.198 114.874 102.678 116.162C101.157 117.45 99.2017 118.106 97.2123 117.997C95.2229 117.887 93.3511 117.019 91.9816 115.572C90.612 114.125 89.8488 112.209 89.8488 110.216C89.8488 108.224 90.612 106.307 91.9816 104.86C93.3511 103.413 95.2229 102.545 97.2123 102.436C99.2017 102.326 101.157 102.983 102.678 104.27C104.198 105.558 105.167 107.379 105.386 109.36C104.256 110.216 104.376 111.723 105.352 111.141L105.386 111.072ZM88.4658 93.4842C86.9588 90.9153 83.8247 87.1305 82.4547 85.2638C81.0846 83.3971 80.3482 82.2668 78.5329 82.4552C78.1219 82.4552 78.0705 82.8148 78.2246 82.9861C78.7041 83.5512 79.1837 82.0784 81.2045 85.0069C82.8005 86.979 84.2869 89.0372 85.6572 91.1722C88.209 94.8714 88.3288 93.6383 87.5582 94.8714C86.7592 93.6306 85.6921 92.5849 84.4354 91.8114C83.1787 91.0378 81.7645 90.556 80.2968 90.4015C80.1845 90.399 80.0748 90.4361 79.9869 90.5062C79.8991 90.5763 79.8387 90.6751 79.8163 90.7852C79.7938 90.8954 79.8108 91.0099 79.8642 91.1088C79.9176 91.2077 80.0041 91.2847 80.1085 91.3263C82.9155 91.7989 85.4247 93.3548 87.0958 95.6592L86.719 96.3099C85.9843 95.5815 85.0578 95.0767 84.0474 94.8543C82.9159 94.6283 81.7723 94.4682 80.6222 94.3747C80.516 94.3656 80.4101 94.3948 80.3236 94.4572C80.2371 94.5195 80.1759 94.6108 80.151 94.7144C80.1261 94.8181 80.1393 94.9272 80.188 95.022C80.2368 95.1168 80.3179 95.191 80.4167 95.231C82.4033 95.9846 84.4927 95.3852 86.3765 97.1491C86.1025 97.6458 85.8456 98.1595 85.623 98.6733C84.7929 98.7621 83.9922 99.0309 83.2767 99.4611C81.958 100.095 82.5232 100.968 83.1226 100.66C83.7184 100.294 84.3646 100.017 85.0407 99.8379C84.3062 101.651 83.7331 103.525 83.3281 105.438C77.2998 97.9711 75.6386 88.4149 77.2998 83.0888C77.4154 82.5634 77.7291 82.1029 78.1757 81.803C78.6223 81.5031 79.1674 81.3871 79.6974 81.479C80.7071 81.8123 81.635 82.355 82.4204 83.0717C88.6885 88.0553 87.9692 87.9697 90.8292 89.8021C89.8977 90.9311 89.1043 92.1672 88.4658 93.4842ZM89.3906 163.957C89.4259 163.834 89.4259 163.703 89.3906 163.58C85.9655 155.206 92.3363 150.034 97.5939 153.767C97.474 154.247 98.3303 155.582 98.6214 155.976C101.618 161.234 101.464 161.713 98.9126 163.923C98.5872 164.197 98.4844 164.248 98.4159 164.197C98.2193 163.987 98.0627 163.743 97.9535 163.477C96.4978 160.84 96.241 160.052 95.7443 160.258C95.6809 160.279 95.6239 160.316 95.5788 160.366C95.5337 160.415 95.5019 160.475 95.4865 160.54C95.4711 160.605 95.4725 160.673 95.4907 160.738C95.5088 160.802 95.543 160.861 95.5902 160.908C95.7614 161.063 95.3162 160.583 96.652 163.769C97.3884 165.481 97.5254 164.642 96.652 165.224C95.299 165.961 94.2544 166.029 93.2268 161.97C93.1871 161.861 93.1117 161.769 93.0129 161.709C92.9141 161.648 92.7977 161.623 92.6826 161.636C92.5676 161.65 92.4606 161.703 92.379 161.785C92.2975 161.867 92.2462 161.975 92.2335 162.09C92.1012 163.3 92.4114 164.517 93.1069 165.515C92.7149 165.817 92.2573 166.023 91.7711 166.115C91.128 165.245 90.3189 164.512 89.3906 163.957ZM92.6445 167.382C93.0184 167.277 93.3717 167.109 93.6892 166.885C100.266 169.951 106.157 165.824 107.989 159.693C108.66 163.951 108.81 168.276 108.435 172.571C108.258 173.47 108.258 174.395 108.435 175.294C103.9 177.656 100.222 181.382 97.9193 185.946C95.5992 186.537 93.3125 187.252 91.069 188.087C94.3229 181.494 96.5492 173.564 92.6445 167.365V167.382ZM90.1784 189.868C98.3474 187.077 95.3162 187.984 97.3713 187.282C96.6958 188.818 96.1794 190.419 95.8299 192.06C91.7873 196.375 88.1738 201.072 85.0407 206.086C84.73 206.515 84.5622 207.03 84.5612 207.559C84.5532 207.578 84.549 207.599 84.549 207.619C84.549 207.64 84.5532 207.66 84.5612 207.679C84.515 210.269 85.2948 212.806 86.7875 214.923C87.5048 215.567 88.35 216.053 89.2678 216.348C90.1856 216.643 91.1553 216.741 92.1136 216.636C93.9803 216.636 88.6885 217.115 146.18 210.214C151.318 209.974 153.321 207.182 155.805 202.644C157.363 199.784 163.014 190.365 163.134 190.194C164.056 188.704 164.621 187.022 164.784 185.278C164.948 183.534 164.705 181.776 164.076 180.141C164.09 179.867 164.049 179.594 163.955 179.337C163.861 179.08 163.716 178.845 163.529 178.645C163.342 178.445 163.116 178.285 162.866 178.174C162.616 178.064 162.346 178.004 162.073 178C158.553 177.578 154.989 177.699 151.506 178.36C151.502 177.284 151.287 176.219 150.872 175.226C155.256 174.147 156.695 173.633 170.036 169.934C173.586 173.493 177.343 176.838 181.288 179.952C181.355 180.041 181.441 180.113 181.541 180.163C181.641 180.212 181.75 180.238 181.861 180.238C181.973 180.238 182.082 180.212 182.182 180.163C182.281 180.113 182.368 180.041 182.435 179.952C184.679 175.5 186.751 171.15 188.6 166.971L191.186 178.565C190.313 178.745 189.495 179.132 188.801 179.692C188.107 180.252 187.557 180.969 187.196 181.785C185.638 184.799 186.049 188.635 186.408 191.975C186.408 192.608 187.504 203.809 187.95 207.953C187.959 208.159 188.048 208.353 188.198 208.494C188.349 208.635 188.548 208.711 188.755 208.707C191.576 207.406 194.295 205.895 196.889 204.185L206.411 246.914C207.228 250.631 206.539 254.521 204.494 257.73C202.449 260.94 199.216 263.209 195.502 264.04L100.214 285.276C96.4958 286.078 92.6112 285.381 89.4044 283.335C86.1976 281.289 83.9278 278.06 83.0883 274.35L71.7168 223.315C74.5597 216.156 86.2052 197.284 90.1784 189.868ZM220.437 273.202C220.404 276.883 219.119 280.443 216.794 283.297C214.469 286.151 211.242 288.13 207.644 288.907L98.7413 313.174C94.5055 314.095 90.0774 313.307 86.4188 310.983C82.7601 308.658 80.1664 304.984 79.2008 300.758C74.7481 280.909 73.7377 275.788 73.7377 275.788C73.8255 273.258 73.6879 270.725 73.3266 268.219C71.7339 252.446 65.7056 240.818 70.6379 226.072L81.6155 274.812C82.5178 278.91 85.0061 282.485 88.5362 284.754C92.0663 287.023 96.3511 287.801 100.454 286.92L195.81 265.701C199.91 264.757 203.471 262.232 205.716 258.674C207.962 255.117 208.71 250.816 207.798 246.709L198.157 203.449C200.297 201.993 202.352 200.418 204.339 198.757C222.15 278.323 220.472 269.743 220.42 273.202H220.437Z" fill="#0E3A99"/>
<path d="M150.119 279.402C148.684 280.765 147.643 282.489 147.106 284.394C146.57 286.299 146.557 288.314 147.07 290.225C147.545 292.315 148.712 294.182 150.381 295.525C152.05 296.868 154.125 297.608 156.267 297.624C158.376 297.638 160.416 296.873 161.996 295.477C163.576 294.08 164.585 292.149 164.83 290.054C165.078 288.13 164.856 286.173 164.182 284.354C163.508 282.534 162.402 280.905 160.959 279.607C159.482 278.27 157.57 277.513 155.578 277.475C153.585 277.437 151.646 278.122 150.119 279.402ZM158.682 295.963C150.119 298.754 145.341 288.41 150.119 281.543C151.209 280.259 152.734 279.423 154.401 279.192C156.069 278.961 157.764 279.353 159.161 280.292C164.213 283.889 165.378 293.736 158.682 295.997V295.963ZM130.475 89.0999C132.291 87.8013 134.345 86.8757 136.521 86.3769C137.703 86.1714 138.114 86.0858 138.233 85.7433C138.239 85.6332 138.204 85.5251 138.134 85.4397C138.064 85.3543 137.966 85.2977 137.857 85.2809C135.034 85.405 132.349 86.5349 130.287 88.4663C130.24 88.5143 130.206 88.5742 130.189 88.6398C130.173 88.7053 130.174 88.7741 130.193 88.8389C130.213 88.9037 130.249 88.9622 130.299 89.0081C130.348 89.054 130.409 89.0857 130.475 89.0999ZM137.874 89.3054C136.646 88.9626 135.356 88.8985 134.1 89.1178C132.844 89.337 131.652 89.8341 130.613 90.5728C130.547 90.6244 130.501 90.6961 130.481 90.7768C130.46 90.8575 130.468 90.9426 130.501 91.0188C130.534 91.0951 130.592 91.1582 130.664 91.1983C130.737 91.2385 130.821 91.2533 130.904 91.2407C132.422 90.3955 134.133 89.9588 135.87 89.9734C137.12 89.9734 137.942 90.3672 138.114 89.8192C138.147 89.7192 138.141 89.61 138.096 89.5144C138.052 89.4187 137.972 89.3439 137.874 89.3054ZM131.383 92.0456C131.323 92.0332 131.262 92.0343 131.202 92.0487C131.143 92.0632 131.088 92.0907 131.04 92.1293C130.993 92.1678 130.955 92.2164 130.929 92.2715C130.902 92.3267 130.889 92.387 130.889 92.448C130.889 92.5091 130.902 92.5694 130.929 92.6245C130.955 92.6797 130.993 92.7283 131.04 92.7668C131.088 92.8054 131.143 92.8329 131.202 92.8473C131.262 92.8618 131.323 92.8629 131.383 92.8505C132.471 92.9542 133.508 93.3573 134.38 94.015C134.435 94.0664 134.505 94.0992 134.58 94.1087C134.655 94.1182 134.731 94.104 134.797 94.068C134.863 94.032 134.916 93.9762 134.949 93.9083C134.982 93.8404 134.993 93.7639 134.98 93.6897C134.537 93.1695 133.985 92.7527 133.364 92.4687C132.742 92.1846 132.066 92.0402 131.383 92.0456ZM116.86 119.67C121.039 117.289 124.344 117.272 127.478 116.364C127.992 116.364 127.872 115.439 127.478 115.508C123.596 115.806 119.843 117.033 116.535 119.087C116.004 119.327 116.347 119.995 116.86 119.67ZM85.7429 122.512C89.9331 121.151 94.3776 120.759 98.7414 121.365C99.2209 121.365 99.3065 120.646 98.6558 120.509C94.2551 119.486 89.6435 119.888 85.486 121.656C85.0408 121.742 85.3148 122.512 85.7429 122.512Z" fill="#0E3A99"/>
<path d="M90.4525 126.16C92.8816 124.826 95.4965 123.862 98.2104 123.3C98.7723 124.29 99.6025 125.102 100.605 125.641C101.608 126.181 102.743 126.426 103.879 126.348C104.171 127.273 104.731 128.09 105.489 128.695C106.128 129.267 106.912 129.652 107.756 129.807C108.6 129.962 109.47 129.881 110.271 129.573C111.071 129.264 111.771 128.741 112.294 128.06C112.816 127.38 113.14 126.568 113.23 125.715C114.417 125.616 115.551 125.178 116.495 124.452C117.44 123.726 118.155 122.744 118.556 121.622C126.691 121.313 127.65 121.382 131.28 120.971C131.846 120.971 131.794 120.098 131.28 120.029C127.108 119.994 122.937 120.235 118.796 120.748C118.84 120.614 118.874 120.477 118.898 120.337C118.934 120.248 118.951 120.152 118.947 120.056C118.942 119.96 118.917 119.866 118.873 119.781C118.829 119.695 118.767 119.62 118.692 119.561C118.616 119.502 118.529 119.459 118.435 119.437C118.342 119.414 118.245 119.412 118.15 119.431C118.056 119.45 117.967 119.488 117.889 119.545C117.811 119.601 117.746 119.673 117.698 119.757C117.651 119.84 117.622 119.933 117.614 120.029C117.58 120.333 117.511 120.632 117.408 120.92C116.98 120.92 116.33 120.92 116.364 121.382C116.398 121.844 116.792 121.69 117.1 121.69C116.779 122.333 116.327 122.902 115.772 123.359C115.217 123.816 114.573 124.152 113.881 124.345C111.723 124.824 110.061 123.506 108.743 120.354C110.781 117.58 109.839 116.535 108.743 116.929C108.383 117.049 108.743 117.015 106.893 117.015C105.044 117.015 104.838 118.642 106.26 119.926L107.064 120.594C106.688 122.838 105.849 125.218 103.502 125.269C102.692 125.252 101.896 125.05 101.175 124.679C100.454 124.308 99.8265 123.778 99.3407 123.129L100.009 123.009C100.454 123.009 100.711 122.187 99.7175 122.187C96.2276 122.175 92.8211 123.253 89.9729 125.269C89.9144 125.301 89.8628 125.344 89.8208 125.395C89.7788 125.447 89.7474 125.506 89.7283 125.569C89.7092 125.633 89.7028 125.7 89.7096 125.766C89.7163 125.832 89.7359 125.896 89.7674 125.955C89.7989 126.013 89.8416 126.065 89.8931 126.107C89.9445 126.149 90.0038 126.18 90.0674 126.199C90.131 126.218 90.1977 126.225 90.2638 126.218C90.3299 126.211 90.394 126.192 90.4525 126.16ZM108.024 121.673C108.333 122.577 108.846 123.398 109.523 124.072C110.2 124.746 111.023 125.255 111.928 125.561C111.928 125.818 111.928 126.074 111.825 126.314C111.619 126.845 111.287 127.317 110.858 127.692C110.429 128.066 109.916 128.331 109.362 128.464C108.808 128.597 108.231 128.594 107.679 128.455C107.126 128.316 106.616 128.046 106.191 127.667C105.669 127.232 105.248 126.689 104.958 126.074C105.791 125.648 106.506 125.024 107.04 124.257C107.575 123.489 107.913 122.602 108.024 121.673ZM90.8463 101.156C91.4286 101.156 91.5485 100.18 93.2782 99.1013C94.1318 98.6517 95.0264 98.2847 95.9498 98.0052C96.6691 97.5599 96.3608 96.2926 94.6825 96.6694L93.8605 96.9777C92.346 97.6732 91.1309 98.8883 90.4353 100.403C90.3995 100.478 90.3821 100.562 90.3845 100.645C90.3869 100.729 90.409 100.811 90.4491 100.884C90.4892 100.958 90.546 101.021 90.6151 101.068C90.6841 101.115 90.7634 101.146 90.8463 101.156ZM118.316 95.2993C118.748 95.2908 119.18 95.3368 119.601 95.4363C120.524 95.6853 121.415 96.0416 122.255 96.4981C123.968 96.4981 121.519 93.9122 118.453 93.8436C117.845 93.7833 117.236 93.9478 116.741 94.306C115.867 95.1966 117.117 95.5905 118.316 95.2993ZM102.047 196.633C102.203 196.607 102.346 196.527 102.449 196.406C102.551 196.286 102.608 196.132 102.608 195.973C102.608 195.815 102.551 195.661 102.449 195.54C102.346 195.42 102.203 195.339 102.047 195.314C101.89 195.339 101.747 195.42 101.645 195.54C101.542 195.661 101.485 195.815 101.485 195.973C101.485 196.132 101.542 196.286 101.645 196.406C101.747 196.527 101.89 196.607 102.047 196.633ZM106.893 197.558C107.05 197.532 107.192 197.452 107.295 197.331C107.398 197.21 107.455 197.057 107.455 196.898C107.455 196.74 107.398 196.586 107.295 196.465C107.192 196.344 107.05 196.264 106.893 196.239C106.653 196.239 106.157 196.53 106.26 197.027C106.293 197.172 106.373 197.303 106.487 197.398C106.602 197.494 106.744 197.55 106.893 197.558ZM112.031 194.766C112.175 194.742 112.305 194.667 112.399 194.556C112.493 194.445 112.545 194.304 112.545 194.158C112.545 194.012 112.493 193.871 112.399 193.76C112.305 193.649 112.175 193.574 112.031 193.55C111.887 193.574 111.757 193.649 111.663 193.76C111.568 193.871 111.517 194.012 111.517 194.158C111.517 194.304 111.568 194.445 111.663 194.556C111.757 194.667 111.887 194.742 112.031 194.766ZM114.463 198.071C114.617 198.071 114.765 198.01 114.875 197.901C114.984 197.792 115.045 197.643 115.045 197.489C115.045 197.335 114.984 197.186 114.875 197.077C114.765 196.968 114.617 196.907 114.463 196.907C114.308 196.907 114.16 196.968 114.051 197.077C113.942 197.186 113.881 197.335 113.881 197.489C113.881 197.643 113.942 197.792 114.051 197.901C114.16 198.01 114.308 198.071 114.463 198.071ZM120.782 193.242C120.782 193.092 120.723 192.948 120.617 192.842C120.511 192.736 120.367 192.677 120.217 192.677C120.067 192.677 119.923 192.736 119.817 192.842C119.711 192.948 119.652 193.092 119.652 193.242C119.652 193.392 119.711 193.535 119.817 193.641C119.923 193.747 120.067 193.807 120.217 193.807C120.367 193.807 120.511 193.747 120.617 193.641C120.723 193.535 120.782 193.392 120.782 193.242ZM125.355 197.198C125.464 197.169 125.561 197.104 125.63 197.015C125.7 196.925 125.737 196.815 125.737 196.701C125.737 196.588 125.7 196.478 125.63 196.388C125.561 196.298 125.464 196.234 125.355 196.205C125.278 196.204 125.202 196.222 125.132 196.256C125.063 196.29 125.003 196.34 124.957 196.402C124.91 196.463 124.879 196.534 124.864 196.61C124.85 196.686 124.854 196.764 124.875 196.838C124.902 196.944 124.965 197.037 125.052 197.102C125.139 197.168 125.246 197.201 125.355 197.198ZM135.596 195.571C135.836 195.571 136.195 195.331 136.093 194.937C135.99 194.543 135.75 194.509 135.596 194.561C135.478 194.582 135.371 194.645 135.295 194.737C135.218 194.829 135.176 194.946 135.176 195.066C135.176 195.186 135.218 195.302 135.295 195.394C135.371 195.487 135.478 195.549 135.596 195.571ZM137.788 191.426C137.943 191.426 138.091 191.365 138.2 191.256C138.309 191.147 138.37 190.999 138.37 190.844C138.37 190.69 138.309 190.542 138.2 190.432C138.091 190.323 137.943 190.262 137.788 190.262C137.634 190.262 137.486 190.323 137.376 190.432C137.267 190.542 137.206 190.69 137.206 190.844C137.206 190.999 137.267 191.147 137.376 191.256C137.486 191.365 137.634 191.426 137.788 191.426ZM130.236 193.773C130.39 193.773 130.538 193.711 130.647 193.602C130.757 193.493 130.818 193.345 130.818 193.19C130.818 193.036 130.757 192.888 130.647 192.779C130.538 192.67 130.39 192.608 130.236 192.608C130.081 192.608 129.933 192.67 129.824 192.779C129.715 192.888 129.653 193.036 129.653 193.19C129.653 193.345 129.715 193.493 129.824 193.602C129.933 193.711 130.081 193.773 130.236 193.773ZM99.5634 200.229C99.6558 200.229 99.7471 200.208 99.8303 200.168C99.9135 200.127 99.9866 200.069 100.044 199.996C100.102 199.924 100.142 199.84 100.163 199.75C100.183 199.659 100.183 199.566 100.163 199.476C100.152 199.363 100.105 199.256 100.029 199.172C99.9537 199.088 99.8529 199.03 99.7419 199.007C99.6308 198.984 99.5154 198.997 99.4124 199.044C99.3094 199.092 99.2243 199.171 99.1695 199.27C99.1148 199.356 99.0814 199.453 99.0724 199.555C99.0633 199.656 99.0787 199.758 99.1174 199.852C99.156 199.946 99.2167 200.029 99.2943 200.095C99.3719 200.161 99.4642 200.207 99.5634 200.229ZM128.574 259.125L101.413 264.793C99.7069 265.153 98.202 266.149 97.2051 267.58C96.2082 269.01 95.7941 270.767 96.0474 272.492C96.3007 274.217 97.2023 275.78 98.5683 276.864C99.9344 277.947 101.662 278.469 103.4 278.323C104.153 278.323 101.944 278.477 131.263 272.483C132.219 272.393 133.145 272.103 133.981 271.631C134.817 271.16 135.545 270.519 136.118 269.748C136.69 268.978 137.094 268.096 137.304 267.159C137.513 266.222 137.524 265.252 137.334 264.311C137.145 263.37 136.76 262.48 136.204 261.697C135.649 260.914 134.935 260.257 134.109 259.768C133.283 259.279 132.363 258.969 131.41 258.859C130.457 258.748 129.491 258.838 128.574 259.125ZM130.955 270.907L103.879 276.576C102.582 276.76 101.264 276.441 100.194 275.685C99.1248 274.929 98.3841 273.793 98.1238 272.51C97.8636 271.226 98.1035 269.891 98.7944 268.779C99.4853 267.666 100.575 266.859 101.841 266.523C122.169 262.225 127.718 261.026 129.242 260.752C130.548 260.589 131.868 260.92 132.942 261.681C134.016 262.441 134.768 263.576 135.048 264.862C135.294 266.197 135.001 267.575 134.234 268.695C133.467 269.814 132.288 270.585 130.955 270.839V270.907Z" fill="#0E3A99"/>
<path d="M127.341 265.239C125.218 265.513 116.878 268.904 104.05 270.771C103.554 270.771 103.605 271.576 104.05 271.576C108.143 271.576 124.088 268.15 127.701 266.181C127.788 266.11 127.85 266.014 127.879 265.906C127.907 265.799 127.902 265.684 127.862 265.58C127.822 265.476 127.75 265.387 127.657 265.325C127.563 265.264 127.453 265.234 127.341 265.239ZM182.658 248.13C176.321 250.357 176.15 259.399 182.555 260.666C183.411 260.806 184.287 260.769 185.129 260.556C185.97 260.344 186.759 259.961 187.446 259.431C188.133 258.901 188.704 258.236 189.124 257.476C189.543 256.717 189.802 255.879 189.885 255.015C191.101 251.162 186.562 247.051 182.658 248.13ZM183.976 259.639C183.287 259.699 182.592 259.607 181.941 259.37C181.291 259.134 180.7 258.757 180.21 258.267C179.721 257.778 179.344 257.187 179.107 256.536C178.87 255.886 178.779 255.191 178.839 254.501C179.198 251.316 182.058 248.439 185.107 249.363C191.529 251.658 188.566 259.262 184.045 259.639H183.976Z" fill="#0E3A99"/>
<path d="M182.401 252.531C181.917 252.566 181.462 252.773 181.117 253.114C180.466 254.09 180.962 254.826 181.921 254.826C181.784 256.179 181.63 257.823 182.829 257.892C183.24 257.892 185.021 257.549 185.98 257.344C186.094 257.353 186.208 257.339 186.316 257.302C186.424 257.265 186.523 257.206 186.606 257.129C186.69 257.051 186.757 256.957 186.802 256.853C186.848 256.748 186.871 256.636 186.871 256.522C186.871 255.939 186.871 256.898 186.682 254.467C187.162 254.467 187.385 254.244 187.402 253.85L187.299 252.805C187.297 252.731 187.28 252.658 187.249 252.59C187.219 252.523 187.175 252.462 187.121 252.411C187.067 252.36 187.004 252.32 186.934 252.294C186.865 252.267 186.791 252.255 186.717 252.257C186.254 252.257 185.569 252.343 185.569 252.343C185.569 252.343 186.323 252.103 186.426 251.572C186.46 251.444 186.459 251.309 186.423 251.181C186.387 251.053 186.317 250.937 186.22 250.846C186.124 250.755 186.004 250.691 185.875 250.662C185.745 250.633 185.61 250.64 185.484 250.682C185.195 250.839 184.941 251.051 184.735 251.307C184.529 251.562 184.376 251.856 184.285 252.172C183.052 249.928 181.134 251.315 182.401 252.531ZM185.535 254.501C185.535 255.289 185.655 255.614 185.723 256.213C185.09 256.213 183.497 256.693 182.898 256.779C182.878 256.682 182.878 256.583 182.898 256.487V254.775C183.768 254.612 184.65 254.521 185.535 254.501ZM168.324 250.082C163.186 249.517 159.761 254.723 161.182 259.433C161.719 260.767 162.656 261.901 163.865 262.68C165.073 263.459 166.493 263.845 167.93 263.783C175.808 263.269 176.493 250.87 168.324 250.082ZM171.749 260.803C170.697 261.912 169.247 262.559 167.719 262.601C166.19 262.642 164.708 262.076 163.597 261.026C162.697 260.115 162.123 258.933 161.963 257.663C161.803 256.392 162.066 255.105 162.712 253.999C163.357 252.894 164.349 252.032 165.534 251.547C166.718 251.061 168.03 250.98 169.265 251.315C170.197 251.615 171.037 252.147 171.706 252.861C172.376 253.574 172.853 254.446 173.092 255.395C173.332 256.344 173.327 257.338 173.077 258.284C172.827 259.23 172.34 260.097 171.663 260.803H171.749ZM194.029 250.648L196.684 251.846C195.879 253.234 195.143 254.621 194.492 255.939C194.415 256.064 194.39 256.215 194.424 256.358C194.458 256.501 194.547 256.624 194.672 256.701C194.796 256.779 194.947 256.803 195.09 256.769C195.233 256.736 195.356 256.647 195.434 256.522C196.239 255.306 197.146 253.987 198.02 252.446C198.927 252.908 199.236 253.011 200.931 253.713C201.292 253.942 201.726 254.027 202.147 253.953C202.232 253.928 202.31 253.883 202.374 253.822C202.438 253.761 202.488 253.686 202.518 253.603C202.548 253.519 202.558 253.43 202.547 253.342C202.536 253.254 202.505 253.17 202.455 253.097C202.061 252.6 202.027 252.668 198.688 251.384C199.527 249.928 201.154 247.805 200.006 247.445C199.167 247.188 198.294 249.158 197.318 250.87L194.458 249.706C193.79 249.329 193.413 250.391 194.029 250.648ZM130.441 236.347C127.119 236.81 121.587 238.334 111.449 240.321C96.8404 243.198 97.3028 242.804 92.4391 244.123C92.3337 244.151 92.2405 244.213 92.1741 244.3C92.1077 244.387 92.0718 244.493 92.0718 244.602C92.0718 244.711 92.1077 244.817 92.1741 244.904C92.2405 244.991 92.3337 245.053 92.4391 245.082C95.5903 245.082 124.721 239.276 130.681 237.581C130.827 237.532 130.949 237.431 131.026 237.299C131.104 237.166 131.13 237.01 131.101 236.859C131.071 236.708 130.988 236.573 130.867 236.479C130.746 236.385 130.595 236.338 130.441 236.347ZM145.666 223.794C150.804 222.835 156.37 222.082 161.525 220.849C162.175 220.849 162.124 219.701 161.525 219.77C151.626 220.763 90.9149 232.991 90.0072 234.515C88.8598 236.382 103.451 231.449 145.666 223.794ZM174.181 224.822C172.057 223.435 169.591 224.702 168.221 226.706C165.823 231.004 166.679 235.029 168.392 239.67C168.221 239.67 93.4495 254.535 93.3296 254.792C93.2098 255.049 93.3296 255.443 93.6722 255.443C98.4845 255.443 162.878 242.581 168.854 240.852C169.349 242.141 169.921 243.399 170.567 244.619C170.634 244.732 170.729 244.826 170.843 244.892C170.957 244.958 171.086 244.994 171.218 244.996C172.04 244.996 179.233 240.047 180.911 238.848C183.343 237.135 185.843 235.251 186.22 232.237C186.871 226.928 179.883 225.695 176.407 228.812C176.215 227.242 175.416 225.809 174.181 224.822ZM51.3714 39.3151C50.3475 38.7135 49.1798 38.4005 47.9923 38.4091C46.8048 38.4177 45.6418 38.7478 44.6267 39.3642C43.6117 39.9806 42.7825 40.8604 42.2272 41.9101C41.6718 42.9598 41.4111 44.1403 41.4727 45.3262C41.4171 45.4004 41.3871 45.4905 41.3871 45.5831C41.3871 45.6758 41.4171 45.7659 41.4727 45.84C42.2911 46.8447 43.3628 47.6127 44.5773 48.0646C45.7917 48.5166 47.1047 48.6362 48.3808 48.411C49.6569 48.1858 50.8497 47.624 51.8361 46.7837C52.8225 45.9433 53.5666 44.8549 53.9917 43.6308C54.4541 43.254 54.1801 42.7745 54.1116 42.5519C53.6562 41.1564 52.6726 39.9945 51.3714 39.3151ZM42.2263 45.4461C42.2773 44.3175 42.6427 43.2257 43.2811 42.2937C43.9196 41.3616 44.8058 40.6266 45.8398 40.1714C43.5792 41.884 44.2813 46.6963 46.9872 47.1758C45.2397 47.215 43.541 46.5979 42.2263 45.4461ZM48.6656 46.9018C49.2851 46.4378 49.7702 45.8174 50.0711 45.1042C50.3721 44.391 50.478 43.6106 50.3781 42.843C50.3235 42.1462 50.0769 41.4781 49.6658 40.9128C49.2547 40.3476 48.6951 39.9072 48.049 39.6405C49.0478 39.6451 50.0236 39.9408 50.857 40.4913C51.6904 41.0418 52.3453 41.8234 52.7415 42.7402C52.4537 43.7032 51.9399 44.5833 51.2427 45.3073C50.5456 46.0312 49.6855 46.5779 48.7341 46.9018H48.6656ZM60.1227 37.0202C60.0906 36.8784 60.0094 36.7525 59.8935 36.6648C59.7775 36.577 59.6343 36.5331 59.4891 36.5407C58.4101 36.5407 59.2322 37.8423 57.7765 41.8326C57.7456 41.9316 57.7489 42.038 57.7858 42.1349C57.8227 42.2318 57.8911 42.3135 57.98 42.3668C58.0689 42.4202 58.1731 42.4421 58.276 42.429C58.3789 42.416 58.4743 42.3688 58.5471 42.295C58.9247 41.6539 59.2237 40.9696 59.4377 40.257C59.746 41.8497 60.0713 43.391 60.3967 44.8638C60.417 44.9516 60.4543 45.0344 60.5065 45.1077C60.5588 45.181 60.625 45.2433 60.7013 45.291C60.7777 45.3387 60.8627 45.3709 60.9514 45.3858C61.0402 45.4006 61.1311 45.3979 61.2188 45.3776C61.3065 45.3574 61.3893 45.3201 61.4626 45.2678C61.5359 45.2155 61.5982 45.1493 61.6459 45.073C61.6936 44.9967 61.7258 44.9117 61.7407 44.8229C61.7555 44.7341 61.7528 44.6433 61.7325 44.5556C61.253 42.0895 60.705 39.6405 60.1227 37.0202ZM70.8092 41.6956C69.2508 41.9696 68.2746 42.158 67.0587 42.4834C68.2834 40.919 68.9791 39.0059 69.0453 37.0202C68.9992 36.4699 68.7857 35.9468 68.4337 35.5213C68.0816 35.0957 67.6078 34.7881 67.0758 34.6397C66.5795 34.4601 66.0401 34.4367 65.5301 34.5726C65.0201 34.7084 64.5639 34.9971 64.2228 35.3998C63.8816 35.8025 63.6718 36.2999 63.6216 36.8253C63.5713 37.3507 63.6831 37.8789 63.9418 38.3389C64.0616 38.8356 64.9008 38.3389 64.7809 38.0478C64.6303 37.6337 64.6282 37.1801 64.7751 36.7646C64.9219 36.3491 65.2085 35.9976 65.5858 35.77C65.9712 35.6113 66.4012 35.5985 66.7952 35.7341C67.1893 35.8696 67.5204 36.1443 67.7266 36.5065C67.8644 37.0911 67.8777 37.6982 67.7656 38.2883C67.6535 38.8784 67.4185 39.4383 67.0758 39.9316C65.4831 43.0828 64.3357 43.3568 65.0207 44.0761C65.0953 44.1568 65.1907 44.2155 65.2964 44.2457C65.4021 44.2759 65.5141 44.2765 65.6201 44.2473C67.5014 43.9876 69.3615 43.5927 71.186 43.0656C71.325 42.9833 71.4331 42.8576 71.4936 42.7078C71.5541 42.558 71.5637 42.3925 71.5208 42.2367C71.478 42.0809 71.3851 41.9436 71.2565 41.8458C71.1279 41.748 70.9708 41.6952 70.8092 41.6956ZM78.3274 39.9316C78.5745 39.2159 78.5882 38.4404 78.3666 37.7164C78.1451 36.9925 77.6997 36.3574 77.0945 35.9025C76.4893 35.4477 75.7554 35.1964 74.9984 35.1849C74.2414 35.1734 73.5002 35.4023 72.8814 35.8385C72.7712 35.3289 72.5617 34.8459 72.2649 34.4171C73.5798 34.2531 74.8618 33.8892 76.0668 33.3382C76.2264 33.3077 76.3746 33.2341 76.4953 33.1254C76.6161 33.0167 76.7048 32.8771 76.7519 32.7216C76.7792 32.5914 76.766 32.4559 76.7139 32.3334C76.6618 32.2109 76.5735 32.1073 76.4607 32.0366C75.9812 31.7455 75.4161 32.1394 75.0393 32.2935C68.189 34.9138 71.9909 32.8929 71.8539 37.1401C71.8571 37.2712 71.9021 37.3979 71.9822 37.5018C72.0624 37.6056 72.1736 37.6812 72.2997 37.7174C72.4257 37.7537 72.5601 37.7489 72.6832 37.7036C72.8063 37.6582 72.9117 37.5749 72.9842 37.4655C73.0264 37.423 73.056 37.3696 73.0698 37.3114C73.4107 36.8424 73.9176 36.521 74.4872 36.4129C75.0568 36.3047 75.6462 36.4178 76.1353 36.7291C76.466 36.9712 76.7285 37.2945 76.8976 37.6678C77.0667 38.0411 77.1365 38.4517 77.1003 38.8599C77.0641 39.2681 76.9232 39.6601 76.6911 39.9978C76.4591 40.3356 76.1438 40.6077 75.7757 40.7879C74.9019 41.116 73.9604 41.2219 73.0356 41.0962C72.5218 41.0962 72.282 41.6271 72.6245 41.9353C73.1084 42.2748 73.6662 42.494 74.2517 42.5747C74.8371 42.6554 75.4334 42.5953 75.9911 42.3994C76.5487 42.2035 77.0515 41.8774 77.4579 41.4482C77.8642 41.019 78.1623 40.4991 78.3274 39.9316ZM80.1256 37.3799C81.2111 37.254 82.2829 37.0304 83.3282 36.712C83.3527 37.8748 83.543 39.0281 83.8933 40.1371C83.9617 40.2353 84.0558 40.3128 84.1653 40.361C84.2748 40.4092 84.3955 40.4263 84.5141 40.4103C84.6327 40.3944 84.7446 40.3461 84.8375 40.2707C84.9304 40.1953 85.0007 40.0958 85.0408 39.983C85.1401 38.7475 85.0065 37.5043 84.6469 36.3181C85.2824 36.2282 85.8777 35.9544 86.3594 35.5303C86.423 35.4493 86.4646 35.3534 86.4804 35.2517C86.4961 35.15 86.4854 35.046 86.4492 34.9497C86.4131 34.8533 86.3528 34.7679 86.2741 34.7016C86.1954 34.6353 86.1009 34.5904 85.9998 34.5712C83.9104 34.2972 84.5784 35.9242 84.0303 33.2354C84.0303 33.0946 83.9744 32.9596 83.8748 32.86C83.7753 32.7605 83.6402 32.7045 83.4994 32.7045C83.3586 32.7045 83.2236 32.7605 83.124 32.86C83.0245 32.9596 82.9685 33.0946 82.9685 33.2354C82.9685 33.5094 82.9685 33.3896 83.0884 35.1535C82.4719 35.3248 81.9239 35.5303 81.3758 35.7529C80.8278 35.9756 81.7869 33.8862 81.9924 31.1975C81.9939 31.1083 81.9637 31.0216 81.9073 30.9526C81.8508 30.8836 81.7717 30.8369 81.6841 30.8207C81.0676 30.7008 81.0504 31.3516 79.8174 36.5578C79.7527 36.7081 79.7486 36.8777 79.8061 37.0309C79.8636 37.1841 79.9781 37.3092 80.1256 37.3799Z" fill="#0E3A99"/>
<path d="M90.1784 37.7741C93.9289 37.7741 94.7852 31.5574 91.1546 28.92C89.3221 27.6013 87.5068 27.9267 86.6847 30.0674C85.6572 32.9617 87.1985 37.7741 90.1784 37.7741ZM91.0861 30.9237C92.5417 32.7733 92.165 35.7703 90.5038 36.3869C88.8426 37.0034 87.4383 34.3146 87.5753 31.8999C87.7979 28.5946 89.853 29.2112 91.1374 30.8552L91.0861 30.9237Z" fill="#0E3A99"/>
<path d="M97.4398 36.2154C101.636 36.2154 102.578 29.1938 98.8783 26.7619C98.5389 26.502 98.1452 26.322 97.7266 26.2353C97.308 26.1485 96.8752 26.1573 96.4604 26.261C96.0456 26.3647 95.6596 26.5606 95.331 26.8342C95.0025 27.1077 94.7398 27.4518 94.5626 27.8409C94.1048 28.5179 93.8331 29.3034 93.7748 30.1186C93.1241 32.7902 94.6311 36.2154 97.4398 36.2154ZM95.1278 28.8513C95.2246 28.5755 95.3782 28.3232 95.5786 28.1105C95.7791 27.8978 96.0219 27.7295 96.2915 27.6165C96.561 27.5035 96.8513 27.4484 97.1434 27.4546C97.4356 27.4608 97.7233 27.5282 97.9878 27.6525C100.677 29.3651 100.146 35.7359 96.378 34.5028C95.8358 34.1214 95.4033 33.6042 95.1238 33.0031C94.8443 32.402 94.7275 31.738 94.7853 31.0777C94.7732 30.3215 94.889 29.5688 95.1278 28.8513ZM102.817 33.2869C103.143 33.2869 102.441 33.2869 104.752 32.9444C105.986 32.756 105.797 32.7902 107.561 32.4306C108.176 32.4051 108.771 32.2029 109.274 31.8483C109.415 31.7043 109.494 31.5106 109.494 31.3089C109.494 31.1071 109.415 30.9134 109.274 30.7694C108.863 30.3584 107.835 30.5125 107.304 30.7694C105.438 31.1804 105.694 31.1119 104.53 31.4373C105.411 30.0541 105.994 28.5027 106.242 26.8818C106.465 25.1692 105.027 23.6451 103.622 24.1246C103.34 24.2056 103.09 24.371 102.904 24.5986C102.719 24.8261 102.608 25.1049 102.585 25.3975C102.563 25.6902 102.63 25.9826 102.779 26.2357C102.928 26.4888 103.15 26.6903 103.417 26.8133C104.359 27.2243 104.41 26.0769 104.033 26.0255C103.949 26.002 103.875 25.9497 103.825 25.8779C103.775 25.806 103.752 25.7189 103.759 25.6316C103.759 25.0322 104.341 25.0665 104.667 25.3576C106.054 26.7106 103.776 30.581 102.338 32.208C102.273 32.3062 102.235 32.419 102.225 32.5361C102.216 32.6532 102.236 32.7708 102.283 32.8782C102.331 32.9856 102.405 33.0792 102.498 33.1506C102.591 33.222 102.701 33.2689 102.817 33.2869ZM110.849 28.7485C111.449 28.7485 111.277 28.406 112.099 25.5631C113.298 30.7009 113.367 31.0263 113.983 31.3174C114.076 31.3896 114.191 31.4288 114.309 31.4288C114.427 31.4288 114.541 31.3896 114.634 31.3174C115.079 30.718 114.891 30.444 113.744 26.4023C112.784 23.0628 112.784 22.8915 112.134 22.8744C112.013 22.8807 111.897 22.9283 111.807 23.0093C111.716 23.0903 111.656 23.1999 111.637 23.3197C111.312 24.9124 110.884 26.4708 110.387 28.2005C110.389 28.3313 110.436 28.4573 110.52 28.5572C110.604 28.6572 110.721 28.7248 110.849 28.7485ZM164.761 213.913L167.005 216.071C167.536 216.739 168.854 218.074 169.694 218.074C170.533 218.074 171.406 216.893 172.023 215.968C173.589 214.175 174.788 212.092 175.551 209.837C176.321 205.846 171.286 202.747 168.803 208.124C166.936 205.179 159.863 206.052 161.336 209.837C162.148 211.441 163.321 212.836 164.761 213.913ZM222.766 98.2451C222.199 97.8742 221.527 97.6972 220.851 97.7404C220.175 97.7836 219.531 98.0448 219.016 98.4848C217.786 99.7439 216.906 101.302 216.464 103.006C215.535 105.158 214.723 107.359 214.032 109.599C213.707 110.987 214.478 110.987 214.786 110.73C217.834 110.97 227.973 108.64 227.75 105.215C227.576 104.409 227.098 103.701 226.416 103.238C225.733 102.776 224.898 102.594 224.085 102.732C224.335 101.938 224.344 101.087 224.109 100.288C223.874 99.4887 223.407 98.7776 222.766 98.2451ZM222.373 155.291C224.804 151.986 227.014 148.064 226.551 143.577C226.505 142.397 226.199 141.241 225.654 140.193C225.109 139.145 224.34 138.23 223.4 137.515C221.242 136.23 218.793 138.08 217.149 139.33C208.826 145.598 206.24 156.267 203.911 165.412C203.431 167.348 202.918 169.334 202.626 171.287C201.548 175.003 204.459 175.774 206.942 175.979C214.289 176.544 225.044 172.383 232.477 170.293C236.073 169.283 242.101 167.587 241.999 162.347C241.93 156.576 231.655 151.232 222.373 155.291ZM212.782 95.8988C212.846 95.9839 212.929 96.053 213.024 96.1005C213.119 96.1481 213.224 96.1728 213.33 96.1728C213.436 96.1728 213.541 96.1481 213.636 96.1005C213.732 96.053 213.814 95.9839 213.878 95.8988C218.881 88.553 223.357 80.8613 227.27 72.8817C230.439 66.0314 226.585 57.2116 219.376 58.7701C216.43 59.4551 213.878 61.7328 211.806 65.5348C211.102 63.15 209.516 61.123 207.37 59.8661C200.263 55.8587 192.163 63.5653 196.084 70.6725C200.643 79.7064 206.247 88.1732 212.782 95.8988ZM97.0288 108.623C97.0417 109.102 97.1048 109.579 97.2171 110.045C97.3199 111.072 97.4569 112.168 98.4844 112.168C98.6194 112.164 98.7522 112.133 98.8752 112.077C98.9981 112.021 99.1089 111.942 99.2012 111.843C99.2934 111.745 99.3653 111.629 99.4128 111.502C99.4603 111.376 99.4823 111.242 99.4777 111.107C99.316 110.178 99.0695 109.267 98.7413 108.384C98.6579 108.21 98.5215 108.068 98.3519 107.977C98.1822 107.886 97.9881 107.851 97.7975 107.878C97.6069 107.905 97.4297 107.991 97.2915 108.125C97.1533 108.259 97.0613 108.434 97.0288 108.623ZM116.672 105.849C116.487 105.71 116.258 105.643 116.027 105.662C115.797 105.681 115.581 105.784 115.422 105.952C114.685 106.294 114.566 110.302 116.193 110.302C116.441 110.309 116.683 110.227 116.875 110.069C117.067 109.912 117.196 109.69 117.237 109.445C117.237 108.675 117.134 108.76 117.134 108.247C117.134 106.431 116.997 106.106 116.672 105.849ZM171.046 254.364C170.276 252.942 168.255 253.388 167.621 254.861C167.458 254.651 167.254 254.476 167.021 254.348C166.789 254.22 166.532 254.14 166.268 254.114C166.003 254.089 165.736 254.117 165.483 254.199C165.23 254.28 164.996 254.412 164.796 254.587C164.508 254.846 164.281 255.165 164.128 255.521C163.976 255.877 163.902 256.261 163.912 256.648C163.921 257.035 164.015 257.415 164.185 257.763C164.355 258.111 164.599 258.418 164.898 258.662C165.926 259.394 167.021 260.025 168.169 260.546C168.348 260.665 168.555 260.736 168.769 260.752C169.248 260.752 169.454 259.981 169.642 259.622C170.807 257.241 171.577 255.991 171.046 254.364ZM149.331 258.971C149.622 260.683 149.879 262.601 149.999 263.167L153.253 262.413C153.493 262.413 153.51 262.533 152.653 258.354C151.528 258.45 150.415 258.656 149.331 258.971Z" fill="#0E3A99"/>
<path d="M149.502 254.467C148.262 254.955 147.177 255.77 146.363 256.826C145.549 257.881 145.036 259.137 144.878 260.461C144.734 261.297 144.774 262.155 144.994 262.975C145.215 263.795 145.61 264.557 146.155 265.208C146.699 265.86 147.378 266.385 148.145 266.748C148.912 267.111 149.749 267.303 150.598 267.311C151.915 267.253 153.194 266.857 154.313 266.161C155.431 265.465 156.352 264.493 156.986 263.338C158.904 258.851 154.657 253.028 149.502 254.467ZM154.64 262.653V262.892C154.263 263.817 153.715 263.903 150.684 264.434L150.204 264.519C150.024 264.578 149.834 264.599 149.646 264.581C149.457 264.564 149.274 264.508 149.108 264.417C148.973 264.328 148.861 264.209 148.781 264.069C148.701 263.93 148.654 263.773 148.646 263.612C148.646 263.441 148.646 262.944 148.509 262.31C148.314 261.178 148.206 260.033 148.183 258.885C148.115 258.668 148.115 258.435 148.183 258.217C148.242 258.082 148.332 257.962 148.445 257.867C148.558 257.772 148.691 257.704 148.834 257.669C150.106 257.335 151.399 257.089 152.705 256.933C152.932 256.929 153.155 256.999 153.34 257.131C153.525 257.264 153.663 257.452 153.732 257.669C154.058 259.279 154.246 260.289 154.383 260.957C154.567 261.503 154.654 262.077 154.64 262.653Z" fill="#0E3A99"/>
</svg>
