<svg width="305" height="325" viewBox="0 0 305 325" fill="none" xmlns="http://www.w3.org/2000/svg">
<path d="M131.941 34.6838C132.711 40.6882 136.409 41.629 136.409 41.629C142.452 42.0396 140.329 36.651 140.329 36.651C134.132 24.2487 119.016 28.3714 119.016 28.3714C119.016 28.3714 131.102 28.6794 131.941 34.6838ZM219.503 57.8461C228.165 45.9912 212.792 36.9247 212.792 36.9247C213.805 41.5401 213.805 46.3197 212.792 50.935C211.971 62.1741 219.503 57.8461 219.503 57.8461Z" fill="#0E3A99"/>
<path d="M297.992 68.7603C297.992 68.7603 280.873 25.4806 219.623 8.03187C158.372 -9.41686 112.049 26.8491 112.049 26.8491C170.732 8.03187 181.876 23.2054 181.876 23.2054C181.876 23.2054 191.907 34.6155 201.134 33.2299C210.361 31.8442 204.216 22.9659 204.216 22.9659C226.35 27.3794 229.979 40.3291 235.423 51.3287C240.867 62.3282 247.406 56.7001 253.637 50.5075C259.869 44.315 266.425 51.7392 266.425 51.7392C271.995 59.4467 275.569 68.4117 276.829 77.8347C278.09 87.2578 276.997 96.8461 273.649 105.745C262.3 137.084 281.9 138.932 281.9 138.932C321.701 131.832 297.992 68.7603 297.992 68.7603ZM244.565 43.1004C241.278 44.1439 239.617 38.2592 239.617 38.2592C239.234 37.4817 239.15 36.5909 239.38 35.7554C239.611 34.92 240.14 34.1979 240.867 33.726C244.633 32.0153 246.003 36.8736 246.003 36.8736C246.003 36.8736 247.851 42.1253 244.547 43.1517L244.565 43.1004ZM294.568 90.6738C294.992 90.6772 295.409 90.7827 295.784 90.9815C296.158 91.1803 296.479 91.4665 296.72 91.8157C296.96 92.1649 297.112 92.5669 297.164 92.9876C297.216 93.4082 297.165 93.8351 297.016 94.232C296.126 97.6533 292.48 94.9334 292.48 94.9334C292.222 94.5322 292.071 94.0711 292.044 93.5949C292.016 93.1187 292.112 92.6434 292.322 92.215C292.532 91.7867 292.849 91.4197 293.243 91.1497C293.636 90.8797 294.093 90.7158 294.568 90.6738ZM289.929 127.385C289.929 127.385 288.388 126.153 289.929 122.253C291.202 118.285 292.136 114.216 292.719 110.09C294.671 103.384 298.899 108.14 298.899 108.14C298.899 108.14 301.895 112.878 297.359 122.047C292.822 131.216 289.929 127.402 289.929 127.402V127.385ZM108.574 94.0951C108.61 94.0951 108.645 94.0807 108.671 94.0551C108.696 94.0294 108.711 93.9946 108.711 93.9583C108.711 93.922 108.696 93.8872 108.671 93.8615C108.645 93.8359 108.61 93.8214 108.574 93.8214C108.537 93.8214 108.503 93.8359 108.477 93.8615C108.451 93.8872 108.437 93.922 108.437 93.9583C108.437 93.9946 108.451 94.0294 108.477 94.0551C108.503 94.0807 108.537 94.0951 108.574 94.0951ZM123.741 105.214C123.579 105.364 123.401 105.496 123.21 105.608C123.188 105.627 123.173 105.652 123.167 105.681C123.16 105.709 123.163 105.738 123.174 105.765C123.186 105.792 123.205 105.814 123.23 105.829C123.255 105.844 123.284 105.85 123.313 105.847C125.573 105.232 123.467 103.435 123.313 102.238C123.313 101.981 122.731 102.238 123.963 104.256C124.025 104.42 124.036 104.599 123.997 104.769C123.957 104.939 123.868 105.094 123.741 105.214ZM126.035 99.9285C125.914 100.527 125.914 101.143 126.035 101.742C126.055 101.77 126.083 101.793 126.114 101.809C126.145 101.825 126.18 101.833 126.215 101.833C126.25 101.833 126.284 101.825 126.315 101.809C126.347 101.793 126.374 101.77 126.394 101.742C126.473 101.174 126.473 100.599 126.394 100.031C126.514 99.7232 126.069 99.6548 126.035 99.9285ZM118.931 100.117C118.789 100.779 118.867 101.47 119.153 102.084C119.186 102.115 119.226 102.138 119.27 102.149C119.313 102.161 119.359 102.162 119.403 102.152C119.447 102.142 119.488 102.121 119.522 102.091C119.556 102.061 119.582 102.024 119.598 101.981C119.645 101.351 119.569 100.718 119.376 100.117C119.353 100.078 119.321 100.045 119.282 100.023C119.243 100 119.198 99.9881 119.153 99.9881C119.108 99.9881 119.064 100 119.025 100.023C118.985 100.045 118.953 100.078 118.931 100.117ZM117.013 98.6797C117.39 98.3205 119.033 97.1401 119.376 96.8151C119.718 96.4901 118.931 96.0282 116.774 98.4402C116.62 98.5942 116.859 98.8508 117.013 98.6797ZM127.336 97.927C126.923 97.3605 126.384 96.8979 125.761 96.5756C125.521 96.473 125.333 96.9006 125.59 97.0033C125.846 97.1059 127.524 98.8679 127.336 97.927ZM117.63 109.867C117.732 109.987 117.903 109.867 117.835 109.713C117.307 109.026 117.018 108.185 117.013 107.319C118.931 109.423 121.036 108.909 120.214 108.687C119.024 108.425 117.932 107.832 117.065 106.976C116.637 106.566 116.38 108.396 117.63 109.867ZM107.136 96.1479C107.072 96.1479 107.011 96.1732 106.966 96.2181C106.921 96.263 106.896 96.3239 106.896 96.3874C106.896 96.451 106.921 96.5119 106.966 96.5568C107.011 96.6017 107.072 96.6269 107.136 96.6269C107.199 96.6269 107.26 96.6017 107.305 96.5568C107.35 96.5119 107.375 96.451 107.375 96.3874C107.375 96.3239 107.35 96.263 107.305 96.2181C107.26 96.1732 107.199 96.1479 107.136 96.1479ZM109.104 97.9441C109.177 97.9441 109.247 97.9153 109.298 97.864C109.349 97.8126 109.378 97.743 109.378 97.6704C109.378 97.5978 109.349 97.5282 109.298 97.4769C109.247 97.4256 109.177 97.3967 109.104 97.3967C109.032 97.3967 108.962 97.4256 108.911 97.4769C108.859 97.5282 108.831 97.5978 108.831 97.6704C108.831 97.743 108.859 97.8126 108.911 97.864C108.962 97.9153 109.032 97.9441 109.104 97.9441ZM109.413 95.6519C109.467 95.6374 109.516 95.6052 109.55 95.5603C109.585 95.5154 109.604 95.4604 109.604 95.4038C109.604 95.3472 109.585 95.2922 109.55 95.2473C109.516 95.2024 109.467 95.1703 109.413 95.1558C109.358 95.1703 109.309 95.2024 109.275 95.2473C109.24 95.2922 109.222 95.3472 109.222 95.4038C109.222 95.4604 109.24 95.5154 109.275 95.5603C109.309 95.6052 109.358 95.6374 109.413 95.6519ZM112.134 96.0282C112.193 96.0131 112.246 95.9789 112.283 95.9309C112.32 95.8829 112.34 95.8238 112.34 95.763C112.34 95.7023 112.32 95.6432 112.283 95.5952C112.246 95.5472 112.193 95.513 112.134 95.4979C112.076 95.513 112.023 95.5472 111.986 95.5952C111.949 95.6432 111.928 95.7023 111.928 95.763C111.928 95.8238 111.949 95.8829 111.986 95.9309C112.023 95.9789 112.076 96.0131 112.134 96.0282ZM112.751 100.681C113.247 100.51 112.597 99.9456 112.46 100.39C112.408 100.527 112.58 100.75 112.751 100.681ZM111.929 98.6455C111.97 98.6455 112.009 98.6293 112.038 98.6004C112.067 98.5715 112.083 98.5324 112.083 98.4915C112.083 98.4507 112.067 98.4116 112.038 98.3827C112.009 98.3538 111.97 98.3376 111.929 98.3376C111.888 98.3376 111.849 98.3538 111.82 98.3827C111.791 98.4116 111.775 98.4507 111.775 98.4915C111.775 98.5324 111.791 98.5715 111.82 98.6004C111.849 98.6293 111.888 98.6455 111.929 98.6455ZM106.982 99.2271C106.936 99.2271 106.893 99.2452 106.861 99.2772C106.829 99.3093 106.811 99.3528 106.811 99.3982C106.811 99.4436 106.829 99.4871 106.861 99.5192C106.893 99.5512 106.936 99.5693 106.982 99.5693C107.027 99.5693 107.071 99.5512 107.103 99.5192C107.135 99.4871 107.153 99.4436 107.153 99.3982C107.153 99.3528 107.135 99.3093 107.103 99.2772C107.071 99.2452 107.027 99.2271 106.982 99.2271ZM108.779 106.19C108.737 106.202 108.7 106.228 108.673 106.264C108.647 106.299 108.632 106.342 108.632 106.386C108.632 106.43 108.647 106.473 108.673 106.509C108.7 106.544 108.737 106.57 108.779 106.583C108.822 106.57 108.859 106.544 108.885 106.509C108.912 106.473 108.926 106.43 108.926 106.386C108.926 106.342 108.912 106.299 108.885 106.264C108.859 106.228 108.822 106.202 108.779 106.19ZM106.571 101.571C106.498 101.571 106.429 101.6 106.377 101.651C106.326 101.702 106.297 101.772 106.297 101.844C106.297 101.917 106.326 101.987 106.377 102.038C106.429 102.089 106.498 102.118 106.571 102.118C106.644 102.118 106.713 102.089 106.765 102.038C106.816 101.987 106.845 101.917 106.845 101.844C106.845 101.772 106.816 101.702 106.765 101.651C106.713 101.6 106.644 101.571 106.571 101.571ZM109.104 99.2271C109.069 99.2174 109.032 99.2159 108.995 99.223C108.959 99.23 108.925 99.2453 108.896 99.2676C108.866 99.29 108.843 99.3188 108.826 99.3518C108.81 99.3848 108.801 99.4212 108.801 99.4581C108.801 99.4949 108.81 99.5313 108.826 99.5643C108.843 99.5974 108.866 99.6262 108.896 99.6485C108.925 99.6709 108.959 99.6862 108.995 99.6932C109.032 99.7002 109.069 99.6988 109.104 99.689C109.155 99.6751 109.2 99.645 109.232 99.6033C109.263 99.5615 109.281 99.5105 109.281 99.4581C109.281 99.4056 109.263 99.3546 109.232 99.3129C109.2 99.2711 109.155 99.241 109.104 99.2271ZM111.005 97.7902C111.064 97.7902 111.12 97.7667 111.162 97.725C111.204 97.6833 111.227 97.6268 111.227 97.5678C111.227 97.5088 111.204 97.4522 111.162 97.4105C111.12 97.3688 111.064 97.3454 111.005 97.3454C110.946 97.3454 110.889 97.3688 110.847 97.4105C110.806 97.4522 110.782 97.5088 110.782 97.5678C110.782 97.6268 110.806 97.6833 110.847 97.725C110.889 97.7667 110.946 97.7902 111.005 97.7902ZM87.7403 154.789C87.756 154.71 87.756 154.629 87.7403 154.55C87.552 152.839 84.7959 154.31 86.0284 155.713C86.145 155.829 86.2943 155.907 86.4564 155.935C86.6206 155.972 86.791 155.968 86.9536 155.926C87.1163 155.883 87.2664 155.803 87.3918 155.691C87.5172 155.579 87.6141 155.439 87.6747 155.282C87.7353 155.125 87.7578 154.956 87.7403 154.789ZM89.7261 145.175C89.8517 145.3 90.0089 145.388 90.1807 145.43C90.3526 145.473 90.5328 145.467 90.7018 145.415C90.8359 145.368 90.9587 145.294 91.0621 145.197C91.1656 145.1 91.2474 144.983 91.3024 144.852C91.3573 144.721 91.384 144.58 91.3808 144.439C91.3776 144.297 91.3446 144.157 91.2839 144.029C90.9757 142.746 88.5278 143.927 89.7261 145.175ZM93.6805 151.094C93.7855 150.813 93.7855 150.503 93.6805 150.222C91.5064 148.323 91.6776 153.575 93.6805 151.094ZM77.4691 158.809C78.5476 159.579 79.5747 158.519 78.6332 157.407C78.2737 156.979 76.1681 157.834 77.4691 158.809ZM87.2267 162.864C85.0013 161.256 84.6761 166.08 87.0042 164.574C87.2349 164.361 87.3873 164.076 87.437 163.766C87.4867 163.456 87.4307 163.138 87.2781 162.864H87.2267ZM93.8688 136.588C93.3552 137.649 95.05 138.572 95.4437 136.93C95.4437 136.554 95.4437 136.058 94.5707 135.989C94.4079 136.01 94.2547 136.077 94.1299 136.183C94.0052 136.29 93.9144 136.43 93.8688 136.588ZM92.5678 130.019C92.7329 130.11 92.9227 130.146 93.1098 130.122C93.2969 130.099 93.4716 130.016 93.6087 129.887C93.7458 129.757 93.8382 129.588 93.8727 129.402C93.9071 129.217 93.8818 129.026 93.8003 128.856C93.2868 127.864 91.4208 128.993 92.5678 130.019ZM95.8032 122.783C95.8032 123.758 97.6178 123.621 97.5151 122.509C97.5139 122.397 97.4852 122.287 97.4315 122.189C97.3778 122.09 97.3007 122.006 97.2069 121.945C96.8132 121.466 95.3581 121.825 95.8032 122.783ZM103.233 112.81C104.208 112.228 103.575 110.808 102.634 111.321C101.401 111.441 102.12 113.46 103.233 112.81ZM96.5735 105.232C96.5811 105.175 96.5811 105.117 96.5735 105.06C96.6 104.926 96.5923 104.787 96.5512 104.656C96.51 104.525 96.4367 104.407 96.338 104.311C96.2393 104.216 96.1182 104.147 95.9859 104.111C95.8537 104.074 95.7143 104.071 95.5807 104.103C95.441 104.139 95.3137 104.212 95.2122 104.315C95.1107 104.417 95.0386 104.545 95.0036 104.685C94.9686 104.825 94.9719 104.972 95.0132 105.11C95.0545 105.249 95.1322 105.373 95.2383 105.471C95.3038 105.611 95.4139 105.726 95.5513 105.797C95.6887 105.868 95.8458 105.892 95.9981 105.864C96.1504 105.837 96.2893 105.76 96.3934 105.646C96.4975 105.531 96.5608 105.386 96.5735 105.232ZM85.7203 97.5165C84.9157 96.473 83.6147 97.7731 84.4193 98.6284C84.4919 98.6949 84.5724 98.7524 84.6589 98.7995C85.2239 99.3469 86.4564 98.3718 85.7203 97.5165ZM86.7817 87.0986C86.3708 87.492 86.4222 88.5697 87.1412 88.6553C87.3075 88.7314 87.4943 88.7512 87.6729 88.7114C87.8516 88.6717 88.0123 88.5746 88.1306 88.4351C88.2489 88.2955 88.3183 88.1212 88.3282 87.9385C88.3381 87.7559 88.2879 87.5751 88.1854 87.4236C88.123 87.3014 88.0346 87.1943 87.9265 87.1098C87.8183 87.0253 87.693 86.9655 87.5592 86.9346C87.4255 86.9036 87.2866 86.9022 87.1523 86.9306C87.018 86.9589 86.8915 87.0162 86.7817 87.0986ZM89.6405 76.3556C89.4557 76.2648 89.245 76.2408 89.0445 76.2878C88.844 76.3347 88.6659 76.4497 88.5407 76.6132C88.4155 76.7766 88.3509 76.9784 88.3579 77.1841C88.3649 77.3898 88.4431 77.5867 88.5791 77.7412C88.6221 77.9142 88.7095 78.073 88.8325 78.2019C88.9556 78.3309 89.1102 78.4257 89.281 78.4768C89.3913 78.4912 89.5033 78.4834 89.6106 78.4541C89.7178 78.4248 89.8182 78.3744 89.9058 78.306C89.9934 78.2375 90.0666 78.1523 90.1209 78.0554C90.1753 77.9584 90.2098 77.8517 90.2225 77.7412C90.2596 77.5727 90.2556 77.3977 90.2109 77.231C90.1663 77.0643 90.0822 76.9107 89.9657 76.7833C89.9151 76.6049 89.799 76.4521 89.6405 76.3556ZM83.4435 82.3942C83.8544 81.077 81.6289 80.9402 81.6289 82.1719C81.6329 82.3962 81.7215 82.6107 81.8771 82.7725C82.0326 82.9343 82.2436 83.0314 82.4677 83.0443C82.68 83.0622 82.892 83.0077 83.0693 82.8896C83.2465 82.7715 83.3784 82.5969 83.4435 82.3942ZM82.6047 148.973C83.3237 150.222 84.8986 147.981 83.0498 147.861C82.7588 148.049 82.2966 148.203 82.6047 148.973ZM124.391 155.012C124.566 154.983 124.729 154.906 124.862 154.788C124.994 154.671 125.091 154.519 125.141 154.349C125.191 154.18 125.192 153.999 125.145 153.829C125.097 153.659 125.002 153.505 124.871 153.387C124.015 152.463 122.577 154.926 124.391 155.012ZM126.36 142.199C126.565 141.788 126.565 141.258 126.052 141.087C123.587 140.711 124.871 144.474 126.36 142.199ZM122.32 132.089C122.152 132.046 121.975 132.046 121.806 132.089C119.17 133.919 124.836 134.501 122.32 132.089ZM128.517 129.283C129.133 128.736 129.168 127.47 127.969 127.573C126.771 127.675 127.079 130.139 128.517 129.283ZM131.718 135.664C131.702 135.552 131.662 135.445 131.6 135.35C131.537 135.256 131.455 135.176 131.359 135.117C131.233 135.028 131.082 134.979 130.928 134.978C130.773 134.978 130.622 135.024 130.495 135.112C130.368 135.2 130.271 135.324 130.217 135.469C130.164 135.614 130.156 135.771 130.195 135.921C130.229 136.123 130.342 136.303 130.509 136.421C130.675 136.54 130.883 136.588 131.085 136.554C131.287 136.52 131.467 136.407 131.586 136.24C131.705 136.073 131.752 135.866 131.718 135.664ZM136.614 140.899C136.78 140.858 136.929 140.764 137.037 140.631C137.145 140.499 137.207 140.334 137.213 140.163C137.266 139.984 137.244 139.791 137.154 139.628C137.065 139.464 136.913 139.343 136.734 139.291C136.555 139.239 136.362 139.26 136.198 139.35C136.034 139.439 135.913 139.591 135.861 139.77C135.604 140.026 135.741 141.121 136.614 140.899ZM135.176 148.939C135.002 149.019 134.863 149.159 134.782 149.332C133.755 152.822 138.326 148.99 135.176 148.939ZM147.587 149.589C147.563 149.401 147.471 149.229 147.33 149.103C147.188 148.978 147.006 148.907 146.817 148.905C144.044 149.674 147.108 152.258 147.587 149.589ZM150.069 139.667C150.806 140.009 151.405 138.555 150.532 138.162C150.052 137.785 149.025 138.624 149.659 139.462C149.764 139.581 149.911 139.654 150.069 139.667ZM156.575 142.404C157.345 142.404 157.841 140.694 156.575 140.694C156.215 140.694 155.821 140.899 155.736 141.549C155.726 141.662 155.74 141.777 155.778 141.884C155.817 141.991 155.878 142.089 155.958 142.17C156.037 142.251 156.134 142.314 156.24 142.355C156.347 142.395 156.461 142.412 156.575 142.404ZM132.266 166.045C132.493 166.023 132.702 165.911 132.846 165.734C132.991 165.558 133.059 165.331 133.036 165.105C133.014 164.878 132.902 164.669 132.725 164.525C132.549 164.38 132.322 164.312 132.095 164.335C131.868 164.358 131.659 164.469 131.515 164.646C131.37 164.822 131.302 165.049 131.324 165.276C131.347 165.503 131.459 165.711 131.636 165.855C131.812 166 132.039 166.068 132.266 166.045ZM124.682 175.762C125.419 176.361 126.857 175.215 126.035 174.188C125.47 173.213 123.672 174.599 124.682 175.762ZM134.731 178.294C134.911 178.175 135.046 177.998 135.111 177.793C135.176 177.587 135.169 177.366 135.091 177.165C135.091 176.669 133.927 175.899 133.601 177.011C133.498 177.173 133.449 177.365 133.464 177.557C133.479 177.75 133.556 177.932 133.684 178.077C133.811 178.221 133.982 178.321 134.171 178.36C134.36 178.399 134.557 178.376 134.731 178.294ZM123.501 163.514C123.296 163.394 123.21 163.377 122.697 163.514C122.183 163.651 122.132 164.249 122.697 164.762C123.262 165.276 124.751 164.232 123.501 163.514ZM184.906 113.374C184.948 113.1 184.923 112.82 184.833 112.557C184.743 112.295 184.59 112.058 184.388 111.868C184.186 111.677 183.94 111.539 183.672 111.465C183.405 111.391 183.123 111.382 182.852 111.441C182.508 111.573 182.226 111.829 182.064 112.16C181.928 112.291 181.823 112.452 181.758 112.63C181.692 112.807 181.668 112.998 181.688 113.186C181.208 115.085 184.444 115.718 184.906 113.374ZM189.203 118.985C191.223 120.405 193.739 117.446 192.404 115.684C192.088 115.237 191.629 114.913 191.102 114.763C190.576 114.614 190.014 114.649 189.511 114.863C188.09 115.615 187.491 118.13 189.203 118.985ZM190.829 128.633C191.925 131.08 195.965 127.299 193.277 125.605C191.514 124.476 189.973 127.214 190.829 128.633ZM185.796 137.666C186.097 137.699 186.402 137.669 186.691 137.577C186.98 137.485 187.246 137.333 187.472 137.131C187.698 136.93 187.88 136.682 188.004 136.406C188.128 136.13 188.192 135.83 188.193 135.527C188.98 133.44 186.686 132.209 185.3 132.551C183.194 133.064 183.708 137.922 185.796 137.666ZM176.603 140.078C176.955 140.35 177.387 140.497 177.831 140.497C178.275 140.496 178.707 140.348 179.058 140.076C179.409 139.804 179.659 139.422 179.77 138.992C179.88 138.562 179.844 138.107 179.668 137.7C178.692 135.425 175.559 136.366 175.953 139.051C176.083 139.441 176.306 139.793 176.603 140.078ZM171.314 132.14C171.101 132.118 170.887 132.14 170.684 132.204C170.48 132.269 170.293 132.376 170.133 132.517C169.242 133.303 169.225 135.476 170.578 135.715C172.289 136.417 173.864 133.714 172.409 132.585C172.091 132.341 171.712 132.188 171.314 132.14Z" fill="#0E3A99"/>
<path d="M166.949 246.806C157.893 245.779 148.289 244.992 139.319 247.148L124.819 214.902C128.243 209.873 130.366 202.004 131.821 195.127C139.199 196.153 146.629 193.262 144.027 186.351C142.469 182.297 139.918 178.14 138.703 173.966C137.439 169.369 136.941 164.595 137.23 159.836C138.085 160.173 138.985 160.381 139.901 160.452C143.188 160.674 145.721 158.741 148.101 156.774C153.667 152.083 158.252 146.339 161.59 139.872C161.226 138.976 160.797 138.107 160.306 137.272C161.843 136.73 163.282 135.944 164.569 134.946C165.22 143.67 172.872 149.059 178.555 148.032C186.515 146.612 191.668 141.395 196.632 134.963C199.067 132.086 200.676 128.604 201.289 124.887C202.059 118.66 201.015 109.936 194.955 106.549C193.401 105.703 191.668 105.24 189.899 105.198C188.131 105.156 186.378 105.537 184.786 106.309C181.033 107.894 178.043 110.876 176.449 114.623C173.471 109.902 163.011 113.118 165.836 123.176C163.895 123.912 162.228 125.226 161.06 126.94C160.378 127.909 159.622 128.824 158.8 129.677C158.115 130.293 157.242 130.635 156.523 131.217C156.387 131.108 156.266 130.982 156.164 130.84H155.941C150.861 133.858 146.126 137.42 141.818 141.463C137.761 133.081 130.965 121.893 123.381 117.052C123.279 115.461 123.142 113.631 123.159 113.631C125.367 112.365 128.295 112.126 129.236 106.788C129.898 102.497 129.653 98.1149 128.517 93.9241C133.225 92.2135 134.149 85.6103 132.882 86.9789C132.28 87.7275 131.43 88.237 130.486 88.4158C131.804 86.7751 132.481 84.7112 132.39 82.6088C132.298 80.5065 131.445 78.509 129.989 76.9886C129.929 76.9147 129.846 76.8622 129.753 76.8389C129.661 76.8156 129.563 76.8227 129.475 76.8591C129.387 76.8956 129.312 76.9594 129.263 77.0413C129.214 77.1231 129.193 77.2186 129.202 77.3136C129.398 78.4132 129.179 79.5463 128.588 80.4941C127.996 81.4419 127.075 82.1371 126.001 82.4456V80.5468C126.004 80.4766 125.983 80.4075 125.941 80.3509C125.899 80.2943 125.84 80.2536 125.772 80.2356C125.704 80.2177 125.632 80.2234 125.567 80.252C125.503 80.2806 125.451 80.3303 125.419 80.3928C124.959 81.1738 124.348 81.8558 123.622 82.3991C122.896 82.9423 122.07 83.3361 121.19 83.5575C121.427 82.7414 121.622 81.9134 121.772 81.0771C121.781 80.9871 121.764 80.8966 121.725 80.8153C121.685 80.734 121.625 80.6649 121.549 80.6157C121.473 80.5664 121.385 80.5387 121.295 80.5356C121.205 80.5325 121.115 80.5541 121.036 80.5981L117.133 82.9588C117.133 82.9588 117.749 81.385 115.883 81.5219C115.883 81.5219 109.806 87.167 107.632 87.0473C106.074 87.0473 105.407 89.887 107.889 92.1793C103.318 95.6006 104.654 104.958 109.07 108.088C107.958 109.799 107.786 109.987 108.026 110.039C108.639 110.242 109.28 110.346 109.926 110.346C109.202 110.543 108.511 110.843 107.872 111.236C103.485 105.841 98.7323 100.754 93.6463 96.0111C93.2526 83.8826 92.8246 72.712 91.7633 72.3185C91.4725 72.2181 91.175 72.1381 90.8731 72.079C91.8831 68.7945 90.8731 64.1244 87.4493 62.6704C99.9118 48.814 101.538 48.4035 100.922 45.8375C103.164 47.2573 106.057 45.6493 107.444 43.7676C113.384 41.5779 112.391 27.8585 110.56 29.7231C109.875 30.4244 110.371 32.9562 106.571 33.0589C104.431 33.0589 102.137 32.3233 101.007 33.3155C96.7277 33.5378 95.1185 40.5344 97.207 43.357C96.5171 43.4925 95.8637 43.7723 95.2897 44.1781L83.1868 59.882C82.7417 59.882 80.7902 58.6845 80.2766 60.6347C80.1685 61.0439 80.1685 61.4742 80.2766 61.8835C79.7686 61.6947 79.2097 61.6947 78.7017 61.8835C78.3346 61.9901 78.0138 62.2165 77.7904 62.5266C77.5671 62.8366 77.454 63.2124 77.4692 63.5941C77.458 63.8764 77.5294 64.1558 77.6746 64.3981C77.4253 64.4229 77.1917 64.5309 77.0116 64.7047C76.8314 64.8786 76.7152 65.1081 76.6817 65.3561C76.6229 65.6804 76.6354 66.0135 76.7181 66.3325C76.8009 66.6515 76.952 66.9487 77.161 67.2036L62.8327 82.7877C62.8327 82.7877 60.8298 84.9945 61.9083 86.0722C61.9083 86.0722 62.9525 87.1157 65.332 84.7379L81.4407 69.8038C81.4439 70.3106 81.5819 70.8074 81.8406 71.2433C82.0993 71.6792 82.4694 72.0385 82.9129 72.2843C82.4829 72.2987 82.0542 72.3387 81.629 72.404C81.5263 72.404 81.629 72.5751 81.629 72.5751C91.438 72.2843 91.7119 72.7633 91.7633 72.7462C91.9002 76.5438 93.3382 91.9911 93.1841 95.9085C93.1771 95.9481 93.1771 95.9886 93.1841 96.0283C93.1841 96.4046 101.213 104.017 107.444 111.424C105.444 112.957 103.788 114.892 102.582 117.104C97.8062 125.007 96.0772 149.127 95.9916 157.082C94.6221 169.518 85.7204 172.324 82.9129 168.937C80.8427 166.614 78.5492 164.499 76.0654 162.624C74.2508 160.571 71.3578 157.715 69.0981 158.519C72.9327 154.926 79.6946 153.387 83.8202 145.107C90.4109 131.849 90.0514 114.093 89.3666 121.739C83.6467 115.059 79.8882 106.927 78.5075 98.2434C77.1267 89.5601 78.1775 80.6643 81.5434 72.5409C81.5434 72.3698 81.3037 72.233 81.2353 72.4211C68.8071 100.613 89.1441 122.167 89.2297 122.338C88.7529 126.814 87.8822 131.239 86.6277 135.562C81.9543 152.258 77.6232 151.214 69.7144 157.236C68.5801 157.948 67.6762 158.973 67.1113 160.187C66.5463 161.401 66.3446 162.752 66.5303 164.078C44.0877 172.632 48.6071 191.996 48.6071 191.996L54.6157 229.425C36.8808 236.405 19.3683 243.915 2.14695 252.092C2.02712 252.092 2.06136 252.4 2.23254 252.383C15.0202 251.322 27.2601 254.624 38.5242 260.269C35.3788 261.079 32.3045 262.143 29.3314 263.451C26.3699 264.614 23.4426 265.897 20.5667 267.265C14.4357 270.222 8.54601 273.653 2.95153 277.529C2.71187 277.529 2.81458 277.923 2.95153 277.871C12.7092 276.161 19.9161 274.929 29.2801 275.887C20.0873 280.831 1.44508 291.163 1.29102 291.163L2.40373 295.423H75.0897C75.0897 295.423 76.4592 290.188 80.3109 296.107C80.3109 296.107 110.56 300.503 144.249 324.966V320.022C144.249 320.022 120.283 298.964 78.171 291.368C90.5821 290.753 103.627 288.837 115.832 292.515C134.577 298.194 147.947 307.911 148.512 307.466C169.876 287.776 162.463 295.594 183.126 277.187C185.915 278.431 188.773 279.516 191.685 280.437C189.288 282.011 169.842 295.046 144.865 319.783L145.139 325C145.139 325 171.622 296.073 191.925 283.602C191.925 283.602 191.925 280.181 191.822 280.181C189.032 279.103 186.19 277.906 183.263 277.067C189.22 271.799 191.48 271.302 190.555 270.909C186.751 268.989 182.816 267.343 178.778 265.982C184.187 261.586 195.708 252.776 195.434 252.673C184.17 248.636 183.297 248.67 166.949 246.806ZM100.614 33.7089C100.388 34.0305 100.248 34.4043 100.207 34.795C100.166 35.1858 100.225 35.5805 100.379 35.9418C100.534 36.3032 100.778 36.6193 101.088 36.8602C101.399 37.101 101.766 37.2588 102.154 37.3184C105.355 37.3184 101.726 39.2001 101.589 39.5936C101.542 39.8 101.568 40.0163 101.661 40.2062C101.755 40.3962 101.911 40.5483 102.103 40.6371C103.079 41.099 103.918 40.141 104.739 39.9528C105.253 39.8331 105.903 40.0726 105.955 40.5858C106.006 41.099 105.27 41.5437 105.013 42.1083C104.91 42.3753 104.903 42.67 104.994 42.9416C105.084 43.2132 105.267 43.4448 105.51 43.5965C105.807 43.7817 106.152 43.8767 106.502 43.8702C105.863 44.7333 104.947 45.3516 103.906 45.6223C102.866 45.8931 101.765 45.8 100.785 45.3585C100.606 44.7268 100.22 44.1731 99.6896 43.7856C99.1592 43.3981 98.5142 43.1991 97.8575 43.2202C96.4367 41.8345 95.4267 35.4709 100.614 33.7089ZM82.4507 60.0531C82.6419 60.1145 82.8362 60.1659 83.0327 60.207C83.8887 60.6689 83.8202 62.0717 83.7688 62.5506C83.2039 62.5506 83.0156 63.2007 82.9471 63.6455C82.1426 63.4231 81.8173 63.5086 81.2353 62.6533C81.1169 62.5043 81.0136 62.3438 80.9271 62.1743C80.1568 60.84 80.7731 59.4714 82.4507 60.0531ZM78.8729 62.1743C79.4662 62.0709 80.0768 62.1929 80.5848 62.5164C80.7821 62.9521 81.103 63.3205 81.5077 63.5758C81.9123 63.8312 82.383 63.9625 82.8615 63.9534C82.839 64.2214 82.8801 64.491 82.9814 64.7403C82.8261 65.0454 82.5735 65.2901 82.2635 65.4357C81.9534 65.5813 81.6037 65.6195 81.2695 65.5443C80.7095 65.5999 80.1441 65.5305 79.6142 65.3412C79.0843 65.1519 78.603 64.8473 78.2053 64.4495C78.0574 64.2686 77.9559 64.0545 77.9095 63.8257C77.8632 63.5968 77.8733 63.3601 77.939 63.136C78.0048 62.912 78.1242 62.7073 78.2869 62.5397C78.4496 62.3721 78.6507 62.2467 78.8729 62.1743ZM77.5034 67.1181C77.2269 66.7975 77.0644 66.3945 77.0412 65.972C77.0412 65.4074 77.2466 64.5692 77.9827 64.7916C78.3839 65.1826 78.8617 65.4863 79.3862 65.6835C79.9106 65.8808 80.4703 65.9673 81.0298 65.9377C80.9178 66.2791 80.7276 66.5896 80.4744 66.8446C80.2211 67.0996 79.9119 67.2921 79.5712 67.4067C79.2304 67.5213 78.8677 67.5549 78.5117 67.5048C78.1557 67.4547 77.8163 67.3223 77.5205 67.1181H77.5034ZM90.4965 71.9422L83.4093 72.1303C82.9049 71.9334 82.465 71.6005 82.1386 71.1686C81.8122 70.7367 81.6121 70.2228 81.5605 69.6841L84.6077 66.8786C85.2753 68.5893 87.6205 68.5893 86.9016 68.2642C86.1826 67.9392 85.087 67.751 84.8473 66.4509C84.823 66.1543 84.9151 65.8598 85.1041 65.6298C84.5249 65.429 83.9773 65.1468 83.4778 64.7916C83.2487 64.4761 83.1509 64.084 83.2052 63.698C83.2595 63.3119 83.4615 62.9619 83.7688 62.7217H87.0556C90.7019 64.7916 90.856 68.1103 90.5136 71.9422H90.4965ZM139.576 254.606C139.965 255.913 140.439 257.194 140.997 258.438C139.327 260.035 137.369 261.3 135.228 262.168C133.002 259.567 133.516 260.132 133.002 259.516C135.372 258.133 137.577 256.486 139.576 254.606ZM140.552 266.393C139.199 267.625 133.704 272.278 131.992 273.235C131.307 272.739 131.992 271.097 132.215 270.55C133.584 268.189 134.577 268.377 134.697 262.527C136.768 262.373 140.757 259.328 141.544 258.319C142.586 260.187 143.413 262.166 144.009 264.22C143.718 264.408 143.342 264.648 143.102 264.836C142.827 264.117 142.421 263.456 141.904 262.886C141.647 262.578 141.288 262.099 140.825 262.321C140.363 262.544 140.209 263.416 140.158 263.827C140.088 264.697 140.205 265.572 140.5 266.393H140.552ZM143.102 191.021C141.39 194.904 135.707 194.819 132.009 194.271C133.122 188.866 133.636 185.068 133.721 184.007C137.676 184.452 143.547 186.71 143.102 191.021ZM167.068 115.222C169.191 112.639 174.121 111.578 176.056 114.914C176.069 114.945 176.091 114.972 176.118 114.993C176.144 115.014 176.176 115.028 176.21 115.034C176.223 115.059 176.242 115.08 176.266 115.095C176.291 115.109 176.318 115.117 176.347 115.117C176.375 115.117 176.403 115.109 176.427 115.095C176.451 115.08 176.471 115.059 176.484 115.034C182.646 102.529 200.998 100.698 200.758 122.68C200.758 129.523 196.239 134.912 191.805 139.667C174.686 157.971 160.204 140.146 166.332 127.282C166.357 127.216 166.357 127.143 166.332 127.077C167.271 126.553 168.298 126.205 169.362 126.05C168.592 129.762 175.2 129.968 175.73 125.623C175.815 124.759 175.601 123.893 175.125 123.168C174.648 122.443 173.938 121.902 173.111 121.637C172.362 121.456 171.572 121.58 170.914 121.981C170.256 122.382 169.784 123.027 169.602 123.775C168.555 123.063 167.274 122.782 166.024 122.988C165.733 120.303 165.305 117.48 167.154 115.222H167.068ZM169.722 123.998C169.924 123.315 170.389 122.74 171.015 122.4C171.641 122.06 172.377 121.983 173.06 122.184C173.667 122.394 174.197 122.779 174.585 123.291C174.972 123.802 175.198 124.418 175.234 125.058C175.354 128.479 169.328 129.899 169.516 126.067H169.688C169.824 126.067 170.013 125.845 170.03 125.794C170.165 125.503 170.215 125.181 170.176 124.864C170.136 124.546 170.009 124.246 169.807 123.998H169.722ZM160.786 127.539C161.887 125.901 163.382 124.566 165.134 123.655C166.452 123.074 170.27 123.125 169.602 125.64C168.354 125.695 167.155 126.144 166.178 126.923C165.596 126.923 164.346 131.251 164.466 134.501C163.08 135.442 161.556 136.212 160.17 137.135C155.017 127.402 155.547 134.193 160.871 127.539H160.786ZM128.26 93.9926C130.434 110.62 127.558 110.86 122.885 113.152C122.848 113.171 122.817 113.201 122.795 113.237C122.774 113.274 122.764 113.315 122.765 113.357C122.747 115.277 122.844 117.197 123.056 119.105C121.28 121.168 119.358 123.1 117.304 124.887C113.827 122.358 111.286 118.749 110.08 114.623C110.315 113.175 110.362 111.703 110.217 110.244C111.279 110.244 112.391 110.09 113.316 110.039C113.504 110.039 113.59 109.645 113.572 109.611C112.936 107.82 112.116 106.1 111.124 104.479C111.124 104.65 110.782 105.078 110.697 105.249C110.681 105.24 110.663 105.235 110.645 105.235C110.627 105.235 110.609 105.24 110.594 105.249C107.53 105.249 106.999 100.801 109.755 100.647C111.467 100.544 111.467 102.443 112.717 102.956C112.733 102.964 112.75 102.968 112.768 102.968C112.786 102.968 112.803 102.964 112.819 102.956C113.658 103.162 114.36 102.409 114.531 101.519C114.754 100.031 113.247 98.0981 114.822 95.3269C120.591 96.4388 124.717 94.8821 128.277 93.9926H128.26ZM108.06 92.1622C109.937 93.6091 112.112 94.62 114.428 95.1216C113.076 97.0546 114.274 99.5693 114.274 100.733C114.252 101.164 114.089 101.575 113.811 101.906C113.533 102.236 113.155 102.467 112.734 102.563C111.963 101.827 111.741 100.733 110.645 100.322C110.171 100.155 109.655 100.144 109.174 100.292C108.693 100.44 108.273 100.738 107.975 101.143C107.727 101.588 107.603 102.091 107.615 102.601C107.627 103.11 107.775 103.606 108.044 104.039C108.313 104.472 108.693 104.825 109.144 105.062C109.595 105.298 110.102 105.41 110.611 105.386C110.2 106.155 109.738 106.874 109.276 107.609C107.216 105.629 105.955 102.963 105.731 100.117C105.507 97.2696 106.336 94.4394 108.06 92.1622ZM108.334 109.679C109.388 108.294 110.343 106.836 111.193 105.317C111.433 105.933 112.699 108.738 113.11 109.474C112.237 109.491 109.036 109.577 108.334 109.679ZM109.875 110.706C109.875 111.116 109.464 114.435 109.875 114.674C110.309 116.853 111.175 118.922 112.422 120.761C113.668 122.6 115.27 124.172 117.133 125.383C119.534 123.679 121.643 121.6 123.381 119.225C123.412 119.207 123.437 119.183 123.455 119.153C123.473 119.123 123.483 119.089 123.484 119.054C123.484 118.746 123.484 118.113 123.381 117.343C131.496 124.613 134.44 127.795 141.425 141.583C141.544 141.805 141.818 141.686 141.853 141.48C146.612 138.059 150.891 133.971 155.975 130.943C157.687 133.919 159.399 136.759 161.111 139.753C157.071 147.126 148.597 157.869 142.657 159.716C138.514 160.999 133.824 157.544 132.489 156.295L132.386 156.397C133.657 157.848 135.22 159.014 136.974 159.819C135.553 166.336 137.898 173.675 140.226 179.662C141.39 182.639 144.01 186.505 143.462 189.926C143.017 185.171 137.008 181.938 115.028 180.723L116.534 169.364C117.595 163.873 115.404 156.808 115.935 143.961C116.705 125.742 121.824 124.066 125.538 119.67C125.552 119.657 125.563 119.642 125.571 119.626C125.578 119.609 125.583 119.591 125.583 119.573C125.584 119.555 125.581 119.536 125.575 119.519C125.569 119.502 125.559 119.486 125.547 119.473C125.535 119.459 125.52 119.448 125.503 119.441C125.487 119.433 125.469 119.429 125.45 119.428C125.432 119.427 125.414 119.43 125.397 119.436C125.379 119.442 125.364 119.452 125.35 119.464C119.787 124.477 116.791 127.299 115.644 140.882C114.634 152.514 116.705 161.581 116.243 167.79L96.3511 157.201C97.7034 136.759 98.1485 115.923 109.875 110.706ZM67.8656 159.802C70.2622 157.698 72.539 159.802 74.559 161.786C71.9883 162.307 69.4594 163.016 66.9925 163.907C66.814 163.202 66.7999 162.465 66.9513 161.753C67.1026 161.041 67.4154 160.374 67.8656 159.802ZM72.6417 195.315C80.328 194.596 94.2968 189.276 94.2968 189.276C94.2968 189.276 94.8104 174.445 95.4267 173.367C96.0429 172.289 95.9402 173.367 95.9402 173.367C92.8589 218.494 104.808 231.376 104.808 231.376L121.67 251.476C120.461 251.872 119.278 252.341 118.126 252.879C113.775 245.007 108.179 237.89 101.555 231.803C98.4123 228.888 94.9693 226.313 91.2839 224.122C87.6034 221.984 83.3922 219.966 79.0441 220.291C78.9242 220.085 79.3693 219.966 70.673 223.216L72.6417 195.315ZM3.41373 277.427C8.90075 273.852 14.6196 270.646 20.5324 267.83C23.6994 266.324 26.9348 264.939 30.2045 263.69C33.1318 262.561 36.2474 261.774 39.1062 260.525C53.2109 267.912 65.8143 277.861 76.2709 289.863C66.7871 283.02 54.5986 280.506 43.403 277.888C28.6638 274.416 20.4126 273.988 3.41373 277.495V277.427ZM2.59203 291.112C2.76322 291.026 30.0846 276.144 30.2216 275.973C39.5855 277.05 65.3662 282.473 76.9385 291.146C75.4492 291.146 46.3474 289.658 2.59203 291.197V291.112ZM2.98576 251.921C19.9675 243.938 37.1946 236.525 54.6671 229.682L55.6257 235.601L57.9539 235.687C58.2201 237.217 58.6506 238.713 59.2378 240.151C58.3818 240.151 57.834 241.862 56.3105 243.573C55.2618 244.52 54.1139 245.352 52.8867 246.053C51.3803 247.148 51.7911 248.328 53.4345 248.859C56.2933 249.765 60.0766 248.072 62.6957 247.148C62.9983 246.204 63.3702 245.283 63.8085 244.394C64.7842 243.47 64.9554 246.344 64.9212 246.772C65.6835 246.908 66.4607 246.943 67.2322 246.874C67.6418 244.514 67.5425 242.094 66.9412 239.775H66.5817C66.7812 238.553 66.8843 237.318 66.8898 236.08L69.6973 236.183L70.5874 223.695C78.8729 220.684 78.8729 220.838 79.027 220.684C87.826 220.872 96.1456 227.527 102.171 233.274C108.238 239.163 113.458 245.864 117.681 253.187C110.833 256.608 105.27 262.339 99.6721 267.334C91.4697 274.355 84.0383 282.228 77.5034 290.821C60.0423 270.293 29.845 248.705 2.98576 252.006V251.921ZM62.6615 246.789C60.3675 247.552 58.0142 248.124 55.6257 248.499C54.8725 248.499 51.1577 248.499 53.0237 246.241C55.6843 245.053 57.8205 242.937 59.0323 240.288C61.63 240.674 64.2787 240.535 66.8213 239.878C66.8213 241.417 67.0096 240.271 66.9583 246.532C66.4548 246.526 65.9514 246.555 65.4518 246.618C65.6402 243.145 63.3634 242.734 62.6615 246.926V246.789ZM66.2907 239.724C64.0684 240.04 61.8244 240.177 59.5801 240.134C59.5801 240.134 58.8269 237.141 58.3989 235.687L66.6159 235.977C66.4276 237.329 66.2735 239.826 66.2907 239.861V239.724ZM189.956 271.08C182.612 275.784 176.775 282.541 169.927 287.879C162.221 293.654 155.001 300.05 148.341 307.004C137.963 300.826 126.949 295.785 115.49 291.967C105.938 289.042 87.5178 289.47 78.3251 290.992C90.4965 285.86 98.9531 285.142 111.073 286.425C123.193 287.708 131.496 289.624 142.281 296.689C142.999 297.168 154.777 285.279 178.487 266.017C182.39 267.693 186.156 269.506 189.956 271.217V271.08ZM194.664 252.776C176.775 266.632 159.314 280.951 142.743 296.346C142.734 296.31 142.717 296.275 142.693 296.246C142.67 296.216 142.64 296.192 142.606 296.175C133.036 289.812 122.389 287.143 111.073 285.911C99.09 284.646 89.9316 285.33 77.8629 290.753C84.356 282.715 91.4522 275.184 99.0901 268.223C111.261 257.104 115.113 254.008 121.995 251.75L129.459 260.679C130.557 260.465 131.614 260.078 132.591 259.533L134.954 262.116C134.868 262.116 134.44 262.219 134.44 262.373C133.995 268.035 134.132 266.564 131.872 270.533C131.536 271.011 131.377 271.592 131.42 272.175C131.464 272.758 131.709 273.308 132.112 273.732C132.215 273.732 141.031 266.478 140.997 266.427C140.962 266.376 139.952 262.8 141.134 262.732C142.007 262.732 143.102 265.059 143.188 265.024C143.586 264.862 143.956 264.637 144.283 264.357C143.805 262.043 142.9 259.839 141.613 257.857C141.613 257.857 141.288 257.994 141.236 258.045C140.808 256.745 140.363 255.445 139.867 254.162C141.014 253.101 141.733 252.348 141.733 252.348L139.439 247.216C148.557 245.882 157.816 245.83 166.949 247.062C182.595 249.064 184.016 249.047 194.664 252.913V252.776Z" fill="#0E3A99"/>
<path d="M262.556 174.393V174.291H262.436C262.396 174.285 262.355 174.294 262.32 174.316C262.286 174.338 262.26 174.371 262.248 174.411L241.928 185.769C241.004 190.491 242.1 190.2 240.49 207.905C239.018 209.719 238.094 212.319 232.855 214.269C229.92 215.137 227.058 216.235 224.296 217.553C220.701 219.589 219.76 223.352 223.372 226.107C223.295 226.16 223.226 226.223 223.166 226.295L222.653 226.586C222.584 226.634 222.531 226.702 222.501 226.781C222.47 226.859 222.464 226.945 222.482 227.027C222.501 227.11 222.543 227.185 222.604 227.243C222.664 227.301 222.741 227.34 222.824 227.355C223.046 227.561 223.235 227.458 223.44 227.355C223.449 227.475 223.449 227.595 223.44 227.715C223.44 227.814 223.48 227.91 223.55 227.981C223.621 228.051 223.717 228.091 223.817 228.091C223.917 228.091 224.012 228.051 224.083 227.981C224.154 227.91 224.193 227.814 224.193 227.715V226.996L224.501 226.825C227.052 228.296 230.716 228.998 231.486 232.316C232.051 234.78 230.134 237.79 227.703 239.518C227.703 239.518 227.412 237.106 227.395 237.072C227.275 236.73 226.71 236.73 226.727 237.158V237.962L226.094 236.901C226.033 236.831 225.95 236.784 225.859 236.769C225.768 236.754 225.675 236.772 225.595 236.819C225.515 236.865 225.455 236.939 225.424 237.026C225.393 237.113 225.394 237.208 225.426 237.294C225.871 238.252 226.299 239.21 226.761 240.168C220.564 243.59 218.339 235.977 214.453 232.761C214.949 230.127 215.069 230.178 214.966 229.939C214.981 229.886 214.985 229.831 214.978 229.776C214.972 229.722 214.954 229.669 214.927 229.622C214.9 229.574 214.864 229.532 214.821 229.498C214.778 229.465 214.728 229.44 214.675 229.425C214.623 229.411 214.567 229.407 214.513 229.413C214.459 229.42 214.406 229.437 214.358 229.464C214.311 229.491 214.269 229.528 214.235 229.571C214.201 229.614 214.176 229.663 214.162 229.716C214.042 230.007 213.956 230.315 213.854 230.623C213.751 230.931 213.734 230.794 213.648 231.119L213.46 230.554C213.437 230.47 213.382 230.399 213.307 230.356C213.231 230.312 213.142 230.301 213.058 230.323C212.974 230.346 212.902 230.401 212.859 230.477C212.815 230.552 212.804 230.641 212.827 230.725C212.741 230.896 212.827 231.17 212.981 231.735C212.156 231.213 211.271 230.793 210.344 230.486C207.936 229.781 205.354 229.963 203.069 230.999C202.932 230.349 202.829 229.682 202.744 229.032C202.658 228.382 202.127 228.724 202.042 229.032C201.934 229.079 201.849 229.164 201.802 229.271C201.682 229.1 201.545 228.827 201.22 228.963C201.167 228.945 201.109 228.943 201.054 228.957C200.999 228.971 200.95 229.001 200.912 229.043C200.873 229.085 200.848 229.136 200.839 229.192C200.83 229.248 200.838 229.305 200.861 229.357C201.289 230.041 201.699 230.725 202.11 231.41C199.233 232.925 196.661 234.961 194.527 237.414C194.506 237.45 194.498 237.491 194.504 237.532C194.509 237.573 194.528 237.611 194.557 237.64C194.586 237.669 194.624 237.688 194.665 237.694C194.706 237.699 194.748 237.691 194.783 237.671C197.093 235.617 199.585 233.779 202.23 232.179C202.367 233.001 202.538 233.89 202.709 234.626C202.709 235.088 203.582 234.985 203.514 234.523C203.522 234.421 203.522 234.318 203.514 234.215C203.579 234.155 203.626 234.078 203.651 233.993L203.805 234.232C203.85 234.315 203.92 234.381 204.006 234.419C204.092 234.458 204.188 234.467 204.279 234.446C204.371 234.425 204.453 234.374 204.513 234.301C204.572 234.228 204.606 234.138 204.61 234.044V233.959C204.61 233.912 204.6 233.866 204.579 233.824C204.558 233.783 204.527 233.746 204.49 233.719C204.147 233.03 203.764 232.362 203.343 231.718C204.932 230.978 206.692 230.684 208.435 230.868C210.178 231.051 211.838 231.706 213.237 232.761V232.898C213.237 233.274 213.1 233.651 213.015 234.027C212.929 234.403 212.878 234.677 212.827 235.002C212.775 235.327 213.58 235.806 213.665 235.242V235.002C213.735 234.95 213.789 234.878 213.819 234.797L214.333 236.131C214.521 236.61 215.292 236.422 215.12 235.909C214.949 235.396 214.658 234.506 214.419 233.822C217.705 237.072 220.444 244.291 226.847 241.024C226.967 242.17 226.984 242.512 227.138 243.932C227.157 244.028 227.21 244.115 227.286 244.178C227.363 244.24 227.458 244.274 227.557 244.274C227.656 244.274 227.752 244.24 227.828 244.178C227.904 244.115 227.957 244.028 227.977 243.932C227.977 243.572 227.977 243.213 227.891 242.854C227.908 242.781 227.908 242.705 227.891 242.632C227.935 242.649 227.984 242.649 228.028 242.632C228.319 242.82 228.815 242.632 228.678 242.17C228.441 241.552 228.173 240.947 227.874 240.356C230.904 238.269 233.266 234.301 231.537 231.05C230.253 228.656 227.429 227.886 224.929 226.62C225.734 226.072 227.001 225.85 226.248 225.251C226.025 224.379 225.289 225.251 224.108 225.85V225.132C224.108 225.077 224.086 225.025 224.048 224.986C224.009 224.948 223.957 224.926 223.902 224.926C223.848 224.926 223.796 224.948 223.757 224.986C223.719 225.025 223.697 225.077 223.697 225.132C223.697 225.371 223.611 225.593 223.56 225.833C220.393 223.506 221.18 220.102 224.433 218.203C227.686 216.305 231.64 215.603 235.115 214.166C236.4 213.588 237.558 212.761 238.521 211.733C239.485 210.706 240.236 209.498 240.73 208.179L264.508 196.41C264.553 196.421 264.601 196.415 264.642 196.393C264.683 196.37 264.715 196.334 264.73 196.29C264.388 194.733 262.728 174.496 262.556 174.393ZM252.901 191.295L240.918 207.82C241.261 204.706 242.63 189.652 242.151 185.906L252.936 191.295L262.317 174.855C262.707 181.971 263.456 189.062 264.559 196.102L252.901 191.295ZM13.4795 209.89L11.6135 206.793L10.9288 210.163L7.84743 210.848L10.2783 212.575L9.5593 215.86L12.4352 213.499L15.8076 215.039L14.2498 211.942L16.3041 209.411L13.4795 209.89ZM192.079 206.964L189.442 202.773L188.467 207.341L184.05 208.264L187.508 210.608L186.498 215.073L190.589 211.857L195.4 213.961L193.174 209.77L196.084 206.314L192.079 206.964ZM71.4947 26.7977C73.3435 27.1056 75.7059 26.6951 76.7501 28.5939L76.2366 28.9531C76.1325 29.4283 76.1991 29.9249 76.4249 30.3559C76.7401 31.0287 77.1874 31.6313 77.7402 32.128C78.2931 32.6246 78.9402 33.0051 79.6432 33.2469L80.0369 33.1443C81.0127 33.7772 82.3479 34.222 83.2724 33.2298C84.1968 32.2376 83.5805 30.6638 83.5976 30.6296C85.5663 27.9096 81.4749 25.3094 81.4749 25.3094L80.9956 25.6516C79.181 22.2302 84.0769 18.9458 79.7973 13.044C74.8157 6.20137 61.5487 9.36609 65.3491 20.9815C65.7333 22.4249 66.5115 23.7332 67.5967 24.7603C68.6819 25.7873 70.0315 26.4927 71.4947 26.7977ZM78.2052 27.6017C75.9543 25.3585 73.5271 23.2991 70.9469 21.4433C71.6659 21.6144 72.0938 21.9908 72.6588 21.3578V21.1183C73.3264 19.4077 73.7372 21.2039 74.6103 19.9038V19.5445C75.0896 18.8603 75.0211 19.4248 75.4834 19.3734C75.7037 19.3871 75.9246 19.3581 76.1339 19.2879C76.6645 19.0484 76.5618 18.1931 77.4862 18.2957C77.9032 21.1364 78.6441 23.9201 79.6945 26.5924L78.2052 27.6017ZM83.1525 31.177C83.2904 31.5009 83.3346 31.8569 83.2802 32.2047C83.2257 32.5525 83.0747 32.878 82.8444 33.1443C82.1254 33.8114 81.1325 33.4351 80.4478 32.9903C81.4722 32.5927 82.3959 31.9735 83.1525 31.177ZM80.8586 16.6877C81.6118 20.109 78.8728 23.5303 80.6018 25.9253L80.0369 26.3187C78.5305 21.3407 76.8357 13.6598 77.3664 17.8681C75.7572 17.7654 76.151 18.4155 75.86 18.655C75.5689 18.8945 74.7815 18.655 74.2508 18.9116C74.0967 18.9116 74.2508 19.2708 74.0967 19.3392C73.0525 20.4341 73.3778 19.63 72.5047 19.9209C72.1794 20.0406 72.1623 20.1261 72.0083 20.3998C71.8542 20.6736 72.4191 20.9986 71.8542 21.3065C71.8542 21.3065 70.9127 21.1696 70.5532 21.1525C67.1294 18.4839 74.3878 25.0528 77.7259 27.9952L77.0412 28.4742C75.0383 24.4712 66.1879 29.5861 65.2464 17.7141C64.4932 7.86071 78.8729 7.39883 80.8586 16.6877ZM203.309 287.143C203.269 287.542 203.371 287.941 203.596 288.273C203.821 288.604 204.156 288.846 204.541 288.956C206.493 289.11 206.664 287.707 206.664 287.707L207.537 284.457L204.113 284.098L203.309 287.143ZM71.0838 0.179848C71.0838 -0.0767512 70.5874 -0.042538 70.6216 0.179848C70.8157 2.03891 71.1244 3.88423 71.5461 5.70528C71.7515 6.30401 72.8984 6.44086 71.0838 0.179848ZM80.4135 9.86218C81.1715 8.51884 81.7472 7.08066 82.1254 5.58553C82.1197 5.5408 82.1022 5.49837 82.0749 5.46252C82.0475 5.42666 82.0111 5.39865 81.9695 5.38131C81.9278 5.36396 81.8823 5.35789 81.8376 5.36371C81.7928 5.36954 81.7504 5.38704 81.7146 5.41447C80.8793 6.71718 80.2392 8.13491 79.8144 9.62269C79.7117 9.94771 80.2595 10.2727 80.4135 9.86218ZM61.4289 10.5122C61.4665 10.5267 61.5071 10.5315 61.547 10.5261C61.5869 10.5207 61.6248 10.5054 61.6572 10.4815C61.6896 10.4577 61.7155 10.426 61.7324 10.3895C61.7494 10.3531 61.7569 10.3129 61.7542 10.2727C60.6089 8.5096 59.2837 6.86999 57.7997 5.38025C57.6114 5.22629 57.2862 5.38025 57.4403 5.65396C58.0565 6.42376 60.6586 9.74244 61.4289 10.5122ZM53.948 22.504C59.6486 21.7171 59.0836 20.7933 58.6899 20.7933C56.9781 20.9986 55.4374 21.6828 53.8111 22.0079C53.4687 22.0592 53.6228 22.5553 53.948 22.504ZM65.5203 29.2611C65.6743 29.0558 65.4176 28.7479 65.1779 28.8334C63.819 29.6819 62.5258 30.6312 61.3091 31.6731C61.0352 31.8955 61.3091 32.3403 61.6686 32.1521C63.0208 31.2828 64.3081 30.3166 65.5203 29.2611ZM71.4947 30.8862C71.2037 32.3231 71.255 33.8456 71.0496 35.2997C71.0496 35.6589 71.5461 35.83 71.6145 35.4537C71.9985 33.9635 72.1373 32.4209 72.0254 30.8862C72.0254 30.8159 71.9974 30.7484 71.9477 30.6987C71.8979 30.649 71.8304 30.621 71.76 30.621C71.6897 30.621 71.6222 30.649 71.5724 30.6987C71.5227 30.7484 71.4947 30.8159 71.4947 30.8862ZM65.0752 50.9351C65.4873 50.9696 65.9021 50.9158 66.2918 50.7775C66.6815 50.6392 67.0372 50.4195 67.3353 50.1329C67.6333 49.8464 67.8669 49.4997 68.0203 49.116C68.1737 48.7322 68.2435 48.3201 68.225 47.9073C67.9169 43.6819 61.8911 44.2293 61.737 47.6849C61.78 48.5477 62.1481 49.3623 62.7672 49.9652C63.3864 50.5681 64.2109 50.9146 65.0752 50.9351ZM67.506 47.5138C67.5917 47.8675 67.5918 48.2365 67.5065 48.5903C67.4211 48.944 67.2527 49.2724 67.0152 49.5482C66.7776 49.824 66.4778 50.0394 66.1404 50.1764C65.8031 50.3135 65.4379 50.3683 65.0752 50.3364C64.3856 50.351 63.7148 50.1115 63.1907 49.6634C62.6666 49.2154 62.3259 48.5903 62.2335 47.9073C62.2705 47.2644 62.5389 46.6566 62.9892 46.1959C63.4395 45.7352 64.0412 45.4528 64.6835 45.4007C65.3258 45.3486 65.9653 45.5304 66.484 45.9124C67.0028 46.2945 67.3657 46.8511 67.506 47.4796V47.5138ZM144.403 85.8839C144.54 86.2945 162.395 87.0643 166.332 86.9787C165.82 87.4576 165.455 88.0721 165.279 88.7506C165.103 89.4291 165.124 90.1435 165.339 90.8106C165.853 92.0936 167.462 92.3502 168.66 92.5213C175.08 93.3766 181.465 94.6596 188.569 93.2226C198.259 91.2725 193.123 81.6586 187.285 86.0892C187.503 84.8333 187.341 83.5411 186.819 82.3781C186.297 81.2151 185.44 80.2343 184.356 79.5616C183.273 78.8889 182.013 78.5549 180.739 78.6024C179.464 78.6499 178.233 79.0767 177.203 79.8282C177.203 75.466 170.732 71.8223 167.993 75.7397C168.695 69.5129 163.165 65.5955 157.191 66.7587C150.771 67.9733 149.624 75.2778 152.483 80.2045C151.615 79.5024 150.542 79.1021 149.425 79.0645C148.309 79.0269 147.211 79.3539 146.298 79.996C145.384 80.6381 144.705 81.5603 144.363 82.6227C144.021 83.6852 144.035 84.8301 144.403 85.8839ZM177.545 80.2387C182.167 77.4846 187.149 80.2387 186.703 86.5853C186.703 86.5853 187.131 86.7563 187.166 86.7221C192.627 82.3428 197.077 90.7422 189.134 92.5555C182.681 94.0266 174.926 93.0687 168.301 91.9054C163.165 90.9988 167.034 84.1903 170.92 86.859C171.211 87.0642 171.314 84.7206 173.248 84.7035C174.19 84.7035 175.474 85.0286 175.782 86.0207C175.782 86.0207 176.124 85.576 176.09 85.4733C175.645 83.5574 175.628 81.3849 177.545 80.2387ZM167.274 76.3555C167.274 76.6977 167.804 76.4582 167.822 76.3555C170.92 72.3355 176.381 75.8594 176.552 80.1361C175.871 80.639 175.382 81.3582 175.164 82.1758C174.946 82.9933 175.013 83.8606 175.354 84.6351C173.642 83.489 170.886 83.9851 170.697 86.3458C170.401 86.0877 170.056 85.8911 169.683 85.7676C169.31 85.644 168.916 85.596 168.524 85.6262C168.132 85.6565 167.75 85.7644 167.4 85.9438C167.05 86.1231 166.74 86.3703 166.486 86.6708C159.639 85.7128 145.601 85.7984 144.865 85.4733C144.129 85.1483 144.865 82.3941 145.379 81.573C145.803 81.014 146.345 80.5552 146.966 80.2292C147.588 79.9033 148.273 79.7182 148.975 79.6872C149.676 79.6561 150.375 79.7799 151.023 80.0497C151.671 80.3195 152.251 80.7286 152.723 81.248C152.997 81.4875 153.082 80.8032 153.065 80.7861C145.122 62.6874 169.756 63.6795 167.359 76.3555H167.274ZM185.967 46.5729C185.653 44.347 184.728 42.2513 183.297 40.5172C176.757 34.5641 163.097 41.133 169.927 54.2025C170.687 55.3986 171.528 56.5416 172.444 57.6238C173.984 59.8477 174.686 64.8257 175.011 67.5114C175.011 67.5795 175.038 67.6447 175.087 67.6929C175.135 67.741 175.2 67.768 175.268 67.768H180.181C180.986 67.768 179.924 61.6439 180.934 58.8555C182.407 54.5788 187.114 51.6536 185.967 46.5729ZM175.525 38.9947C176.654 38.7575 177.82 38.7575 178.949 38.9947C180.125 42.1672 180.643 45.5455 180.473 48.9244C180.302 52.3033 179.446 55.6122 177.956 58.6502H176.569C175.08 55.6128 174.221 52.3063 174.041 48.9289C173.862 45.5514 174.366 42.1726 175.525 38.9947ZM169.893 52.8168C167.856 47.6849 167.822 43.22 172.426 40.2777C169.619 43.9214 170.287 53.5695 175.85 58.6673C175.063 58.6673 174.292 58.4278 173.505 58.3423C172.184 56.5797 170.977 54.7341 169.893 52.8168ZM179.77 67.3232C178.675 67.443 177.613 67.3232 176.518 67.3232C175.422 67.3232 175.645 67.922 175.08 64.3638C176.741 64.6286 178.434 64.6286 180.096 64.3638C180.123 65.3605 180.013 66.3562 179.77 67.3232ZM180.096 63.9019C178.384 64.1243 176.672 63.9019 174.96 64.073C174.584 62.2025 174.093 60.3571 173.488 58.5476C175.753 59.3172 178.203 59.3531 180.489 58.6502C180.066 60.3724 179.933 62.1531 180.096 63.919V63.9019ZM180.729 58.1712C180.154 58.2303 179.582 58.3216 179.017 58.4449C184.529 53.0392 184.786 43.5964 182.116 40.2093C184.838 42.1081 186.584 48.0954 184.94 51.3799C183.742 53.7406 181.825 55.7079 180.798 58.2225L180.729 58.1712ZM194.698 70.813C195.057 71.6683 195.383 66.2455 199.08 65.7836C199.217 65.7836 199.337 65.6468 199.217 65.527C198.464 64.7915 196.358 64.7572 196.102 60.2069C196.102 60.0187 195.742 59.9503 195.742 60.2069C195.639 65.3389 189.34 65.4928 190.607 65.8692C193.722 66.7245 194.253 69.7695 194.698 70.813ZM195.913 61.5925C195.962 62.3832 196.2 63.1505 196.608 63.8294C197.017 64.5084 197.583 65.079 198.259 65.4928C197.419 65.9547 196.682 66.5828 196.094 67.3387C195.505 68.0945 195.077 68.9624 194.835 69.8892C194.552 68.997 194.093 68.1708 193.484 67.4596C192.875 66.7484 192.129 66.1668 191.291 65.7494C192.357 65.5185 193.344 65.0135 194.155 64.2844C194.965 63.5554 195.572 62.6275 195.913 61.5925ZM217.243 89.8013C217.106 89.8013 217.14 90.075 217.243 90.1092C218.205 90.3215 219.067 90.853 219.689 91.617C220.311 92.3811 220.655 93.3328 220.667 94.3175C220.667 94.4372 220.924 94.4714 220.958 94.3175C220.992 94.1635 220.958 90.8961 223.081 89.6302C223.218 89.6302 223.286 89.2539 223.081 89.271C220.753 89.6131 219.4 84.9772 219.383 84.9088C219.366 84.8404 219.041 84.8062 219.092 84.9088C219.287 85.8156 219.216 86.7594 218.889 87.6271C218.561 88.4949 217.989 89.2497 217.243 89.8013ZM219.708 86.38C220.256 87.7485 221.146 89.4592 222.481 89.6816C221.656 90.4764 221.104 91.5127 220.907 92.641C220.345 91.4062 219.327 90.4373 218.065 89.9382C219.039 88.9787 219.625 87.6932 219.708 86.3287V86.38ZM103.181 63.7137V63.8677C104.032 64.0236 104.815 64.4343 105.427 65.0454C106.038 65.6565 106.449 66.439 106.605 67.289C106.616 67.3233 106.638 67.3531 106.667 67.3742C106.697 67.3953 106.732 67.4067 106.768 67.4067C106.804 67.4067 106.839 67.3953 106.868 67.3742C106.897 67.3531 106.919 67.3233 106.93 67.289C107.41 65.7323 107.735 64.0559 110.354 63.6795C110.457 63.6795 110.491 63.4571 110.354 63.4571C107.256 63.1492 106.656 59.3173 106.537 59.0436C106.417 58.7699 106.246 59.0436 106.263 59.0436C106.725 61.9518 104.106 63.1834 103.181 63.7137ZM106.742 60.5661C106.951 61.2073 107.295 61.7966 107.749 62.295C108.204 62.7934 108.759 63.1896 109.378 63.4571C108.778 63.7187 108.243 64.1108 107.814 64.6051C107.385 65.0993 107.071 65.6832 106.896 66.3139C106.605 65.6597 106.16 65.085 105.6 64.6384C105.04 64.1918 104.381 63.8864 103.678 63.748C104.412 63.5127 105.077 63.0988 105.612 62.5434C106.147 61.9881 106.535 61.3086 106.742 60.5661ZM262.864 125.93C261.153 120.046 260.913 114.572 260.228 115.256C258.071 117.394 253.381 121.637 253.381 121.654C253.381 121.671 259.629 124.665 262.419 126.238C262.488 126.29 262.916 126.084 262.864 125.93ZM254.048 121.551C256.334 119.785 258.438 117.796 260.331 115.615C260.53 119.005 261.18 122.353 262.265 125.571C259.458 124.083 256.787 123.176 254.048 121.551ZM246.636 125.212C246.168 126.898 245.808 128.612 245.557 130.344C245.557 130.703 246.037 130.857 246.105 130.498C246.554 128.757 246.817 126.974 246.893 125.178C246.88 125.152 246.86 125.131 246.834 125.118C246.809 125.105 246.78 125.099 246.752 125.103C246.724 125.107 246.697 125.12 246.677 125.139C246.656 125.159 246.642 125.184 246.636 125.212ZM244.205 137.837C244.759 136.164 245.171 134.447 245.438 132.705C245.438 132.482 245.13 132.465 245.061 132.705C244.511 134.344 244.099 136.026 243.828 137.734C243.831 137.777 243.846 137.819 243.874 137.852C243.901 137.886 243.938 137.91 243.98 137.922C244.021 137.933 244.066 137.931 244.106 137.916C244.147 137.9 244.181 137.873 244.205 137.837ZM250.385 133.577C250.449 133.597 250.518 133.593 250.579 133.566C250.641 133.538 250.689 133.489 250.717 133.428C250.744 133.367 250.748 133.298 250.728 133.234C250.708 133.17 250.665 133.115 250.607 133.081C249.254 132.394 247.796 131.931 246.294 131.712C245.044 131.73 249.529 133.44 250.385 133.577ZM243.931 130.755C242.442 130.344 240.97 129.814 239.48 129.42C239.155 129.42 237.991 129.745 243.76 131.387C243.844 131.41 243.934 131.399 244.009 131.355C244.084 131.312 244.14 131.24 244.162 131.157C244.185 131.073 244.173 130.983 244.13 130.908C244.087 130.832 244.015 130.777 243.931 130.755ZM200.57 152.839C198.122 154.088 196.067 158.176 196.992 160.828C196.992 160.828 197.129 160.948 197.163 160.965C201.271 161.375 226.265 161.341 234.516 161.17C234.575 161.169 234.632 161.151 234.682 161.119C234.732 161.088 234.772 161.043 234.798 160.99C234.825 160.938 234.836 160.879 234.832 160.82C234.827 160.761 234.807 160.705 234.773 160.657C235.038 159.51 234.929 158.307 234.461 157.227C233.992 156.146 233.19 155.244 232.171 154.652C231.029 154.218 229.807 154.033 228.587 154.11C227.368 154.186 226.179 154.523 225.101 155.097C226.282 152.993 225.101 150.667 223.663 148.853C221.951 146.629 220.068 144.491 217.106 144.286C214.488 143.935 211.83 144.542 209.625 145.996C207.451 147.81 207.64 150.478 208.016 152.993C206.373 150.752 202.778 151.71 200.57 152.839ZM209.694 146.852C210.588 146.037 211.645 145.42 212.795 145.043C213.945 144.666 215.162 144.538 216.366 144.665C217.57 144.793 218.733 145.174 219.778 145.784C220.823 146.394 221.727 147.219 222.43 148.203C224.005 150.153 226.162 152.89 224.262 155.354C224.039 155.645 224.793 155.593 224.81 155.576C232.256 153.233 234.156 155.781 234.276 160.537C226.094 160.999 199.08 160.383 197.214 160.657C196.684 152.531 205.774 150.393 208.29 154.054C208.393 154.208 208.615 154.054 208.461 153.763C208.222 151.471 207.948 148.631 209.694 146.852ZM227.514 175.762C227.703 175.642 227.514 175.351 227.429 175.403C224.519 176.429 222.824 172.289 222.704 172.118C222.584 171.947 222.396 172.118 222.447 172.221C223.252 174.239 223.012 176.617 220.735 177.473C220.705 177.483 220.679 177.503 220.66 177.529C220.642 177.555 220.632 177.586 220.632 177.618C220.632 177.65 220.642 177.681 220.66 177.707C220.679 177.733 220.705 177.753 220.735 177.763C221.697 177.62 222.678 177.819 223.507 178.326C224.337 178.832 224.961 179.614 225.272 180.535C225.272 180.74 225.683 180.706 225.666 180.535C225.648 180.364 225.169 177.13 227.514 175.762ZM225.203 179.354C224.82 178.793 224.311 178.329 223.716 178C223.122 177.67 222.459 177.484 221.78 177.456C222.32 177.029 222.737 176.467 222.99 175.827C223.242 175.187 223.321 174.492 223.218 173.812C223.565 174.425 224.06 174.942 224.658 175.316C225.256 175.689 225.937 175.907 226.641 175.95C226.19 176.395 225.83 176.925 225.583 177.509C225.337 178.093 225.207 178.72 225.203 179.354ZM160.461 242.341C164.381 230.469 173.864 220.102 184.153 213.26C184.478 213.037 184.153 212.524 183.845 212.729C162.515 226.911 159.177 246.344 160.461 242.341ZM153.955 230.246C159.793 221.334 165.425 217.759 174.755 212.781C175.114 212.592 174.755 212.062 174.446 212.25C166.521 216.202 157.773 221.933 153.784 230.144C153.777 230.166 153.778 230.189 153.786 230.211C153.794 230.232 153.81 230.251 153.829 230.262C153.849 230.274 153.872 230.279 153.895 230.276C153.918 230.273 153.939 230.263 153.955 230.246ZM180.524 205.63C181.328 205.527 180.643 204.347 173.368 206.006C157.841 209.428 154.246 216.578 155.085 215.655C162.566 207.478 173.591 206.52 180.524 205.63ZM23.5453 173.641C21.1144 174.924 19.2142 172.991 18.5637 170.801C18.5637 170.63 18.2042 170.647 18.2214 170.801C18.6664 176.173 26.8834 176.036 25.6851 169.09C24.8405 165.594 23.4048 162.267 21.4397 159.254C17.1086 151.881 13.2741 149.195 14.0444 150.153C18.4953 155.679 29.6053 170.459 23.5453 173.641ZM43.5399 183.152C44.567 182.519 44.0021 180.911 44.1048 179.936C44.1048 179.696 43.7453 179.662 43.694 179.936C43.6285 180.435 43.5885 180.938 43.5741 181.441C43.2318 183.152 41.5884 182.69 40.4414 182.143C38.6681 181.105 37.1708 179.655 36.0761 177.917C33.8678 174.855 31.9505 171.554 30.0332 168.321C18.0502 148.357 17.1942 149.606 17.4339 149.897C23.3227 157.543 27.8763 165.943 32.9605 174.12C34.8607 177.199 36.9321 181.065 40.4072 182.673C41.2117 183.049 42.684 183.665 43.5399 183.152ZM24.9661 155.251C24.8463 155.097 24.5895 155.251 24.6922 155.456C32.9263 167.226 31.6082 163.24 24.9661 155.251ZM6.47794 143.43C2.81454 148.956 9.21692 151.522 9.21692 151.522C8.74747 150.836 8.56192 149.995 8.69914 149.176C8.83637 148.356 9.28572 147.621 9.95303 147.126C10.4451 147.463 10.9599 147.766 11.4937 148.032C13.0977 147.477 14.5308 146.516 15.6536 145.244C15.4697 144.611 15.2232 143.998 14.9174 143.413C15.633 142.937 16.5069 142.76 17.3518 142.919C18.1966 143.079 18.9452 143.564 19.4368 144.269C19.4368 144.269 19.4368 137.152 12.5893 138.846C4.95437 125.451 -6.97735 120.97 5.26251 141.412C5.58776 142.096 6.01573 142.763 6.47794 143.43ZM4.86878 129.899C6.80319 132.055 10.7747 134.21 15.2598 145.004C14.1197 146.055 12.8683 146.979 11.5279 147.758C3.85878 139.581 4.3381 137.991 1.06843 132.619L4.86878 129.899ZM45.1319 99.8771C41.7082 100.39 36.3329 104.12 37.6339 108.174C36.5514 107.3 35.2155 106.797 33.8247 106.742C32.4339 106.686 31.0623 107.081 29.9134 107.866C28.5146 108.938 27.498 110.432 27.0141 112.126C26.5301 113.821 26.6043 115.626 27.2258 117.275H57.8853C60.8126 117.275 61.7884 103.966 51.5857 108.003C51.9844 107.025 52.1157 105.959 51.9663 104.914C51.8168 103.869 51.3919 102.882 50.7351 102.055C50.0783 101.228 49.2133 100.591 48.2286 100.208C47.244 99.8252 46.1753 99.711 45.1319 99.8771ZM51.2604 108.67C56.6699 105.249 61.9082 111.013 57.9538 116.932C57.9538 116.932 29.2629 116.522 27.7051 116.83C25.0346 108.276 34.2616 104.137 38.0961 109.269C38.216 109.44 38.0961 108.704 37.9592 108.516C36.3672 102.837 46.0392 97.3624 50.1648 101.93C52.9038 104.941 50.4558 109.2 51.2604 108.67ZM17.4339 62.4479C17.332 62.6222 17.2699 62.8169 17.2521 63.018C17.2344 63.2191 17.2614 63.4216 17.3312 63.6111C16.6978 64.3125 17.7934 66.3311 19.4368 65.2191C22.3044 66.4147 25.3327 67.1813 28.4241 67.4943C27.551 70.2656 25.5481 77.5359 28.0475 79.007C30.5468 80.4782 34.0219 72.1644 35.049 69.684C35.7752 69.4338 36.4486 69.051 37.0348 68.5549C41.4001 68.9142 50.9352 69.2221 48.0079 64.9625C46.8267 63.2519 40.0648 61.9689 38.0106 61.6438C39.1575 58.137 42.2389 47.6335 37.1204 49.6692C34.9463 50.5075 32.8749 55.6052 31.437 59.1805C30.5077 59.3956 29.6587 59.8702 28.989 60.549C26.1987 60.2753 18.5808 59.8819 17.4339 62.4479ZM38.1475 62.0373C40.1333 62.3452 46.9294 63.748 47.6484 65.1678C49.5999 68.897 41.537 68.2128 37.5655 67.9904C38.3533 67.2284 38.8444 66.2112 38.9511 65.1207C39.0577 64.0302 38.7729 62.9373 38.1475 62.0373ZM37.2231 50.0627C41.4 48.8481 38.6953 57.4527 37.4799 61.3359C36.7799 60.5602 35.9114 59.955 34.9411 59.5665C33.9708 59.1781 32.9244 59.0168 31.8821 59.095C32.6524 57.1961 35.3229 50.5759 37.2231 50.0285V50.0627ZM34.467 69.9063C29.6909 82.9758 24.7949 80.7177 28.8178 67.7338C29.3991 68.6552 30.2648 69.3623 31.2841 69.7481C32.3034 70.1339 33.4207 70.1775 34.467 69.8721V69.9063ZM28.7322 60.9596C28.1288 61.8343 27.7735 62.8559 27.7042 63.9161C27.6349 64.9762 27.8541 66.0354 28.3385 66.9811C28.3385 66.9811 21.2171 65.8692 19.7792 64.8941C20.3441 64.3638 19.9503 62.8926 17.879 63.1834C17.5366 62.2426 18.9061 61.7123 19.5053 61.4728C22.5135 60.6764 25.6508 60.4902 28.7322 60.9254V60.9596ZM15.9959 40.7909C16.8133 41.1406 17.5307 41.688 18.0836 42.3838C18.6365 43.0796 19.0074 43.902 19.1629 44.7767C19.6251 45.7518 19.1629 40.9278 21.8848 40.7225C22.0046 40.7225 22.0731 40.5172 21.8848 40.4488C20.6864 39.8329 19.0259 39.6448 17.9646 34.9233C17.9646 34.6496 17.4168 34.7865 17.5537 35.0431C18.6151 37.0959 15.9617 40.5514 15.9446 40.5514C15.9128 40.5582 15.885 40.5774 15.8674 40.6046C15.8497 40.6319 15.8436 40.6651 15.8504 40.6968C15.8572 40.7286 15.8764 40.7563 15.9037 40.774C15.931 40.7916 15.9641 40.7977 15.9959 40.7909ZM18.1186 36.9248C18.3068 37.7058 18.6632 38.4364 19.1628 39.0657C19.6625 39.695 20.2934 40.2078 21.0117 40.5685C20.4891 40.8516 20.0441 41.2585 19.7157 41.7537C19.3874 42.2488 19.1858 42.817 19.1286 43.4082C18.9337 42.7166 18.5583 42.0892 18.0409 41.5902C17.5236 41.0913 16.8828 40.7387 16.1842 40.5685C17.2466 39.626 17.9334 38.3324 18.1186 36.9248ZM15.7563 22.2474C18.8261 21.5487 21.8457 20.6458 24.7949 19.5445C26.6266 20.4683 19.4539 12.7019 16.732 10.8202C16.6122 10.7346 16.4752 10.9228 16.5608 11.0254C16.0301 14.6547 15.6873 18.309 15.5337 21.9737C15.5337 21.9737 15.6878 22.2474 15.7563 22.2474ZM16.7491 11.1965C22.5353 16.9956 22.1929 17.2693 24.3841 19.1853C21.5766 20.0919 18.8034 21.2723 15.9446 21.9565C16.15 18.3471 16.4068 14.7547 16.7491 11.1794V11.1965ZM15.1742 112.228C15.2037 112.264 15.2465 112.287 15.293 112.292C15.3396 112.297 15.3861 112.283 15.4224 112.254C15.4588 112.224 15.4819 112.182 15.4867 112.135C15.4915 112.088 15.4776 112.042 15.4481 112.006C15.2995 111.156 15.3675 110.283 15.6457 109.467C15.924 108.651 16.4035 107.918 17.0402 107.336C17.2456 107.147 17.0402 106.754 16.8519 106.891C14.0444 108.448 12.0757 105.3 12.0415 105.18C12.0073 105.06 11.682 105.18 11.7505 105.3C13.0686 108.721 11.0657 110.004 10.1927 110.432C10.1071 110.432 10.1927 110.637 10.1927 110.603C11.0756 110.2 12.0779 110.143 13.0007 110.444C13.9235 110.745 14.6993 111.382 15.1742 112.228ZM12.4181 106.343C12.8961 106.879 13.5069 107.28 14.189 107.505C14.8712 107.731 15.6006 107.772 16.3041 107.626C15.399 108.63 14.9041 109.936 14.9174 111.287C14.5082 110.839 13.9987 110.494 13.4304 110.28C12.8622 110.065 12.2514 109.989 11.6478 110.056C12.0829 109.554 12.3822 108.95 12.5171 108.3C12.6519 107.65 12.6179 106.976 12.4181 106.343ZM36.4356 145.004C36.35 145.004 36.4356 145.175 36.4356 145.175C37.2888 144.744 38.2757 144.658 39.1908 144.935C40.106 145.212 40.8789 145.831 41.3487 146.664C41.4685 146.835 41.7082 146.664 41.6226 146.441C41.4967 145.592 41.5754 144.726 41.8523 143.913C42.1293 143.101 42.5963 142.367 43.2146 141.771C43.4029 141.583 43.2146 141.224 43.0263 141.326C42.5993 141.537 42.1344 141.659 41.6592 141.686C41.1839 141.714 40.708 141.646 40.2595 141.486C39.8111 141.327 39.3992 141.079 39.0481 140.758C38.6971 140.437 38.4142 140.048 38.216 139.616C38.216 139.462 37.8565 139.616 37.925 139.735C39.3629 143.157 37.3258 144.491 36.4356 145.004ZM38.6611 140.779C39.139 141.315 39.7498 141.716 40.432 141.941C41.1141 142.166 41.8436 142.208 42.547 142.062C41.7298 143.113 41.2628 144.393 41.2117 145.723C40.8096 145.265 40.3011 144.914 39.7309 144.699C39.1607 144.484 38.5464 144.413 37.9421 144.491C38.3685 143.985 38.6584 143.378 38.7842 142.728C38.9101 142.079 38.8677 141.408 38.6611 140.779ZM5.70759 164.916C5.73711 164.953 5.77984 164.976 5.82639 164.981C5.87294 164.985 5.91949 164.972 5.95581 164.942C5.99214 164.913 6.01525 164.87 6.02006 164.823C6.02488 164.777 6.011 164.73 5.98149 164.694C5.622 162.864 5.98149 162.111 7.60777 160.058C7.77895 159.853 7.60777 159.511 7.41946 159.613C6.99204 159.829 6.52539 159.955 6.04767 159.985C5.56996 160.016 5.09108 159.949 4.63994 159.789C4.1888 159.629 3.77474 159.379 3.42276 159.055C3.07079 158.731 2.78818 158.339 2.59199 157.903C2.59199 157.749 2.24962 157.903 2.31809 158.022C2.57815 158.463 2.74444 158.952 2.80653 159.459C2.86862 159.966 2.82518 160.481 2.67893 160.971C2.53269 161.461 2.28678 161.915 1.95663 162.306C1.62648 162.696 1.21919 163.014 0.760294 163.24V163.411C1.62212 162.988 2.61283 162.908 3.53153 163.187C4.45024 163.467 5.22818 164.085 5.70759 164.916ZM2.9686 159.1C3.44393 159.635 4.05175 160.035 4.73091 160.26C5.41007 160.485 6.13661 160.528 6.83743 160.383C6.37581 160.875 6.01575 161.453 5.77783 162.084C5.5399 162.715 5.42878 163.387 5.45081 164.061C5.04502 163.612 4.53904 163.265 3.97393 163.048C3.40881 162.831 2.80047 162.75 2.19826 162.812C2.63056 162.309 2.928 161.705 3.06273 161.056C3.19746 160.406 3.16508 159.733 2.9686 159.1ZM18.4439 212.438C22.762 213.821 26.712 216.16 29.999 219.281C32.9811 222.38 35.7764 225.653 38.37 229.083C38.5412 229.288 38.8494 229.083 38.7124 228.827C34.3985 221.317 26.969 214.457 18.4781 212.302C18.3925 212.285 18.3754 212.421 18.4439 212.438ZM38.216 216.493C38.4043 216.595 38.6268 216.322 38.4556 216.185C35.3461 213.247 31.3076 211.486 27.0375 211.207C26.8492 211.207 26.8492 211.498 27.0375 211.515C31.3856 211.823 34.6895 214.235 38.216 216.493ZM38.9007 209.411C35.8535 207.275 32.3127 205.948 28.6113 205.556C24.9099 205.164 21.1696 205.72 17.742 207.17C17.6222 207.17 17.742 207.426 17.742 207.392C21.1846 206.223 24.8418 205.822 28.4561 206.219C32.0704 206.615 35.5538 207.798 38.6611 209.684C38.6974 209.716 38.7448 209.732 38.793 209.729C38.8412 209.726 38.8861 209.704 38.9178 209.667C38.9496 209.631 38.9657 209.584 38.9625 209.535C38.9593 209.487 38.937 209.442 38.9007 209.411ZM212.741 251.955C211.748 254.315 209.608 258.951 209.591 258.986C207.447 266.546 205.766 274.229 204.558 281.994C204.558 281.994 207.982 282.627 207.982 282.593C210.344 274.963 211.645 266.957 213.768 259.293C213.768 259.293 213.015 252.074 213.032 252.04C213.049 252.006 212.792 251.801 212.741 251.955ZM212.895 252.399C212.861 252.901 212.861 253.404 212.895 253.905H212.347C212.587 253.34 212.741 252.861 212.895 252.399ZM204.764 281.72C205.757 277.546 209.351 262.492 209.899 259.157C209.899 259.157 210.961 259.037 211.491 259.037C209.386 266.53 206.184 281.874 206.184 281.891C205.719 281.779 205.242 281.722 204.764 281.72ZM207.845 282.165L206.493 281.943C208.205 274.33 211.748 259.037 211.748 259.02C212.333 259.09 212.907 259.228 213.46 259.43C212.005 262.886 208.787 278.23 207.845 282.165ZM209.882 258.814C210.789 257.359 211.573 255.832 212.227 254.247C212.477 254.331 212.735 254.383 212.998 254.401C212.998 254.658 213.272 257.822 213.409 259.054C212.245 258.846 211.063 258.766 209.882 258.814ZM207.537 282.781C206.513 282.573 205.479 282.419 204.438 282.319C204.319 282.319 204.25 282.49 204.438 282.558C205.422 282.909 206.446 283.134 207.486 283.226C207.708 283.294 207.828 282.832 207.537 282.781ZM204.233 283.448C205.038 284.149 206.27 283.824 207.195 284.218C207.226 284.239 207.261 284.253 207.298 284.258C207.335 284.264 207.373 284.262 207.409 284.251C207.445 284.241 207.478 284.223 207.506 284.198C207.535 284.174 207.557 284.143 207.573 284.109C207.588 284.075 207.595 284.038 207.595 284C207.594 283.963 207.585 283.926 207.569 283.892C207.552 283.859 207.529 283.829 207.499 283.805C207.47 283.782 207.436 283.765 207.4 283.756C206.886 283.585 203.839 283.037 204.233 283.448ZM233.215 268.942C232.262 268.736 231.267 268.881 230.412 269.349C229.557 269.817 228.899 270.577 228.559 271.49C227.138 276.622 235.064 278.641 236.159 273.56C236.374 272.558 236.186 271.512 235.635 270.648C235.084 269.783 234.214 269.171 233.215 268.942ZM229.209 270.926C229.997 269.215 232.633 269.113 233.129 269.215C233.93 269.468 234.622 269.984 235.091 270.68C235.561 271.376 235.78 272.21 235.714 273.047C235.389 278.402 226.847 275.938 229.209 270.926ZM248.913 280.266C249.101 277.204 248.331 274.775 248.194 275.767C248.017 277.296 248.08 278.843 248.382 280.352C248.451 280.642 248.896 280.557 248.913 280.266ZM248.861 288.084C248.861 288.409 249.426 288.323 249.426 287.998C249.437 286.592 249.305 285.187 249.033 283.807C248.536 282.576 248.656 286.732 248.861 288.084ZM253.655 280.865C246.807 281.977 249.187 282.302 253.826 281.481C254.237 281.412 254.048 280.796 253.655 280.865ZM247.68 281.925C246.321 281.944 244.965 282.064 243.623 282.285C243.593 282.295 243.567 282.315 243.548 282.341C243.53 282.367 243.52 282.398 243.52 282.43C243.52 282.462 243.53 282.493 243.548 282.519C243.567 282.545 243.593 282.565 243.623 282.576C244.999 282.765 246.398 282.695 247.749 282.37C247.778 282.366 247.806 282.356 247.831 282.34C247.857 282.325 247.879 282.305 247.896 282.281C247.913 282.257 247.926 282.23 247.933 282.201C247.94 282.173 247.941 282.143 247.937 282.114C247.932 282.084 247.922 282.056 247.907 282.031C247.892 282.006 247.871 281.984 247.848 281.966C247.824 281.949 247.797 281.936 247.768 281.929C247.739 281.922 247.709 281.921 247.68 281.925Z" fill="#0E3A99"/>
<path d="M8.92596 141.72C8.96119 142.015 9.10349 142.287 9.3259 142.484C9.54832 142.682 9.83541 142.791 10.1328 142.791C10.4302 142.791 10.7173 142.682 10.9397 142.484C11.1622 142.287 11.3045 142.015 11.3397 141.72C11.3397 141.053 8.92596 140.112 8.92596 141.72ZM6.28968 137.614C6.32518 137.914 6.4694 138.19 6.695 138.39C6.92059 138.59 7.21188 138.701 7.51367 138.701C7.81545 138.701 8.10674 138.59 8.33234 138.39C8.55793 138.19 8.70215 137.914 8.73765 137.614C8.70215 137.315 8.55793 137.039 8.33234 136.838C8.10674 136.638 7.81545 136.528 7.51367 136.528C7.21188 136.528 6.92059 136.638 6.695 136.838C6.4694 137.039 6.32518 137.315 6.28968 137.614ZM3.24255 133.8C3.24255 134.122 3.37061 134.431 3.59854 134.658C3.82648 134.886 4.13563 135.014 4.45798 135.014C4.78033 135.014 5.08948 134.886 5.31742 134.658C5.54535 134.431 5.67341 134.122 5.67341 133.8C5.67341 133.132 3.24255 132.191 3.24255 133.8ZM88.117 110.757C88.4121 110.757 88.6951 110.64 88.9038 110.431C89.1125 110.223 89.2297 109.94 89.2297 109.645C89.2297 109.35 89.1125 109.067 88.9038 108.859C88.6951 108.65 88.4121 108.533 88.117 108.533C87.4323 108.533 86.6448 110.757 88.117 110.757ZM97.1214 114.914C97.1405 114.764 97.1276 114.613 97.0834 114.469C97.0392 114.325 96.9649 114.192 96.8653 114.079C96.7657 113.966 96.6431 113.875 96.5057 113.813C96.3684 113.751 96.2194 113.719 96.0686 113.719C95.9179 113.719 95.7689 113.751 95.6315 113.813C95.4941 113.875 95.3716 113.966 95.272 114.079C95.1724 114.192 95.098 114.325 95.0539 114.469C95.0097 114.613 94.9967 114.764 95.0158 114.914C95.0158 115.547 97.1214 116.334 97.1214 114.914Z" fill="#0E3A99"/>
</svg>
